<?xml version="1.0" standalone="no"?>
<!DOCTYPE svg PUBLIC "-//W3C//DTD SVG 1.1//EN" "http://www.w3.org/Graphics/SVG/1.1/DTD/svg11.dtd" >
<svg xmlns="http://www.w3.org/2000/svg">
<metadata></metadata>
<defs>
<font id="breakers_thinregular" horiz-adv-x="1024" >
<font-face units-per-em="2048" ascent="1638" descent="-410" />
<missing-glyph horiz-adv-x="450" />
<glyph unicode="&#xfb01;" horiz-adv-x="942" d="M41 1004v61h164v123q0 172 56 250t210 78q63 0 129.5 -13t101.5 -26l35 -13l-4 -43l-22 -12q-125 45 -240 45q-66 0 -105.5 -13.5t-62 -47.5t-30 -80.5t-7.5 -124.5v-123h512v-1065h-61v1004h-451v-1004h-61v1004h-164z" />
<glyph unicode="&#xfb02;" horiz-adv-x="1071" d="M41 1004v61h164v123q0 68 6 115t24 90t49.5 68.5t83 40t124.5 14.5t154.5 -15.5t127.5 -30.5l45 -16v-1239q0 -97 30 -137.5t93 -40.5q18 0 34.5 1.5t23.5 3.5l8 1l12 -10v-47q-27 -11 -78 -11q-97 0 -140.5 60.5t-43.5 179.5v1196q-133 43 -266 43q-75 0 -119.5 -13 t-68 -48t-31 -80t-7.5 -125v-123h318v-61h-318v-1004h-61v1004h-164z" />
<glyph unicode="&#xfb03;" horiz-adv-x="1495" d="M41 1004v61h164v123q0 172 56 250t210 78q27 0 65.5 -4t63.5 -8l25 -5l-4 -45l-15 -12q-100 12 -135 12q-66 0 -105.5 -13.5t-62 -47.5t-30 -80.5t-7.5 -124.5v-123h492v123q0 172 56 250t210 78q63 0 129.5 -13t101.5 -26l35 -13l-4 -43l-22 -12q-125 45 -240 45 q-66 0 -105.5 -13.5t-62 -47.5t-30 -80.5t-7.5 -124.5v-123h512v-1065h-61v1004h-451v-1004h-61v1004h-492v-1004h-61v1004h-164z" />
<glyph unicode="&#xfb04;" horiz-adv-x="1624" d="M41 1004v61h164v123q0 172 56 250t210 78q27 0 65.5 -4t63.5 -8l25 -5l-4 -45l-15 -12q-100 12 -135 12q-66 0 -105.5 -13.5t-62 -47.5t-30 -80.5t-7.5 -124.5v-123h492v123q0 68 6 115t24 90t49 68.5t82.5 40t124.5 14.5t155 -15.5t127 -30.5l46 -16v-1239 q0 -97 30 -137.5t93 -40.5q18 0 34.5 1.5t24.5 3.5l7 1l12 -10v-47q-27 -11 -78 -11q-97 0 -140.5 60.5t-43.5 179.5v1196q-134 43 -267 43q-75 0 -119 -13t-68 -48t-31 -80t-7 -125v-123h318v-61h-318v-1004h-61v1004h-492v-1004h-61v1004h-164z" />
<glyph horiz-adv-x="2048" />
<glyph horiz-adv-x="2048" />
<glyph unicode="&#xd;" horiz-adv-x="2048" />
<glyph unicode=" "  horiz-adv-x="450" />
<glyph unicode="&#x09;" horiz-adv-x="450" />
<glyph unicode="&#xa0;" horiz-adv-x="450" />
<glyph unicode="!" horiz-adv-x="442" d="M164 45q0 33 15.5 50.5t41.5 17.5t42 -17.5t16 -50.5q0 -31 -16 -48t-42 -17t-41.5 17t-15.5 48zM184 1167v215q0 18 5.5 26.5t25.5 8.5h12q20 0 25.5 -8.5t5.5 -26.5v-215l-18 -788h-37z" />
<glyph unicode="&#x22;" horiz-adv-x="462" d="M92 1335v51q0 25 9 36.5t32 11.5h10q25 0 34 -11t9 -37v-51l-24 -239h-47zM276 1335v51q0 25 9 36.5t32 11.5h11q25 0 34 -11t9 -37v-51l-25 -239h-47z" />
<glyph unicode="#" horiz-adv-x="1290" d="M94 389l12 62h254l97 491h-256l12 62h256l68 348h61l-68 -348h349l67 348h62l-68 -348h256l-12 -62h-256l-97 -491h259l-13 -62h-258l-76 -389h-61l76 389h-348l-76 -389h-62l76 389h-254zM422 451h348l96 491h-348z" />
<glyph unicode="$" horiz-adv-x="983" d="M102 1004q0 245 246 311v201h62v-189q70 8 116 8q31 0 47 -2v183h62v-187q44 -4 87.5 -12t65.5 -13l21 -6l-2 -49l-16 -10q-68 19 -156 29v-592q246 -87 246 -332q0 -64 -11 -115t-37 -98t-76 -81t-122 -52v-203h-62v191q-75 -11 -133 -11h-30v-180h-62v185 q-117 7 -203 36l-2 52l23 8q82 -25 182 -35v643q-126 38 -186 116t-60 204zM164 1004q0 -98 45 -159t139 -95v501q-184 -57 -184 -247zM410 37h30q81 0 133 8v584l-20 6l-143 33v-631zM410 731q2 -2 10 -2l143 -33q1 -1 4.5 -2t5.5 -2v580q-16 2 -47 2q-69 0 -116 -8v-535z M635 59q98 30 141 99t43 186q0 97 -43.5 162t-140.5 104v-551z" />
<glyph unicode="%" horiz-adv-x="1392" d="M102 938v84q0 155 65.5 232t168.5 77h6q102 0 166.5 -76.5t64.5 -232.5v-84q0 -154 -64.5 -230.5t-166.5 -76.5h-6q-103 0 -168.5 76.5t-65.5 230.5zM164 932q0 -46 8 -85.5t26.5 -76t54 -57.5t85.5 -21q49 0 84.5 21t54 57t27 76t8.5 86v98q0 46 -8.5 86t-27 76t-54 57 t-84.5 21q-50 0 -85.5 -21t-54 -57.5t-26.5 -76t-8 -85.5v-98zM250 -25l831 1375h74l-831 -1375h-74zM819 283v84q0 155 65.5 232t168.5 77h6q102 0 166.5 -76.5t64.5 -232.5v-84q0 -155 -64.5 -231.5t-166.5 -76.5h-6q-103 0 -168.5 77t-65.5 231zM881 276q0 -46 8 -85.5 t26.5 -75.5t54 -57t85.5 -21q49 0 84.5 21t54 57t27 75.5t8.5 85.5v99q0 46 -8.5 85.5t-27 75.5t-54 57t-84.5 21q-50 0 -85.5 -21t-54 -57t-26.5 -75.5t-8 -85.5v-99z" />
<glyph unicode="&#x26;" horiz-adv-x="1177" d="M102 297q0 106 65 190.5t224 194.5v4l-37 41q-103 115 -146.5 192t-43.5 177q0 126 83.5 203t233.5 77q140 0 229 -79.5t89 -211.5q0 -113 -62.5 -198.5t-244.5 -210.5v-8l317 -351l25 -32h4q43 111 43 247v123h61v-112q0 -177 -61 -305l215 -238h-84l-164 178 q-64 -99 -161.5 -151t-215.5 -52q-175 0 -272 87t-97 235zM164 297q0 -126 85.5 -193t221.5 -67q105 0 192 49t142 141l-369 410l-20 -14q-144 -101 -198 -171t-54 -155zM225 1096q0 -84 37.5 -150t140.5 -180l41 -47l7 4q171 118 228.5 191t57.5 171q0 60 -22.5 106t-60 72 t-81.5 39t-92 13q-109 0 -182.5 -55t-73.5 -164z" />
<glyph unicode="'" horiz-adv-x="278" d="M92 1335v51q0 25 9 36.5t32 11.5h10q25 0 34 -11t9 -37v-51l-24 -239h-47z" />
<glyph unicode="(" horiz-adv-x="491" d="M123 594q0 137 24.5 276t59.5 239.5t69.5 181.5t59.5 122l24 41h70q-10 -15 -26.5 -42.5t-59 -118t-75 -185t-59 -235.5t-26.5 -279q0 -123 21 -250.5t51 -222t60.5 -171t51.5 -116.5l21 -39h-70q-8 15 -21 43t-47 115t-60 176.5t-47 217.5t-21 247z" />
<glyph unicode=")" horiz-adv-x="491" d="M61 1454h70q10 -15 26 -43t57 -118.5t72.5 -185t57 -235.5t25.5 -278q0 -119 -20.5 -245.5t-49.5 -221t-57.5 -172.5t-49.5 -119l-20 -41h-70q8 15 22 41.5t49.5 112.5t62.5 174.5t49 218t22 252.5q0 138 -25.5 277t-61.5 239.5t-72 181t-62 121.5z" />
<glyph unicode="*" horiz-adv-x="972" d="M34 1153q-4 6 3 33l2 8q8 27 17 30t32 -7l55 -19l273 -104l28 -11l17 15v28l-17 291v58q0 27 5.5 34t31.5 7h8q6 0 11 -0.5t8.5 -0.5t6.5 -1.5t5 -2t3 -3.5t2 -4t1 -5.5v-6.5v-8v-9v-58l-16 -291v-28l16 -15l29 11l272 104l56 19q25 9 33 6t14 -25l4 -12q4 -10 5 -17 t2 -11t-4 -7t-6 -4t-11 -4t-13 -4l-55 -19l-281 -73l-26 -9l-8 -24l16 -21l184 -227l35 -47q15 -18 14.5 -27.5t-20.5 -23.5l-8 -6q-7 -5 -12 -8.5t-9.5 -4.5t-6.5 -1.5t-6 2.5t-5.5 4.5t-6.5 8t-7 9.5l-33 47l-158 244l-16 24h-25l-16 -22l-158 -246l-33 -47 q-16 -22 -23.5 -24t-31.5 14l-6 4q-7 5 -11.5 9t-7 8.5t-3.5 6t1 6.5t2.5 6.5t5.5 8.5t7 10l34 47l185 225l16 23l-8 22l-27 9l-280 73l-56 19q-25 8 -29 14z" />
<glyph unicode="+" d="M61 584v61h420v420h62v-420h420v-61h-420v-420h-62v420h-420z" />
<glyph unicode="," horiz-adv-x="360" d="M123 45q0 34 16 51t41 17t41.5 -17.5t16.5 -50.5q0 -39 -29 -127l-45 -143h-41v20l35 180q-35 15 -35 70z" />
<glyph unicode="-" horiz-adv-x="684" d="M86 584v61h512v-61h-512z" />
<glyph unicode="." horiz-adv-x="360" d="M123 45q0 33 15.5 50.5t41.5 17.5t42 -17.5t16 -50.5q0 -31 -16 -48t-42 -17t-41.5 17t-15.5 48z" />
<glyph unicode="/" horiz-adv-x="913" d="M41 -205l766 1721h65l-766 -1721h-65z" />
<glyph unicode="0" horiz-adv-x="1105" d="M123 592v168q0 299 114.5 457.5t313.5 158.5h4q199 0 313.5 -158.5t114.5 -457.5v-168q0 -299 -114.5 -458t-313.5 -159h-4q-199 0 -313.5 159t-114.5 458zM184 578q0 -270 100 -405.5t269 -135.5t269 135.5t100 405.5v198q0 269 -100 404t-269 135t-269 -135t-100 -404 v-198z" />
<glyph unicode="1" horiz-adv-x="614" d="M41 1065v53l328 234h41v-1352h-62v1251l-8 4l-279 -190h-20z" />
<glyph unicode="2" horiz-adv-x="978" d="M98 0v123q0 117 55.5 205t184.5 161l186 105q156 89 223.5 173t67.5 216v10q0 67 -19.5 124t-59 102t-107 70.5t-156.5 25.5q-68 0 -150.5 -20t-130.5 -40l-49 -20l-14 4q-6 29 -8 49q6 4 18 9.5t49.5 21t76.5 27t96 21t112 9.5q197 0 300.5 -106.5t103.5 -276.5v-10 q0 -69 -17 -128t-43.5 -101.5t-70.5 -83t-85.5 -68t-101.5 -61.5l-192 -109q-113 -64 -160 -135.5t-47 -173.5v-62h696v-61h-758z" />
<glyph unicode="3" horiz-adv-x="929" d="M82 25l4 47l18 10q137 -45 287 -45q93 0 167 28.5t118 76.5t67 106t23 121v10q0 135 -100 214t-269 79h-184v61h184q134 0 231 88t97 207v10q0 118 -84 197.5t-235 79.5q-61 0 -129.5 -16t-106.5 -32l-39 -16l-22 6q-7 23 -9 43q5 3 14.5 8t41 18.5t65 23.5t84.5 18 t101 8q96 0 171.5 -29.5t119.5 -78.5t66.5 -107.5t22.5 -122.5v-10q0 -115 -64 -197t-149 -116v-6q45 -13 87 -37.5t81 -63t62.5 -98t23.5 -131.5v-10q0 -168 -116.5 -281t-319.5 -113q-79 0 -156.5 12.5t-114.5 24.5z" />
<glyph unicode="4" horiz-adv-x="983" d="M61 287v61l455 1004h68l-455 -1004h578v471h61v-471h195v-61h-195v-287h-61v287h-646z" />
<glyph unicode="5" horiz-adv-x="966" d="M135 707l37 645h594v-62h-537l-30 -524q127 78 280 78q175 0 272 -94t97 -287v-53q0 -200 -95.5 -317.5t-293.5 -117.5q-81 0 -160 17t-117 34l-39 17l7 47l18 8q16 -7 43 -17t103.5 -27t144.5 -17q166 0 246.5 98.5t80.5 274.5v53q0 319 -307 319q-68 0 -141.5 -22.5 t-112.5 -45.5l-39 -22z" />
<glyph unicode="6" horiz-adv-x="1064" d="M123 563v133q0 351 125 515.5t366 164.5q55 0 112 -10t86 -20l30 -11l-4 -49l-17 -10q-105 39 -207 39q-430 0 -430 -598v-23q72 62 173.5 107t205.5 45q96 0 169.5 -29.5t118.5 -82.5t68 -122t23 -151v-51q0 -197 -101 -316t-288 -119q-203 0 -316.5 148t-113.5 440z M184 543q0 -112 20 -200t54 -144.5t82 -93.5t100.5 -52.5t112.5 -15.5q149 0 238.5 94.5t89.5 267.5v72q0 151 -86 232t-232 81q-195 0 -379 -161v-80z" />
<glyph unicode="7" horiz-adv-x="880" d="M61 1290v62h779v-62l-627 -1290h-70l623 1280v10h-705z" />
<glyph unicode="8" d="M102 317q0 135 69.5 232t229.5 172v6q-47 23 -76.5 39t-70 46.5t-64 63t-40.5 82t-17 107.5q0 139 102.5 225t276.5 86q178 0 278.5 -82t100.5 -229q0 -124 -64 -210t-206 -159v-10q69 -35 117 -67t93 -76t68 -101t23 -125q0 -114 -56.5 -192.5t-147 -114t-206.5 -35.5 t-206.5 35.5t-147 114t-56.5 192.5zM164 317q0 -132 90.5 -206t257.5 -74t257.5 74t90.5 206q0 65 -19.5 111.5t-82 99.5t-178.5 111l-107 53q-168 -75 -238.5 -165.5t-70.5 -209.5zM195 1065q0 -93 54.5 -157.5t203.5 -137.5l92 -47q148 72 216 148t68 194 q0 113 -83.5 181.5t-233.5 68.5t-233.5 -68.5t-83.5 -181.5z" />
<glyph unicode="9" horiz-adv-x="1064" d="M123 891v51q0 194 110 314t299 120q201 0 305.5 -146.5t104.5 -441.5v-133q0 -351 -125 -515.5t-366 -164.5q-55 0 -112 10.5t-87 20.5l-29 10l4 50l17 10q105 -39 207 -39q430 0 430 598v2q-70 -55 -171.5 -93t-207.5 -38q-96 0 -169.5 29.5t-118.5 82.5t-68 122 t-23 151zM184 881q0 -151 86 -232.5t232 -81.5q107 0 205.5 38t173.5 102v102q0 140 -27 241t-76 157.5t-109.5 82t-136.5 25.5q-151 0 -249.5 -96t-98.5 -267v-71z" />
<glyph unicode=":" horiz-adv-x="360" d="M123 45q0 33 15.5 50.5t41.5 17.5t42 -17.5t16 -50.5q0 -31 -16 -48t-42 -17t-41.5 17t-15.5 48zM123 895q0 33 15.5 50.5t41.5 17.5t42 -17.5t16 -50.5q0 -31 -16 -48.5t-42 -17.5t-41.5 17.5t-15.5 48.5z" />
<glyph unicode=";" horiz-adv-x="360" d="M123 45q0 34 16 51t41 17t41.5 -17.5t16.5 -50.5q0 -39 -29 -127l-45 -143h-41v20l35 180q-35 15 -35 70zM123 895q0 33 15.5 50.5t41.5 17.5t42 -17.5t16 -50.5q0 -31 -16 -48.5t-42 -17.5t-41.5 17.5t-15.5 48.5z" />
<glyph unicode="&#x3c;" d="M162 561v62l669 467h31v-56l-635 -442l635 -440v-54h-31z" />
<glyph unicode="=" d="M102 410v61h820v-61h-820zM102 717v61h820v-61h-820z" />
<glyph unicode="&#x3e;" d="M162 98v56l635 442l-635 440v54h31l669 -463v-62l-669 -467h-31z" />
<glyph unicode="?" horiz-adv-x="843" d="M119 1335q0 2 33 11.5t95.5 19.5t121.5 10q184 0 278 -86t94 -223v-10q0 -109 -49.5 -182.5t-165.5 -165.5q-110 -88 -138 -131.5t-28 -126.5v-113h-61v113q0 72 13 112t52.5 83t133.5 118q99 77 140.5 141t41.5 152v10q0 110 -78.5 179t-232.5 69q-54 0 -111 -8.5 t-87 -17.5l-30 -9l-16 8q-4 16 -6 47zM272 45q0 33 16 50.5t42 17.5t41.5 -17.5t15.5 -50.5q0 -31 -15.5 -48t-41.5 -17t-42 17t-16 48z" />
<glyph unicode="@" horiz-adv-x="1710" d="M102 516v135q0 236 91.5 419.5t258.5 285.5t382 102h43q332 0 531.5 -167.5t199.5 -463.5v-69q0 -176 -48 -317.5t-134.5 -221.5t-194.5 -80q-77 1 -122.5 38.5t-56 100t2.5 144.5l12 61l18 66l-8 4q-72 -187 -174.5 -300.5t-206.5 -113.5q-103 0 -165 86.5t-62 249.5 q0 62 11.5 136t41.5 160.5t73.5 156t115.5 116t161 46.5q139 0 297 -95l37 70h41l-123 -614q-26 -133 1 -191.5t106 -58.5q124 0 219.5 157t95.5 400v69q0 177 -85 307t-235.5 196.5t-348.5 66.5h-43q-146 0 -271 -55t-212.5 -152.5t-137 -236.5t-49.5 -302v-135 q0 -325 184.5 -512.5t485.5 -187.5h22q241 0 490 55l6 -47q-234 -70 -496 -70h-22q-163 0 -298.5 52.5t-231.5 149.5t-149 240.5t-53 319.5zM530 475q0 -141 48 -207.5t118 -66.5q87 0 198.5 136.5t221.5 412.5l41 186q-26 17 -61 35t-100 37.5t-124 19.5q-74 0 -135 -42.5 t-98 -105.5t-63 -140.5t-36 -144.5t-10 -120z" />
<glyph unicode="A" horiz-adv-x="1009" d="M31 0l438 1352h72l438 -1352h-68l-139 430h-536l-138 -430h-67zM256 492h496l-230 716l-14 72h-6q-9 -52 -15 -72z" />
<glyph unicode="B" horiz-adv-x="978" d="M164 0v1352h291q202 0 303.5 -92t101.5 -269v-16q0 -104 -31 -173.5t-114 -107.5v-8q186 -56 186 -309v-17q0 -71 -18 -132t-56 -114t-107 -83.5t-163 -30.5h-393zM225 61h332q75 0 131.5 23.5t88.5 64t47.5 88t15.5 101.5v51q0 123 -64 194.5t-203 71.5h-348v-594z M225 717h348q106 0 166 63.5t60 171.5v45q0 147 -83 220t-261 73h-230v-573z" />
<glyph unicode="C" horiz-adv-x="886" d="M119 614v72q0 153 23.5 272t64.5 197t100.5 128t126 71.5t146.5 21.5q52 0 103 -7t76 -14l25 -7l-6 -45l-16 -11q-86 23 -182 23q-400 0 -400 -633v-43q0 -311 100 -456.5t316 -145.5q49 0 101 8.5t79 17.5l27 9l18 -6q6 -40 6 -50q-110 -41 -231 -41q-477 0 -477 639z " />
<glyph unicode="D" horiz-adv-x="1101" d="M164 0v1352h352q218 0 342.5 -140t124.5 -413v-318q0 -231 -104.5 -356t-300.5 -125h-414zM225 61h353q167 0 255.5 107t88.5 313v318q0 249 -108 370t-298 121h-291v-1229z" />
<glyph unicode="E" horiz-adv-x="817" d="M164 0v1352h594v-62h-533v-553h471v-61h-471v-615h553v-61h-614z" />
<glyph unicode="F" horiz-adv-x="796" d="M164 0v1352h594v-62h-533v-553h471v-61h-471v-676h-61z" />
<glyph unicode="G" horiz-adv-x="1048" d="M119 625v71q0 157 24 276t66.5 195t107 123.5t138 66.5t166.5 19q59 0 126 -10t105 -20l37 -11l-4 -47l-15 -10q-132 37 -249 37q-88 0 -155 -18.5t-122 -62.5t-90.5 -115.5t-54.5 -179.5t-19 -253v-61q0 -132 20.5 -234t55.5 -168t85 -108.5t105.5 -60t120.5 -17.5 q50 0 99.5 13t84 32t61.5 37.5t40 31.5l14 13v573h62v-737h-41l-17 92q-49 -49 -131.5 -83t-171.5 -34q-72 0 -135 19t-121.5 66t-100 119t-66.5 186t-25 260z" />
<glyph unicode="H" horiz-adv-x="1167" d="M164 0v1352h61v-635h717v635h62v-1352h-62v655h-717v-655h-61z" />
<glyph unicode="I" horiz-adv-x="389" d="M164 0v1352h61v-1352h-61z" />
<glyph unicode="J" horiz-adv-x="677" d="M61 -2l5 47l18 10q59 -18 143 -18q122 0 174 80.5t52 271.5v963h61v-973q0 -201 -66 -302.5t-221 -101.5q-44 0 -85.5 5.5t-61.5 11.5z" />
<glyph unicode="K" horiz-adv-x="913" d="M164 0v1352h61v-635h158l426 635h74l-449 -670l459 -682h-74l-438 655h-156v-655h-61z" />
<glyph unicode="L" horiz-adv-x="757" d="M164 0v1352h61v-1291h512v-61h-573z" />
<glyph unicode="M" horiz-adv-x="1474" d="M164 0v1352h61l441 -1045q16 -35 32.5 -79t25.5 -70l9 -27h6q31 92 68 176l442 1045h62v-1352h-62v1044l6 173l-6 2q-29 -91 -47 -134l-440 -1044h-51l-441 1044q-8 18 -19 51.5t-19 57.5l-7 25l-6 -2q6 -122 6 -173v-1044h-61z" />
<glyph unicode="N" horiz-adv-x="1253" d="M164 0v1352h61l762 -1176q8 -13 18.5 -34.5t17.5 -36.5l7 -15l6 2l-8 154v1106h62v-1352h-62l-754 1163l-51 101l-8 -2l10 -156v-1106h-61z" />
<glyph unicode="O" horiz-adv-x="1077" d="M119 635v82q0 331 100.5 495t312.5 164h13q212 0 312.5 -164t100.5 -495v-82q0 -331 -101 -495.5t-312 -164.5h-13q-211 0 -312 164.5t-101 495.5zM180 635q0 -305 83.5 -451.5t268.5 -146.5h13q185 0 268.5 146.5t83.5 451.5v82q0 305 -83.5 451.5t-268.5 146.5h-13 q-185 0 -268.5 -146.5t-83.5 -451.5v-82z" />
<glyph unicode="P" horiz-adv-x="917" d="M164 0v1352h291q405 0 405 -430v-52q0 -179 -102.5 -268.5t-282.5 -89.5h-250v-512h-61zM225 573h250q324 0 324 297v52q0 191 -82 279.5t-262 88.5h-230v-717z" />
<glyph unicode="Q" horiz-adv-x="1077" d="M119 635v82q0 331 100.5 495t312.5 164h13q212 0 312.5 -164t100.5 -495v-82q0 -445 -182 -588l121 -219l-55 -29l-119 215q-80 -39 -178 -39h-13q-211 0 -312 164.5t-101 495.5zM180 635q0 -305 83.5 -451.5t268.5 -146.5h13q185 0 268.5 146.5t83.5 451.5v82 q0 305 -83.5 451.5t-268.5 146.5h-13q-185 0 -268.5 -146.5t-83.5 -451.5v-82z" />
<glyph unicode="R" horiz-adv-x="978" d="M164 0v1352h291q446 0 446 -389v-21q0 -132 -68.5 -218.5t-197.5 -115.5v-4q13 -13 33 -51l254 -553h-66l-252 541q-17 33 -33 42.5t-57 10.5h-18h-271v-594h-61zM225 655h271q176 0 260 75.5t84 211.5v21q0 177 -97.5 252t-287.5 75h-230v-635z" />
<glyph unicode="S" horiz-adv-x="983" d="M123 1024q0 74 20.5 135.5t65 111t121.5 77.5t182 28q56 0 116.5 -7t93.5 -14l32 -7l-2 -50l-15 -10q-100 27 -225 27q-91 0 -156.5 -22.5t-102 -63.5t-53 -91.5t-16.5 -113.5q0 -112 58 -174.5t184 -97.5l131 -37q154 -41 228.5 -126t74.5 -220q0 -64 -12.5 -119.5 t-42.5 -107t-77 -87.5t-120.5 -58t-167.5 -22q-34 0 -66.5 2t-59 5.5t-49.5 8t-41 9l-30 7.5t-21 6l-9 3l-2 52l20 8q115 -39 258 -39q183 0 271 86t88 246q0 109 -59 177t-195 107l-135 39q-148 41 -217.5 119t-69.5 213z" />
<glyph unicode="T" horiz-adv-x="819" d="M31 1290v62h757v-62h-348v-1290h-61v1290h-348z" />
<glyph unicode="U" horiz-adv-x="1105" d="M143 479v873h62v-873q0 -122 23 -208t68.5 -137t108.5 -74t148 -23t148 23t108.5 74t68.5 137t23 208v873h62v-873q0 -260 -102 -382t-298 -122h-20q-196 0 -298 122t-102 382z" />
<glyph unicode="V" horiz-adv-x="1009" d="M31 1352h67l383 -1190l21 -90h6q8 51 20 90l383 1190h68l-438 -1352h-72z" />
<glyph unicode="W" horiz-adv-x="1433" d="M31 1352h65l262 -1065l35 -178h10q7 75 27 157l254 1045h66l254 -1045q8 -36 14.5 -75t9.5 -61l2 -21h10l35 178l262 1065h66l-334 -1352h-63l-269 1094l-16 114h-8q-9 -79 -17 -114l-268 -1094h-63z" />
<glyph unicode="X" horiz-adv-x="919" d="M31 0l391 692l-371 660h70l313 -557q5 -10 11 -25.5t9 -25.5l3 -11h4q10 39 22 62l316 557h69l-372 -660l393 -692h-70l-325 571l-33 72h-4q-17 -47 -31 -72l-326 -571h-69z" />
<glyph unicode="Y" horiz-adv-x="974" d="M31 1352h69l330 -666q16 -32 29 -64.5t19 -49.5l5 -17h9q18 59 53 129l329 668h70l-426 -860v-492h-61v492z" />
<glyph unicode="Z" horiz-adv-x="856" d="M80 0v57l584 1151q7 16 18 35t18 30l7 11v6h-592v62h661v-58l-583 -1151l-43 -75v-7h626v-61h-696z" />
<glyph unicode="[" horiz-adv-x="512" d="M164 -246v1700h287v-61h-226v-1577h226v-62h-287z" />
<glyph unicode="\" horiz-adv-x="913" d="M41 1516h65l766 -1721h-65z" />
<glyph unicode="]" horiz-adv-x="512" d="M61 -184h226v1577h-226v61h287v-1700h-287v62z" />
<glyph unicode="^" horiz-adv-x="989" d="M82 573l389 758h47l389 -758h-71l-338 662h-6l-338 -662h-72z" />
<glyph unicode="_" d="M0 -143h1024v-62h-1024v62z" />
<glyph unicode="`" horiz-adv-x="593" d="M178 1434v41h68l215 -267l-10 -20h-41z" />
<glyph unicode="a" horiz-adv-x="1052" d="M92 287v10q0 286 348 328l348 41v10q0 92 -13.5 153.5t-48 108.5t-97.5 68.5t-158 21.5q-64 0 -136.5 -11t-112.5 -23l-40 -11l-12 12l8 49q14 5 40 12.5t103 20.5t150 13q209 0 294 -98t85 -312v-465q0 -95 28.5 -135.5t88.5 -48.5l28 -4l6 -11l-10 -39q-6 -2 -18 -2 q-179 0 -185 220h-4q-147 -220 -374 -220q-143 0 -230.5 90.5t-87.5 221.5zM154 287q0 -108 72.5 -179t183.5 -71q68 0 127 21.5t105.5 61.5t79 79t66.5 92v313l-348 -41q-286 -34 -286 -266v-10z" />
<glyph unicode="b" horiz-adv-x="1034" d="M164 0v1434h61v-473h2q155 129 336 129q85 0 149 -26t112 -84t73 -157.5t25 -238.5v-113q0 -132 -27.5 -229.5t-77.5 -154.5t-113.5 -84.5t-140.5 -27.5q-186 0 -336 150h-4l-18 -125h-41zM225 197q6 -7 16.5 -17.5t45.5 -38t72 -48.5t93 -38.5t111 -17.5q153 0 225 115 t72 319v92q0 135 -20.5 227.5t-61 143.5t-92.5 72.5t-123 21.5q-52 0 -105.5 -13t-93.5 -31t-72.5 -36.5t-49.5 -31.5l-17 -13v-706z" />
<glyph unicode="c" horiz-adv-x="811" d="M113 502v30q0 156 26 264t80.5 172.5t130 93t182.5 28.5q50 0 101 -8t77 -16l25 -7l-8 -45l-10 -10q-93 24 -185 24q-70 0 -120.5 -11t-97.5 -43t-76.5 -86t-46.5 -143.5t-17 -212.5v-30q0 -88 10.5 -158t27.5 -118t44.5 -83t55.5 -55t65.5 -32t70 -15.5t74.5 -3.5 q89 0 211 39l15 -8l8 -45q-11 -5 -31.5 -13t-82 -21.5t-120.5 -13.5q-103 0 -176.5 26.5t-127 87t-79.5 163t-26 250.5z" />
<glyph unicode="d" horiz-adv-x="1073" d="M113 471v113q0 138 29.5 238.5t83.5 157.5t122 83.5t154 26.5q168 0 305 -125h2v469h61v-1219q0 -95 28.5 -135.5t88.5 -48.5l29 -4l6 -11l-10 -39q-7 -2 -19 -2q-175 0 -184 213h-4q-62 -94 -151.5 -153.5t-202.5 -59.5q-72 0 -131 27.5t-106.5 84t-74 155t-26.5 229.5z M174 471q0 -203 68 -318.5t209 -115.5q193 0 358 244v622q-5 5 -14.5 13.5t-40.5 30t-64.5 38t-84.5 30t-103 13.5q-72 0 -128 -21.5t-103 -72t-72 -144t-25 -227.5v-92z" />
<glyph unicode="e" horiz-adv-x="983" d="M113 502v71q0 241 107 379t282 138h20q160 0 254 -104t94 -310v-33q0 -30 -2 -65.5t-4 -55.5l-2 -20h-688q0 -130 29.5 -223.5t82.5 -144.5t116 -74t141 -23q67 0 123.5 13t98 31.5t42.5 18.5l16 -8l6 -43q-12 -9 -38 -22.5t-97.5 -32.5t-150.5 -19q-205 0 -317.5 131 t-112.5 396zM174 563h635v113q0 103 -25.5 175.5t-69 109t-90.5 52t-102 15.5h-20q-66 0 -123.5 -26t-104 -78.5t-73.5 -142t-27 -206.5v-12z" />
<glyph unicode="f" horiz-adv-x="645" d="M41 1004v61h164v123q0 172 56 250t210 78q27 0 65.5 -4t63.5 -8l25 -5l-4 -45l-15 -12q-100 12 -135 12q-66 0 -105.5 -13.5t-62 -47.5t-30 -80.5t-7.5 -124.5v-123h359v-61h-359v-1004h-61v1004h-164z" />
<glyph unicode="g" horiz-adv-x="972" d="M72 -164q0 149 153 248q-92 49 -92 162q0 90 98 198q-139 90 -139 293q0 153 95 253t253 100h21q164 0 260 -107q79 82 197 82h24v-51l-10 -10h-14q-100 0 -164 -64q55 -85 55 -203q0 -168 -91 -258t-257 -90h-21q-88 0 -161 31q-84 -99 -84 -174q0 -58 37 -90.5 t106 -32.5h240q155 0 234 -70.5t79 -183.5v-12q0 -54 -21.5 -103.5t-66 -93t-124.5 -69t-187 -25.5h-52q-181 0 -274.5 73.5t-93.5 192.5v4zM133 -164q0 -97 80 -153t238 -56h30q171 0 259.5 63t88.5 167v12q0 85 -59 138.5t-192 53.5h-240q-23 0 -33 2q-172 -88 -172 -227z M154 731q0 -129 74.5 -204.5t222.5 -75.5q297 0 297 280v10q0 122 -76 204.5t-221 82.5t-221 -82.5t-76 -204.5v-10z" />
<glyph unicode="h" horiz-adv-x="1054" d="M164 0v1434h61v-494h4q179 150 375 150q142 0 219.5 -86t77.5 -246v-758h-61v748q0 280 -236 280q-195 0 -379 -156v-872h-61z" />
<glyph unicode="i" horiz-adv-x="389" d="M141 1315q0 27 14 44t40 17q25 0 39 -17t14 -44t-14 -44.5t-39 -17.5t-39.5 17.5t-14.5 44.5zM164 0v1065h61v-1065h-61z" />
<glyph unicode="j" horiz-adv-x="389" d="M-92 -416l8 49l14 9q49 -15 90 -15q72 0 108 49.5t36 169.5v1219h61v-1219q0 -140 -49.5 -210t-155.5 -70q-23 0 -51 4.5t-45 9.5zM141 1315q0 27 14 44t40 17q25 0 39 -17t14 -44t-14 -44.5t-39 -17.5t-39.5 17.5t-14.5 44.5z" />
<glyph unicode="k" horiz-adv-x="876" d="M164 0v1434h61v-861h99l413 492h78l-436 -520l457 -545h-78l-430 512h-103v-512h-61z" />
<glyph unicode="l" horiz-adv-x="477" d="M164 215v1219h61v-1219q0 -97 30 -137.5t93 -40.5q18 0 34.5 1.5t23.5 3.5l8 1l12 -10v-47q-27 -11 -78 -11q-97 0 -140.5 60.5t-43.5 179.5z" />
<glyph unicode="m" horiz-adv-x="1566" d="M164 0v1065h41l18 -125q165 150 340 150q88 0 150 -42t88 -124q170 166 356 166q119 0 187.5 -74t68.5 -217v-799h-61v788q0 128 -54.5 184t-140.5 56q-176 0 -344 -162q6 -30 6 -67v-799h-61v788q0 128 -54.5 184t-140.5 56q-175 0 -338 -156v-872h-61z" />
<glyph unicode="n" horiz-adv-x="1054" d="M164 0v1065h41l18 -129q184 154 381 154q142 0 219.5 -86t77.5 -246v-758h-61v748q0 280 -236 280q-195 0 -379 -156v-872h-61z" />
<glyph unicode="o" d="M113 489v86q0 246 101.5 380.5t291.5 134.5h12q190 0 291.5 -134.5t101.5 -380.5v-86q0 -246 -101.5 -380t-291.5 -134h-12q-190 0 -291.5 134t-101.5 380zM174 489q0 -102 19 -182.5t58.5 -142t105.5 -94.5t155 -33t155 33t105.5 94.5t58.5 142t19 182.5v86 q0 80 -11.5 147t-37.5 124.5t-64.5 97t-95.5 62t-129 22.5t-129 -22.5t-95.5 -62t-64.5 -97t-37.5 -124.5t-11.5 -147v-86z" />
<glyph unicode="p" horiz-adv-x="1034" d="M164 -410v1475h41l14 -102q158 127 334 127q369 0 369 -506v-113q0 -132 -27.5 -229.5t-77.5 -154.5t-113.5 -84.5t-140.5 -27.5q-186 0 -332 146h-6v-531h-61zM225 197q6 -7 16.5 -17.5t45.5 -38t72 -48.5t93 -38.5t111 -17.5q153 0 225 115t72 319v92q0 135 -22 228 t-64.5 143.5t-95.5 72t-125 21.5q-52 0 -104.5 -13t-91 -31t-69.5 -36.5t-47 -31.5l-16 -13v-706z" />
<glyph unicode="q" horiz-adv-x="1034" d="M113 471v92q0 138 31 241.5t86.5 164.5t126 91t155.5 30q172 0 303 -125l14 100h41v-1475h-61v598h-6q-62 -95 -150.5 -154t-201.5 -59q-72 0 -131 27.5t-106.5 84t-74 155t-26.5 229.5zM174 471q0 -203 68 -318.5t209 -115.5q193 0 358 244v614q-5 5 -13.5 14t-38 32 t-61.5 40.5t-82 32t-102 14.5q-71 0 -129.5 -24.5t-106.5 -78.5t-75 -151t-27 -231v-72z" />
<glyph unicode="r" horiz-adv-x="593" d="M164 0v1065h41l18 -129h4q89 154 275 154l53 -5l-4 -49l-10 -10q-27 2 -41 2q-93 0 -165 -50t-110 -142v-836h-61z" />
<glyph unicode="s" horiz-adv-x="862" d="M94 799v12q0 49 14 92q16 48 55.5 92t115.5 69.5t182 25.5q44 0 99 -7t88 -13l34 -7l-4 -49l-16 -10q-117 24 -201 24q-165 0 -235 -59.5t-70 -169.5q0 -84 52 -128.5t163 -72.5l121 -31q150 -38 214 -109t64 -175q0 -148 -98.5 -228t-278.5 -80q-67 0 -131 6.5t-94 13.5 l-31 7l-4 47l17 14q108 -26 243 -26q150 0 233 60t83 184q0 86 -53.5 142t-180.5 87l-117 29q-130 31 -195.5 90t-68.5 170z" />
<glyph unicode="t" horiz-adv-x="614" d="M51 1004v61h164v246h61v-246h287v-61h-287v-768q0 -114 44.5 -156.5t123.5 -42.5q23 0 49 3t41 6l15 3l14 -10v-47q-58 -17 -119 -17q-229 0 -229 261v768h-164z" />
<glyph unicode="u" horiz-adv-x="1103" d="M164 307v758h61v-748q0 -280 236 -280q229 0 379 252v776h61v-850q0 -95 28.5 -135.5t88.5 -48.5l29 -4l6 -11l-11 -39q-6 -2 -18 -2q-178 0 -184 220h-4q-63 -97 -158 -158.5t-217 -61.5q-145 0 -221 87.5t-76 244.5z" />
<glyph unicode="v" horiz-adv-x="854" d="M41 1065h61l252 -774l68 -230h8l68 230l254 774h61l-346 -1065h-82z" />
<glyph unicode="w" horiz-adv-x="1335" d="M41 1065h63l195 -774l53 -230h8l58 230l219 774h61l220 -774l57 -230h8l53 230l195 774h63l-266 -1065h-90l-236 836l-28 137h-12l-29 -137l-236 -836h-90z" />
<glyph unicode="x" horiz-adv-x="817" d="M41 0l332 541l-320 524h72l256 -422l27 -59h4l24 59l258 422h72l-322 -524l332 -541h-71l-256 420l-37 72h-4l-37 -72l-258 -420h-72z" />
<glyph unicode="y" horiz-adv-x="876" d="M41 1065h65l293 -805l54 -186h8l49 186l262 805h64l-406 -1260q-40 -126 -88 -182.5t-139 -56.5q-23 0 -42.5 2.5t-27.5 5.5l-8 2l8 47l12 10q21 -6 58 -6q64 0 97.5 42.5t74.5 166.5l53 164z" />
<glyph unicode="z" horiz-adv-x="845" d="M72 0v41l575 901l43 55l-2 9l-65 -2h-510v61h661v-41l-575 -901l-45 -55l2 -9l75 2h543v-61h-702z" />
<glyph unicode="{" horiz-adv-x="593" d="M102 573v62h50q65 0 100 42t35 111q0 46 -25.5 118t-51.5 153t-26 149q0 114 60 180t188 66q23 0 48 -2.5t38 -5.5l14 -2v-62q-47 11 -100 11q-186 0 -186 -185q0 -68 51 -214t51 -206q0 -140 -119 -182v-4q119 -42 119 -182q0 -60 -51 -206t-51 -214q0 -184 186 -184 q24 0 49 2.5t38 5.5l13 2v-62q-49 -10 -100 -10q-128 0 -188 66t-60 180q0 68 26 149t51.5 153t25.5 118q0 69 -35 111t-100 42h-50z" />
<glyph unicode="|" horiz-adv-x="491" d="M215 -205v1721h61v-1721h-61z" />
<glyph unicode="}" horiz-adv-x="593" d="M61 -174q48 -10 101 -10q186 0 186 184q0 68 -51 214t-51 206q0 140 119 182v4q-119 43 -119 182q0 60 51 206t51 214q0 185 -186 185q-24 0 -49 -2.5t-39 -5.5l-13 -3v62q50 10 101 10q128 0 188 -66t60 -180q0 -68 -26 -149t-51.5 -153t-25.5 -118q0 -69 35 -111 t100 -42h50v-62h-50q-65 0 -100 -42t-35 -111q0 -46 25.5 -118t51.5 -153t26 -149q0 -114 -60 -180t-188 -66q-23 0 -48 2.5t-39 5.5l-14 2v62z" />
<glyph unicode="~" horiz-adv-x="1298" d="M117 410q0 178 80 273t206 95q52 0 102.5 -24t88.5 -60.5t79.5 -79t76.5 -79t78.5 -60.5t86.5 -24q27 0 50.5 5t53.5 24t51 50.5t35.5 90t14.5 137.5h62q0 -182 -69.5 -275.5t-197.5 -93.5q-61 0 -118.5 34t-103.5 82t-90 96t-96 82t-104 34q-29 0 -55 -5t-59 -24 t-56 -50.5t-39 -90t-16 -137.5h-61z" />
<glyph unicode="&#xa1;" horiz-adv-x="442" d="M164 958q0 31 15.5 48.5t41.5 17.5t42 -17.5t16 -48.5q0 -33 -16 -50t-42 -17t-41.5 17t-15.5 50zM184 -164l19 789h37l18 -789v-215q0 -18 -5.5 -26.5t-25.5 -8.5h-12q-20 0 -25.5 8.5t-5.5 26.5v215z" />
<glyph unicode="&#xa2;" horiz-adv-x="806" d="M102 645v31q0 415 351 450v226h61v-222h8q50 0 101 -7.5t77 -14.5l25 -8l-8 -45l-10 -11q-93 25 -185 25q-83 0 -145.5 -18.5t-112 -62t-75 -122t-25.5 -190.5v-31q0 -89 20 -157.5t52 -110.5t78.5 -68.5t94 -36.5t103.5 -10q89 0 211 39l14 -8l8 -45q-11 -5 -31.5 -13 t-81 -21t-118.5 -13v-221h-61v223q-170 17 -260.5 130.5t-90.5 311.5z" />
<glyph unicode="&#xa3;" horiz-adv-x="860" d="M61 0v41q10 8 25.5 22.5t56.5 61t72 95.5t56.5 120.5t25.5 140.5q0 26 -8 72h-207v61h188q-21 55 -70.5 133.5t-82.5 146t-33 130.5q0 139 110.5 223t297.5 84q64 0 130.5 -9.5t101.5 -19.5l34 -10l-8 -49l-17 -8q-126 35 -241 35q-164 0 -255.5 -66t-91.5 -180 q0 -57 34.5 -122.5t83.5 -144.5t71 -143h362v-61h-346q8 -50 8 -72q0 -69 -19 -136t-50.5 -120.5t-58 -88.5t-54.5 -64v-11h643v-61h-758z" />
<glyph unicode="&#xa4;" horiz-adv-x="1232" d="M102 184l189 189q-105 121 -105 282q0 160 105 281l-189 190l43 43l189 -190q122 106 282 106q159 0 281 -106l190 190l43 -43l-190 -190q107 -123 107 -281q0 -159 -107 -282l190 -189l-43 -43l-190 189q-121 -105 -281 -105q-161 0 -282 105l-189 -189zM248 655 q0 -152 108 -260t260 -108t260.5 108t108.5 260t-108.5 260.5t-260.5 108.5t-260 -108.5t-108 -260.5z" />
<glyph unicode="&#xa5;" horiz-adv-x="974" d="M41 1331h70l319 -645l53 -123h9l53 121l319 647h70l-375 -758h342v-61h-373l-10 -20v-164h383v-62h-383v-266h-61v266h-385v62h385v164l-11 20h-374v61h344z" />
<glyph unicode="&#xa6;" horiz-adv-x="491" d="M215 -205v778h61v-778h-61zM215 778v778h61v-778h-61z" />
<glyph unicode="&#xa7;" horiz-adv-x="876" d="M102 614q0 117 77.5 198t191.5 81l78 -10q1 -27 -15 -27q-125 0 -197.5 -68.5t-72.5 -173.5q0 -167 194 -219l134 -35q117 -30 179 -87.5t62 -159.5q0 -115 -83.5 -187.5t-254.5 -72.5q-46 0 -92.5 5t-70.5 10l-23 5l4 51l14 8q98 -18 168 -18q141 0 209 52.5t68 146.5 q0 73 -47 116.5t-152 71.5l-129 35q-121 33 -181.5 105t-60.5 173zM143 1116q0 115 83.5 187.5t254.5 72.5q46 0 93 -5t70 -10l24 -5l-4 -51l-15 -9q-98 19 -168 19q-141 0 -208.5 -52t-67.5 -147q0 -73 46.5 -116.5t151.5 -71.5l129 -35q121 -33 181.5 -105.5t60.5 -173.5 q0 -117 -77 -197.5t-191 -80.5l-78 10q-2 27 14 27q125 0 198 68t73 173q0 167 -195 220l-133 34q-117 30 -179.5 88t-62.5 160z" />
<glyph unicode="&#xa8;" horiz-adv-x="856" d="M209 1331q0 33 15.5 50.5t41.5 17.5t42 -17.5t16 -50.5q0 -31 -16 -48t-42 -17t-41.5 17t-15.5 48zM532 1331q0 33 16 50.5t42 17.5t41.5 -17.5t15.5 -50.5q0 -31 -15.5 -48t-41.5 -17t-42 17t-16 48z" />
<glyph unicode="&#xa9;" horiz-adv-x="1474" d="M102 696q0 129 50.5 246.5t135.5 202.5t202.5 135.5t246.5 50.5t246.5 -50.5t202.5 -135.5t135.5 -202.5t50.5 -246.5t-50.5 -246.5t-135.5 -202.5t-202.5 -135.5t-246.5 -50.5t-246.5 50.5t-202.5 135.5t-135.5 202.5t-50.5 246.5zM164 696q0 -155 77.5 -287t209.5 -209 t286 -77q116 0 222 45.5t183.5 122.5t123 183t45.5 222q0 156 -77.5 288t-209.5 209t-287 77q-115 0 -221 -45.5t-183 -122.5t-123 -183t-46 -223zM483 664v43q0 168 75.5 252.5t209.5 84.5q30 0 67 -5.5t59 -10.5l21 -6l-4 -53l-14 -6q-70 20 -129 20q-113 0 -168 -68.5 t-55 -209.5v-27q0 -144 55.5 -206t159.5 -62q34 0 74 10t63 20l23 9l14 -7q4 -26 6 -53q-82 -41 -180 -41q-128 0 -202.5 77.5t-74.5 238.5z" />
<glyph unicode="&#xaa;" horiz-adv-x="749" d="M102 733q0 188 230 217l207 25q0 101 -40 148.5t-149 47.5q-38 0 -83.5 -7.5t-72.5 -15.5l-26 -7l-16 18l8 43q86 31 190 31q138 0 194 -62.5t56 -193.5v-301q0 -50 15 -70.5t47 -23.5l34 -4l6 -15l-8 -39q-16 -4 -32 -4q-58 0 -86.5 29t-34.5 90h-9q-88 -119 -219 -119 q-97 0 -154 59.5t-57 153.5zM164 733q0 -74 41 -112.5t108 -38.5q127 0 226 151v180l-203 -24q-92 -12 -132 -50t-40 -106z" />
<glyph unicode="&#xab;" horiz-adv-x="794" d="M82 451l242 450h61l-221 -450l221 -451h-61zM389 451l242 450h61l-221 -450l221 -451h-61z" />
<glyph unicode="&#xac;" d="M102 586v61h820v-338h-62v277h-758z" />
<glyph unicode="&#xad;" horiz-adv-x="684" d="M86 584v61h512v-61h-512z" />
<glyph unicode="&#xae;" horiz-adv-x="849" d="M41 993q0 160 111.5 271.5t271.5 111.5t271.5 -111.5t111.5 -271.5t-111.5 -271.5t-271.5 -111.5t-271.5 111.5t-111.5 271.5zM102 993q0 -135 93.5 -228t228.5 -93t228 93t93 228t-93 228.5t-228 93.5t-228.5 -93.5t-93.5 -228.5zM283 791v411h149q77 0 115.5 -38.5 t38.5 -102.5q0 -90 -70 -123l62 -147h-68l-55 135h-2h-109v-135h-61zM344 987h109q35 0 53 20t18 54q0 80 -92 80h-88v-154z" />
<glyph unicode="&#xaf;" horiz-adv-x="716" d="M123 1290v62h471v-62h-471z" />
<glyph unicode="&#xb0;" horiz-adv-x="806" d="M106 1057q0 124 87 211.5t210 87.5t210 -87.5t87 -211.5q0 -122 -87 -208.5t-210 -86.5t-210 86.5t-87 208.5zM168 1057q0 -94 70 -164t165 -70t165.5 70t70.5 164q0 97 -70.5 167t-165.5 70t-165 -70t-70 -167z" />
<glyph unicode="&#xb1;" d="M61 102v62h902v-62h-902zM61 625v61h420v379h62v-379h420v-61h-420v-379h-62v379h-420z" />
<glyph unicode="&#xb2;" horiz-adv-x="655" d="M92 860v82q0 59 27.5 97.5t130.5 115.5l59 45q121 92 157 142.5t36 115.5q0 74 -48.5 121t-144.5 47q-39 0 -84.5 -11t-71.5 -21l-26 -11l-18 8q-3 10 -3 47q11 6 30 14t72.5 22t100.5 14q122 0 188 -65t66 -165q0 -83 -45.5 -148t-171.5 -159l-57 -45 q-94 -70 -114.5 -96.5t-20.5 -67.5v-20h397v-62h-459z" />
<glyph unicode="&#xb3;" horiz-adv-x="606" d="M72 879l4 49l16 8q84 -27 166 -27q106 0 160.5 51t54.5 134q0 69 -47 111t-133 42h-143v62h143q72 0 114 45.5t42 120.5q0 67 -47.5 109t-131.5 42q-35 0 -76 -9t-64 -19l-24 -9l-16 8q-2 12 -8 45q9 5 26 12.5t66.5 20.5t95.5 13q115 0 177.5 -60.5t62.5 -152.5 q0 -132 -98 -187v-4q123 -50 123 -190q0 -111 -70.5 -178.5t-206.5 -67.5q-52 0 -98.5 8t-67.5 16z" />
<glyph unicode="&#xb4;" horiz-adv-x="962" d="M430 1208l215 267h68v-41l-232 -246h-41z" />
<glyph unicode="&#xb5;" horiz-adv-x="1083" d="M154 -410v1475h61v-748q0 -280 236 -280q228 0 378 252v776h62v-850q0 -95 28.5 -135.5t88.5 -48.5l28 -4l6 -11l-10 -39l-15 -2h-3q-179 0 -185 220h-4q-63 -98 -157.5 -159t-216.5 -61q-158 0 -236 111v-496h-61z" />
<glyph unicode="&#xb6;" horiz-adv-x="1077" d="M102 981q0 371 340 371h553v-62h-164v-1413h-61v1413h-246v-1413h-61v762h-49q-140 0 -226 90t-86 252z" />
<glyph unicode="&#xb7;" horiz-adv-x="524" d="M205 614q0 33 15.5 50.5t41.5 17.5t41.5 -17.5t15.5 -50.5q0 -31 -15.5 -48t-41.5 -17t-41.5 17t-15.5 48z" />
<glyph unicode="&#xb8;" horiz-adv-x="626" d="M133 -418l8 62q79 -17 138 -17q63 0 95 27.5t32 69.5q0 71 -89 71h-127l27 205h62l-15 -143h55q70 0 109 -34t39 -99q0 -74 -49.5 -116t-138.5 -42q-33 0 -69.5 4t-56.5 8z" />
<glyph unicode="&#xb9;" horiz-adv-x="546" d="M84 1464v54l217 157h41v-815h-61v715l-9 4l-168 -115h-20z" />
<glyph unicode="&#xba;" horiz-adv-x="737" d="M102 842v69q0 153 70.5 237.5t185.5 84.5h21q115 0 185.5 -84.5t70.5 -237.5v-69q0 -153 -70.5 -237.5t-185.5 -84.5h-21q-115 0 -185.5 84.5t-70.5 237.5zM164 842q0 -127 53.5 -193.5t151.5 -66.5t151 66t53 194v69q0 128 -53 194t-151 66t-151.5 -66.5t-53.5 -193.5 v-69z" />
<glyph unicode="&#xbb;" horiz-adv-x="794" d="M102 0l222 451l-222 450h62l242 -450l-242 -451h-62zM410 0l221 451l-221 450h61l242 -450l-242 -451h-61z" />
<glyph unicode="&#xbc;" horiz-adv-x="1411" d="M84 1141v53l217 158h41v-815h-61v714l-9 4l-168 -114h-20zM193 -25l843 1401h72l-844 -1401h-71zM805 195v61l229 555h68l-230 -555h287v256h62v-256h129v-61h-129v-195h-62v195h-354z" />
<glyph unicode="&#xbd;" horiz-adv-x="1474" d="M84 1141v53l217 158h41v-815h-61v714l-9 4l-168 -114h-20zM193 -25l843 1401h72l-844 -1401h-71zM907 0v82q0 59 27.5 97.5t130.5 115.5l59 45q121 92 157 142.5t36 115.5q0 74 -48.5 121t-144.5 47q-39 0 -84.5 -11t-71.5 -21l-26 -11l-18 8q-2 10 -2 47q11 5 30 13.5 t72 22t100 13.5q122 0 188 -64.5t66 -164.5q0 -83 -45.5 -148t-171.5 -159l-57 -45q-94 -70 -114.5 -96.5t-20.5 -67.5v-21h397v-61h-459z" />
<glyph unicode="&#xbe;" horiz-adv-x="1538" d="M72 555l4 49l16 8q84 -26 166 -26q106 0 160.5 50.5t54.5 133.5q0 69 -47 111.5t-133 42.5h-143v61h143q72 0 114 45.5t42 120.5q0 67 -47.5 109.5t-131.5 42.5q-35 0 -76 -9.5t-64 -18.5l-24 -9l-16 8q-2 12 -8 45q84 45 188 45q115 0 177.5 -60.5t62.5 -152.5 q0 -131 -98 -186v-4q123 -50 123 -191q0 -111 -70.5 -178.5t-206.5 -67.5q-52 0 -98.5 8t-67.5 16zM328 -25l843 1401h72l-844 -1401h-71zM932 195v61l229 555h68l-230 -555h287v256h62v-256h129v-61h-129v-195h-62v195h-354z" />
<glyph unicode="&#xbf;" horiz-adv-x="843" d="M102 -53q0 109 49.5 182.5t165.5 165.5q110 88 138 131.5t28 126.5v113h62v-113q0 -72 -13 -112t-52.5 -83t-133.5 -118q-99 -77 -140.5 -141t-41.5 -152v-10q0 -110 78.5 -179t232.5 -69q54 0 110.5 8.5t86.5 17.5l30 9l17 -9q4 -16 6 -47q0 -2 -33 -11.5t-95.5 -19.5 t-121.5 -10q-184 0 -278.5 86.5t-94.5 223.5v10zM457 958q0 31 15.5 48.5t41.5 17.5t41.5 -17.5t15.5 -48.5q0 -33 -15.5 -50t-41.5 -17t-41.5 17t-15.5 50z" />
<glyph unicode="&#xc0;" horiz-adv-x="1009" d="M31 0l438 1352h72l438 -1352h-68l-139 430h-536l-138 -430h-67zM256 492h496l-230 716l-14 72h-6q-9 -52 -15 -72zM276 1720v41h68l215 -266l-10 -20h-41z" />
<glyph unicode="&#xc1;" horiz-adv-x="1009" d="M31 0l438 1352h72l438 -1352h-68l-139 430h-536l-138 -430h-67zM256 492h496l-230 716l-14 72h-6q-9 -52 -15 -72zM465 1495l215 266h68v-41l-232 -245h-41z" />
<glyph unicode="&#xc2;" horiz-adv-x="1009" d="M31 0l438 1352h72l438 -1352h-68l-139 430h-536l-138 -430h-67zM244 1495l235 266h58l235 -266l-10 -20h-41l-213 215l-213 -215h-41zM256 492h496l-230 716l-14 72h-6q-9 -52 -15 -72z" />
<glyph unicode="&#xc3;" horiz-adv-x="1009" d="M31 0l438 1352h72l438 -1352h-68l-139 430h-536l-138 -430h-67zM184 1499q37 117 84.5 165t116.5 48q39 0 78.5 -26.5t67.5 -58.5t62 -58.5t62 -26.5q51 0 78 36t64 136l59 -20q-36 -114 -83.5 -163.5t-117.5 -49.5q-32 0 -64 17.5t-57.5 42.5t-49.5 50t-50 42.5 t-49 17.5q-47 0 -77 -36.5t-64 -135.5zM256 492h496l-230 716l-14 72h-6q-9 -52 -15 -72z" />
<glyph unicode="&#xc4;" horiz-adv-x="1009" d="M31 0l438 1352h72l438 -1352h-68l-139 430h-536l-138 -430h-67zM256 492h496l-230 716l-14 72h-6q-9 -52 -15 -72zM285 1618q0 33 15.5 50.5t41.5 17.5t41.5 -17.5t15.5 -50.5q0 -31 -15.5 -48.5t-41.5 -17.5t-41.5 17.5t-15.5 48.5zM608 1618q0 33 16 50.5t42 17.5 t41.5 -17.5t15.5 -50.5q0 -31 -15.5 -48.5t-41.5 -17.5t-42 17.5t-16 48.5z" />
<glyph unicode="&#xc5;" horiz-adv-x="1091" d="M72 0l417 1288q-61 19 -99 70.5t-38 116.5q0 79 57.5 136.5t137.5 57.5q79 0 136.5 -57.5t57.5 -136.5q0 -65 -39 -117.5t-100 -69.5l418 -1288h-68l-139 430h-537l-137 -430h-67zM297 492h496l-230 716l-12 72h-10l-13 -72zM414 1475q0 -56 39 -95t94 -39t94 39t39 95 q0 55 -39 94t-94 39t-94 -39t-39 -94z" />
<glyph unicode="&#xc6;" horiz-adv-x="1247" d="M31 0l458 1352h699v-62h-533v-553h471v-61h-471v-615h553v-61h-614v430h-350l-146 -430h-67zM264 492h330v798h-62l-24 -82z" />
<glyph unicode="&#xc7;" horiz-adv-x="886" d="M119 614v72q0 153 23.5 272t64.5 197t100.5 128t126 71.5t146.5 21.5q52 0 103 -7t76 -14l25 -7l-6 -45l-16 -11q-86 23 -182 23q-400 0 -400 -633v-43q0 -311 100 -456.5t316 -145.5q49 0 101 8.5t79 17.5l27 9l18 -6q6 -40 6 -50q-110 -41 -231 -41h-12l-13 -118h56 q70 0 108.5 -34t38.5 -99q0 -74 -49.5 -116t-138.5 -42q-33 0 -69.5 4t-56.5 8l-20 4l9 62q78 -17 137 -17q63 0 95 27.5t32 69.5q0 71 -88 71h-127l22 185q-401 45 -401 634z" />
<glyph unicode="&#xc8;" horiz-adv-x="817" d="M164 0v1352h594v-62h-533v-553h471v-61h-471v-615h553v-61h-614zM236 1720v41h67l215 -266l-10 -20h-41z" />
<glyph unicode="&#xc9;" horiz-adv-x="817" d="M164 0v1352h594v-62h-533v-553h471v-61h-471v-615h553v-61h-614zM410 1495l215 266h67v-41l-231 -245h-41z" />
<glyph unicode="&#xca;" horiz-adv-x="817" d="M164 0v1352h594v-62h-533v-553h471v-61h-471v-615h553v-61h-614zM186 1495l236 266h57l236 -266l-10 -20h-41l-213 215l-213 -215h-41z" />
<glyph unicode="&#xcb;" horiz-adv-x="817" d="M164 0v1352h594v-62h-533v-553h471v-61h-471v-615h553v-61h-614zM252 1581q0 33 15.5 50.5t41.5 17.5t42 -17.5t16 -50.5q0 -31 -16 -48t-42 -17t-41.5 17t-15.5 48zM575 1581q0 33 16 50.5t42 17.5t41.5 -17.5t15.5 -50.5q0 -31 -15.5 -48t-41.5 -17t-42 17t-16 48z" />
<glyph unicode="&#xcc;" horiz-adv-x="389" d="M-20 1720v41h67l215 -266l-10 -20h-41zM164 0v1352h61v-1352h-61z" />
<glyph unicode="&#xcd;" horiz-adv-x="389" d="M154 1495l215 266h67v-41l-231 -245h-41zM164 0v1352h61v-1352h-61z" />
<glyph unicode="&#xce;" horiz-adv-x="389" d="M-70 1495l236 266h57l236 -266l-10 -20h-41l-213 215l-213 -215h-41zM164 0v1352h61v-1352h-61z" />
<glyph unicode="&#xcf;" horiz-adv-x="389" d="M-25 1585q0 33 16 50.5t42 17.5t41.5 -17.5t15.5 -50.5q0 -31 -15.5 -48t-41.5 -17t-42 17t-16 48zM164 0v1352h61v-1352h-61zM299 1585q0 33 15.5 50.5t41.5 17.5t42 -17.5t16 -50.5q0 -31 -16 -48t-42 -17t-41.5 17t-15.5 48z" />
<glyph unicode="&#xd0;" horiz-adv-x="1081" d="M0 635v61h143v656h353q218 0 342.5 -140t124.5 -413v-318q0 -231 -105 -356t-301 -125h-414v635h-143zM205 61h352q167 0 255.5 107t88.5 313v318q0 249 -107.5 370t-297.5 121h-291v-594h266v-61h-266v-574z" />
<glyph unicode="&#xd1;" horiz-adv-x="1253" d="M164 0v1352h61l762 -1176q8 -13 18.5 -34.5t17.5 -36.5l7 -15l6 2l-8 154v1106h62v-1352h-62l-754 1163l-51 101l-8 -2l10 -156v-1106h-61zM311 1540q37 117 84.5 165t116.5 48q39 0 78.5 -26.5t67.5 -58.5t62 -58.5t62 -26.5q51 0 78 36t64 136l59 -20 q-36 -114 -83.5 -163.5t-117.5 -49.5q-32 0 -64 17.5t-57.5 42.5t-49.5 50t-50 42.5t-49 17.5q-47 0 -77 -36.5t-64 -135.5z" />
<glyph unicode="&#xd2;" horiz-adv-x="1077" d="M119 635v82q0 331 100.5 495t312.5 164h13q212 0 312.5 -164t100.5 -495v-82q0 -331 -101 -495.5t-312 -164.5h-13q-211 0 -312 164.5t-101 495.5zM180 635q0 -305 83.5 -451.5t268.5 -146.5h13q185 0 268.5 146.5t83.5 451.5v82q0 305 -83.5 451.5t-268.5 146.5h-13 q-185 0 -268.5 -146.5t-83.5 -451.5v-82zM311 1720v41h68l215 -266l-10 -20h-41z" />
<glyph unicode="&#xd3;" horiz-adv-x="1077" d="M119 635v82q0 331 100.5 495t312.5 164h13q212 0 312.5 -164t100.5 -495v-82q0 -331 -101 -495.5t-312 -164.5h-13q-211 0 -312 164.5t-101 495.5zM180 635q0 -305 83.5 -451.5t268.5 -146.5h13q185 0 268.5 146.5t83.5 451.5v82q0 305 -83.5 451.5t-268.5 146.5h-13 q-185 0 -268.5 -146.5t-83.5 -451.5v-82zM465 1495l215 266h68v-41l-232 -245h-41z" />
<glyph unicode="&#xd4;" horiz-adv-x="1077" d="M119 635v82q0 331 100.5 495t312.5 164h13q212 0 312.5 -164t100.5 -495v-82q0 -331 -101 -495.5t-312 -164.5h-13q-211 0 -312 164.5t-101 495.5zM180 635q0 -305 83.5 -451.5t268.5 -146.5h13q185 0 268.5 146.5t83.5 451.5v82q0 305 -83.5 451.5t-268.5 146.5h-13 q-185 0 -268.5 -146.5t-83.5 -451.5v-82zM272 1495l236 266h57l236 -266l-10 -20h-41l-213 215l-213 -215h-41z" />
<glyph unicode="&#xd5;" horiz-adv-x="1077" d="M119 635v82q0 331 100.5 495t312.5 164h13q212 0 312.5 -164t100.5 -495v-82q0 -331 -101 -495.5t-312 -164.5h-13q-211 0 -312 164.5t-101 495.5zM180 635q0 -305 83.5 -451.5t268.5 -146.5h13q185 0 268.5 146.5t83.5 451.5v82q0 305 -83.5 451.5t-268.5 146.5h-13 q-185 0 -268.5 -146.5t-83.5 -451.5v-82zM211 1540q37 117 84.5 165t116.5 48q39 0 78.5 -26.5t67.5 -58.5t62 -58.5t62 -26.5q51 0 77.5 35.5t63.5 136.5l60 -20q-36 -114 -83.5 -163.5t-117.5 -49.5q-32 0 -64 17.5t-57.5 42.5t-49.5 50t-50 42.5t-49 17.5 q-47 0 -77.5 -37t-64.5 -135z" />
<glyph unicode="&#xd6;" horiz-adv-x="1077" d="M119 635v82q0 331 100.5 495t312.5 164h13q212 0 312.5 -164t100.5 -495v-82q0 -331 -101 -495.5t-312 -164.5h-13q-211 0 -312 164.5t-101 495.5zM180 635q0 -305 83.5 -451.5t268.5 -146.5h13q185 0 268.5 146.5t83.5 451.5v82q0 305 -83.5 451.5t-268.5 146.5h-13 q-185 0 -268.5 -146.5t-83.5 -451.5v-82zM317 1571q0 33 16 50t42 17t41.5 -17t15.5 -50q0 -31 -15.5 -48.5t-41.5 -17.5t-42 17.5t-16 48.5zM641 1571q0 33 15.5 50t41.5 17t42 -17t16 -50q0 -31 -16 -48.5t-42 -17.5t-41.5 17.5t-15.5 48.5z" />
<glyph unicode="&#xd7;" d="M172 317l297 297l-297 297l43 43l297 -297l297 297l43 -43l-297 -297l297 -297l-43 -43l-297 297l-297 -297z" />
<glyph unicode="&#xd8;" horiz-adv-x="1077" d="M119 635v82q0 331 100.5 495t312.5 164h13q154 0 254 -92l69 150l58 -27l-82 -176q114 -159 114 -514v-82q0 -331 -101 -495.5t-312 -164.5h-13q-144 0 -237 78l-64 -135l-57 25l74 157q-129 160 -129 535zM180 635q0 -335 96 -473l5 8l26 57l463 998q-84 90 -225 90h-13 q-185 0 -268.5 -146.5t-83.5 -451.5v-82zM322 111q80 -74 210 -74h13q185 0 268.5 146.5t83.5 451.5v82q0 306 -84 450l-4 -10l-16 -35z" />
<glyph unicode="&#xd9;" horiz-adv-x="1105" d="M143 479v873h62v-873q0 -122 23 -208t68.5 -137t108.5 -74t148 -23t148 23t108.5 74t68.5 137t23 208v873h62v-873q0 -260 -102 -382t-298 -122h-20q-196 0 -298 122t-102 382zM319 1720v41h68l215 -266l-10 -20h-41z" />
<glyph unicode="&#xda;" horiz-adv-x="1105" d="M143 479v873h62v-873q0 -122 23 -208t68.5 -137t108.5 -74t148 -23t148 23t108.5 74t68.5 137t23 208v873h62v-873q0 -260 -102 -382t-298 -122h-20q-196 0 -298 122t-102 382zM514 1495l215 266h68v-41l-232 -245h-41z" />
<glyph unicode="&#xdb;" horiz-adv-x="1105" d="M143 479v873h62v-873q0 -122 23 -208t68.5 -137t108.5 -74t148 -23t148 23t108.5 74t68.5 137t23 208v873h62v-873q0 -260 -102 -382t-298 -122h-20q-196 0 -298 122t-102 382zM297 1495l235 266h58l235 -266l-10 -20h-41l-213 215l-213 -215h-41z" />
<glyph unicode="&#xdc;" horiz-adv-x="1105" d="M143 479v873h62v-873q0 -122 23 -208t68.5 -137t108.5 -74t148 -23t148 23t108.5 74t68.5 137t23 208v873h62v-873q0 -260 -102 -382t-298 -122h-20q-196 0 -298 122t-102 382zM340 1567q0 33 15.5 50t41.5 17t42 -17t16 -50q0 -31 -16 -48.5t-42 -17.5t-41.5 17.5 t-15.5 48.5zM664 1567q0 33 15.5 50t41.5 17t41.5 -17t15.5 -50q0 -31 -15.5 -48.5t-41.5 -17.5t-41.5 17.5t-15.5 48.5z" />
<glyph unicode="&#xdd;" horiz-adv-x="974" d="M31 1352h69l330 -666q16 -32 29 -64.5t19 -49.5l5 -17h9q18 59 53 129l329 668h70l-426 -860v-492h-61v492zM463 1495l215 266h67v-41l-231 -245h-41z" />
<glyph unicode="&#xde;" horiz-adv-x="937" d="M164 0v1352h61v-267h250q406 0 406 -430v-51q0 -179 -102.5 -268.5t-282.5 -89.5h-271v-246h-61zM225 307h271q323 0 323 297v51q0 191 -82.5 280t-261.5 89h-250v-717z" />
<glyph unicode="&#xdf;" horiz-adv-x="1116" d="M164 0v1044q0 233 97.5 352.5t270.5 119.5q163 0 261 -84.5t98 -253.5q0 -79 -36 -139t-128 -124q-70 -48 -89.5 -69.5t-19.5 -52.5q0 -29 17 -44t72 -44l86 -46q109 -57 160 -120.5t51 -169.5q0 -193 -94 -293.5t-306 -100.5q-41 0 -72.5 2t-41 3t-9.5 0v51l11 10 q59 -4 112 -4q179 0 258.5 77t79.5 255q0 79 -40 130.5t-140 104.5l-82 43q-69 35 -94.5 62t-28.5 79q0 16 2.5 30t5.5 24.5t13.5 23.5t15.5 20t23 21.5t26 20.5t33.5 24.5t36.5 26.5q62 45 89 89t27 110q0 276 -297 276q-307 0 -307 -420v-1034h-61z" />
<glyph unicode="&#xe0;" horiz-adv-x="1052" d="M92 287v10q0 286 348 328l348 41v10q0 92 -13.5 153.5t-48 108.5t-97.5 68.5t-158 21.5q-64 0 -136.5 -11t-112.5 -23l-40 -11l-12 12l8 49q14 5 40 12.5t103 20.5t150 13q209 0 294 -98t85 -312v-465q0 -95 28.5 -135.5t88.5 -48.5l28 -4l6 -11l-10 -39q-6 -2 -18 -2 q-179 0 -185 220h-4q-147 -220 -374 -220q-143 0 -230.5 90.5t-87.5 221.5zM154 287q0 -108 72.5 -179t183.5 -71q68 0 127 21.5t105.5 61.5t79 79t66.5 92v313l-348 -41q-286 -34 -286 -266v-10zM297 1434v41h68l215 -267l-11 -20h-41z" />
<glyph unicode="&#xe1;" horiz-adv-x="1052" d="M92 287v10q0 286 348 328l348 41v10q0 92 -13.5 153.5t-48 108.5t-97.5 68.5t-158 21.5q-64 0 -136.5 -11t-112.5 -23l-40 -11l-12 12l8 49q14 5 40 12.5t103 20.5t150 13q209 0 294 -98t85 -312v-465q0 -95 28.5 -135.5t88.5 -48.5l28 -4l6 -11l-10 -39q-6 -2 -18 -2 q-179 0 -185 220h-4q-147 -220 -374 -220q-143 0 -230.5 90.5t-87.5 221.5zM154 287q0 -108 72.5 -179t183.5 -71q68 0 127 21.5t105.5 61.5t79 79t66.5 92v313l-348 -41q-286 -34 -286 -266v-10zM426 1208l215 267h68v-41l-232 -246h-41z" />
<glyph unicode="&#xe2;" horiz-adv-x="1052" d="M92 287v10q0 286 348 328l348 41v10q0 92 -13.5 153.5t-48 108.5t-97.5 68.5t-158 21.5q-64 0 -136.5 -11t-112.5 -23l-40 -11l-12 12l8 49q14 5 40 12.5t103 20.5t150 13q209 0 294 -98t85 -312v-465q0 -95 28.5 -135.5t88.5 -48.5l28 -4l6 -11l-10 -39q-6 -2 -18 -2 q-179 0 -185 220h-4q-147 -220 -374 -220q-143 0 -230.5 90.5t-87.5 221.5zM154 287q0 -108 72.5 -179t183.5 -71q68 0 127 21.5t105.5 61.5t79 79t66.5 92v313l-348 -41q-286 -34 -286 -266v-10zM221 1208l236 267h57l236 -267l-11 -20h-41l-213 215l-213 -215h-41z" />
<glyph unicode="&#xe3;" horiz-adv-x="1052" d="M92 287v10q0 286 348 328l348 41v10q0 92 -13.5 153.5t-48 108.5t-97.5 68.5t-158 21.5q-64 0 -136.5 -11t-112.5 -23l-40 -11l-12 12l8 49q14 5 40 12.5t103 20.5t150 13q209 0 294 -98t85 -312v-465q0 -95 28.5 -135.5t88.5 -48.5l28 -4l6 -11l-10 -39q-6 -2 -18 -2 q-179 0 -185 220h-4q-147 -220 -374 -220q-143 0 -230.5 90.5t-87.5 221.5zM154 287q0 -108 72.5 -179t183.5 -71q68 0 127 21.5t105.5 61.5t79 79t66.5 92v313l-348 -41q-286 -34 -286 -266v-10zM197 1233q37 118 84 165.5t116 47.5q32 0 63.5 -17.5t57.5 -42.5t50 -50 t50 -42.5t50 -17.5q51 0 77.5 35.5t63.5 136.5l59 -21q-36 -114 -83 -163.5t-117 -49.5q-32 0 -64 17.5t-57.5 42.5t-50 50t-50.5 42.5t-49 17.5q-47 0 -77 -36.5t-64 -135.5z" />
<glyph unicode="&#xe4;" horiz-adv-x="1052" d="M92 287v10q0 286 348 328l348 41v10q0 92 -13.5 153.5t-48 108.5t-97.5 68.5t-158 21.5q-64 0 -136.5 -11t-112.5 -23l-40 -11l-12 12l8 49q14 5 40 12.5t103 20.5t150 13q209 0 294 -98t85 -312v-465q0 -95 28.5 -135.5t88.5 -48.5l28 -4l6 -11l-10 -39q-6 -2 -18 -2 q-179 0 -185 220h-4q-147 -220 -374 -220q-143 0 -230.5 90.5t-87.5 221.5zM154 287q0 -108 72.5 -179t183.5 -71q68 0 127 21.5t105.5 61.5t79 79t66.5 92v313l-348 -41q-286 -34 -286 -266v-10zM270 1288q0 33 16 50.5t42 17.5t41.5 -17.5t15.5 -50.5q0 -31 -15.5 -48 t-41.5 -17t-42 17t-16 48zM594 1288q0 33 15.5 50.5t41.5 17.5t42 -17.5t16 -50.5q0 -31 -16 -48t-42 -17t-41.5 17t-15.5 48z" />
<glyph unicode="&#xe5;" horiz-adv-x="1052" d="M92 287v10q0 286 348 328l348 41v10q0 92 -13.5 153.5t-48 108.5t-97.5 68.5t-158 21.5q-64 0 -136.5 -11t-112.5 -23l-40 -11l-12 12l8 49q14 5 40 12.5t103 20.5t150 13q209 0 294 -98t85 -312v-465q0 -95 28.5 -135.5t88.5 -48.5l28 -4l6 -11l-10 -39q-6 -2 -18 -2 q-179 0 -185 220h-4q-147 -220 -374 -220q-143 0 -230.5 90.5t-87.5 221.5zM154 287q0 -108 72.5 -179t183.5 -71q68 0 127 21.5t105.5 61.5t79 79t66.5 92v313l-348 -41q-286 -34 -286 -266v-10zM299 1399q0 79 57.5 136.5t137.5 57.5t137 -57.5t57 -136.5 q0 -80 -57.5 -137.5t-136.5 -57.5q-80 0 -137.5 58t-57.5 137zM360 1399q0 -55 39 -94t95 -39t94.5 39t38.5 94t-38.5 94t-94.5 39t-95 -39t-39 -94z" />
<glyph unicode="&#xe6;" horiz-adv-x="1658" d="M92 287v10q0 144 85.5 225.5t262.5 81.5h348v72q0 92 -13.5 153.5t-48 108.5t-97.5 68.5t-158 21.5q-64 0 -136.5 -11t-112.5 -23l-40 -11l-12 12l8 49q14 5 40 12.5t103 20.5t150 13q163 0 249.5 -60.5t113.5 -187.5h4q44 119 133 183.5t207 64.5h20q160 0 254 -104 t94 -310v-33l-6 -100h-690v-41q0 -130 29.5 -223.5t82.5 -144.5t116 -74t141 -23q67 0 123.5 13t98 31.5t42.5 18.5l16 -8l6 -43q-12 -9 -38 -22.5t-97.5 -32.5t-150.5 -19q-302 0 -394 271h-4q-68 -117 -171 -194t-240 -77q-143 0 -230.5 90.5t-87.5 221.5zM154 287 q0 -108 72.5 -179t183.5 -71q57 0 110 18.5t92 45.5t78 68.5t63 74.5t52 78q-17 90 -17 180v41h-348q-286 0 -286 -246v-10zM850 604h635v72q0 103 -25.5 175.5t-69 109t-90.5 52t-102 15.5h-20q-136 0 -229 -106t-99 -318z" />
<glyph unicode="&#xe7;" horiz-adv-x="811" d="M113 502v30q0 156 26 264t80.5 172.5t130 93t182.5 28.5q50 0 101 -8t77 -16l25 -7l-8 -45l-10 -10q-93 24 -185 24q-70 0 -120.5 -11t-97.5 -43t-76.5 -86t-46.5 -143.5t-17 -212.5v-30q0 -88 10.5 -158t27.5 -118t44.5 -83t55.5 -55t65.5 -32t70 -15.5t74.5 -3.5 q89 0 211 39l15 -8l8 -45q-11 -5 -31.5 -13t-82 -21.5t-120.5 -13.5h-12l-12 -118h55q70 0 108.5 -34t38.5 -99q0 -74 -49.5 -116t-138.5 -42q-33 0 -69 4t-56 8l-20 4l8 62q78 -17 137 -17q63 0 95 27.5t32 69.5q0 71 -88 71h-127l22 185q-169 18 -251 139t-82 383z" />
<glyph unicode="&#xe8;" horiz-adv-x="983" d="M113 502v71q0 241 107 379t282 138h20q160 0 254 -104t94 -310v-33q0 -30 -2 -65.5t-4 -55.5l-2 -20h-688q0 -130 29.5 -223.5t82.5 -144.5t116 -74t141 -23q67 0 123.5 13t98 31.5t42.5 18.5l16 -8l6 -43q-12 -9 -38 -22.5t-97.5 -32.5t-150.5 -19q-205 0 -317.5 131 t-112.5 396zM174 563h635v113q0 103 -25.5 175.5t-69 109t-90.5 52t-102 15.5h-20q-66 0 -123.5 -26t-104 -78.5t-73.5 -142t-27 -206.5v-12zM315 1434v41h68l215 -267l-10 -20h-41z" />
<glyph unicode="&#xe9;" horiz-adv-x="983" d="M113 502v71q0 241 107 379t282 138h20q160 0 254 -104t94 -310v-33q0 -30 -2 -65.5t-4 -55.5l-2 -20h-688q0 -130 29.5 -223.5t82.5 -144.5t116 -74t141 -23q67 0 123.5 13t98 31.5t42.5 18.5l16 -8l6 -43q-12 -9 -38 -22.5t-97.5 -32.5t-150.5 -19q-205 0 -317.5 131 t-112.5 396zM174 563h635v113q0 103 -25.5 175.5t-69 109t-90.5 52t-102 15.5h-20q-66 0 -123.5 -26t-104 -78.5t-73.5 -142t-27 -206.5v-12zM432 1208l215 267h68v-41l-232 -246h-41z" />
<glyph unicode="&#xea;" horiz-adv-x="983" d="M113 502v71q0 241 107 379t282 138h20q160 0 254 -104t94 -310v-33q0 -30 -2 -65.5t-4 -55.5l-2 -20h-688q0 -130 29.5 -223.5t82.5 -144.5t116 -74t141 -23q67 0 123.5 13t98 31.5t42.5 18.5l16 -8l6 -43q-12 -9 -38 -22.5t-97.5 -32.5t-150.5 -19q-205 0 -317.5 131 t-112.5 396zM174 563h635v113q0 103 -25.5 175.5t-69 109t-90.5 52t-102 15.5h-20q-66 0 -123.5 -26t-104 -78.5t-73.5 -142t-27 -206.5v-12zM252 1208l235 267h58l235 -267l-10 -20h-41l-213 215l-213 -215h-41z" />
<glyph unicode="&#xeb;" horiz-adv-x="983" d="M113 502v71q0 241 107 379t282 138h20q160 0 254 -104t94 -310v-33q0 -30 -2 -65.5t-4 -55.5l-2 -20h-688q0 -130 29.5 -223.5t82.5 -144.5t116 -74t141 -23q67 0 123.5 13t98 31.5t42.5 18.5l16 -8l6 -43q-12 -9 -38 -22.5t-97.5 -32.5t-150.5 -19q-205 0 -317.5 131 t-112.5 396zM174 563h635v113q0 103 -25.5 175.5t-69 109t-90.5 52t-102 15.5h-20q-66 0 -123.5 -26t-104 -78.5t-73.5 -142t-27 -206.5v-12zM307 1280q0 33 16 50.5t42 17.5t41.5 -17.5t15.5 -50.5q0 -31 -15.5 -48.5t-41.5 -17.5t-42 17.5t-16 48.5zM631 1280 q0 33 15.5 50.5t41.5 17.5t41.5 -17.5t15.5 -50.5q0 -31 -15.5 -48.5t-41.5 -17.5t-41.5 17.5t-15.5 48.5z" />
<glyph unicode="&#xec;" horiz-adv-x="389" d="M-45 1434v41h68l215 -267l-11 -20h-41zM164 0v1065h61v-1065h-61z" />
<glyph unicode="&#xed;" horiz-adv-x="389" d="M154 1208l215 267h67v-41l-231 -246h-41zM164 0v1065h61v-1065h-61z" />
<glyph unicode="&#xee;" horiz-adv-x="389" d="M-70 1208l236 267h57l236 -267l-10 -20h-41l-213 215l-213 -215h-41zM164 0v1065h61v-1065h-61z" />
<glyph unicode="&#xef;" horiz-adv-x="389" d="M-25 1274q0 33 16 50t42 17t41.5 -17t15.5 -50q0 -31 -15.5 -48.5t-41.5 -17.5t-42 17.5t-16 48.5zM164 0v1065h61v-1065h-61zM299 1274q0 33 15.5 50t41.5 17t42 -17t16 -50q0 -31 -16 -48.5t-42 -17.5t-41.5 17.5t-15.5 48.5z" />
<glyph unicode="&#xf0;" d="M113 489v62q0 246 101.5 380t291.5 134h6q108 0 193 -53.5t137 -149.5l4 2q-44 305 -307 459l-351 -156l-24 58l305 135q-135 63 -305 92l-12 2l12 62q222 -37 381 -121l270 121l25 -58l-230 -102q301 -200 301 -619v-248q0 -246 -101.5 -380t-291.5 -134h-12 q-190 0 -291.5 134t-101.5 380zM174 489q0 -102 19 -182.5t58.5 -142t105.5 -94.5t155 -33t155 33t105.5 94.5t58.5 142t19 182.5v62q0 200 -90 326.5t-248 126.5q-72 0 -129 -22.5t-95.5 -62t-64.5 -97t-37.5 -124.5t-11.5 -147v-62z" />
<glyph unicode="&#xf1;" horiz-adv-x="1054" d="M164 0v1065h41l18 -129q184 154 381 154q142 0 219.5 -86t77.5 -246v-758h-61v748q0 280 -236 280q-195 0 -379 -156v-872h-61zM209 1227q37 117 84.5 165t116.5 48q39 0 78.5 -26.5t67.5 -58.5t62 -58.5t62 -26.5q51 0 77.5 35.5t63.5 136.5l60 -21 q-36 -114 -83.5 -163.5t-117.5 -49.5q-32 0 -64 17.5t-57.5 42.5t-49.5 50t-50 42.5t-49 17.5q-47 0 -77.5 -37t-64.5 -135z" />
<glyph unicode="&#xf2;" d="M113 489v86q0 246 101.5 380.5t291.5 134.5h12q190 0 291.5 -134.5t101.5 -380.5v-86q0 -246 -101.5 -380t-291.5 -134h-12q-190 0 -291.5 134t-101.5 380zM174 489q0 -102 19 -182.5t58.5 -142t105.5 -94.5t155 -33t155 33t105.5 94.5t58.5 142t19 182.5v86 q0 80 -11.5 147t-37.5 124.5t-64.5 97t-95.5 62t-129 22.5t-129 -22.5t-95.5 -62t-64.5 -97t-37.5 -124.5t-11.5 -147v-86zM293 1434v41h67l215 -267l-10 -20h-41z" />
<glyph unicode="&#xf3;" d="M113 489v86q0 246 101.5 380.5t291.5 134.5h12q190 0 291.5 -134.5t101.5 -380.5v-86q0 -246 -101.5 -380t-291.5 -134h-12q-190 0 -291.5 134t-101.5 380zM174 489q0 -102 19 -182.5t58.5 -142t105.5 -94.5t155 -33t155 33t105.5 94.5t58.5 142t19 182.5v86 q0 80 -11.5 147t-37.5 124.5t-64.5 97t-95.5 62t-129 22.5t-129 -22.5t-95.5 -62t-64.5 -97t-37.5 -124.5t-11.5 -147v-86zM442 1208l215 267h68v-41l-231 -246h-41z" />
<glyph unicode="&#xf4;" d="M113 489v86q0 246 101.5 380.5t291.5 134.5h12q190 0 291.5 -134.5t101.5 -380.5v-86q0 -246 -101.5 -380t-291.5 -134h-12q-190 0 -291.5 134t-101.5 380zM174 489q0 -102 19 -182.5t58.5 -142t105.5 -94.5t155 -33t155 33t105.5 94.5t58.5 142t19 182.5v86 q0 80 -11.5 147t-37.5 124.5t-64.5 97t-95.5 62t-129 22.5t-129 -22.5t-95.5 -62t-64.5 -97t-37.5 -124.5t-11.5 -147v-86zM248 1208l235 267h58l235 -267l-10 -20h-41l-213 215l-213 -215h-41z" />
<glyph unicode="&#xf5;" d="M113 489v86q0 246 101.5 380.5t291.5 134.5h12q190 0 291.5 -134.5t101.5 -380.5v-86q0 -246 -101.5 -380t-291.5 -134h-12q-190 0 -291.5 134t-101.5 380zM174 489q0 -102 19 -182.5t58.5 -142t105.5 -94.5t155 -33t155 33t105.5 94.5t58.5 142t19 182.5v86 q0 80 -11.5 147t-37.5 124.5t-64.5 97t-95.5 62t-129 22.5t-129 -22.5t-95.5 -62t-64.5 -97t-37.5 -124.5t-11.5 -147v-86zM178 1221q37 117 84.5 165t116.5 48q39 0 78.5 -26.5t67.5 -58.5t62 -58.5t62 -26.5q51 0 78 36t64 136l59 -21q-36 -114 -83.5 -163.5t-117.5 -49.5 q-32 0 -64 17.5t-57.5 42.5t-49.5 50t-50 42.5t-49 17.5q-47 0 -77 -36.5t-64 -135.5z" />
<glyph unicode="&#xf6;" d="M113 489v86q0 246 101.5 380.5t291.5 134.5h12q190 0 291.5 -134.5t101.5 -380.5v-86q0 -246 -101.5 -380t-291.5 -134h-12q-190 0 -291.5 134t-101.5 380zM174 489q0 -102 19 -182.5t58.5 -142t105.5 -94.5t155 -33t155 33t105.5 94.5t58.5 142t19 182.5v86 q0 80 -11.5 147t-37.5 124.5t-64.5 97t-95.5 62t-129 22.5t-129 -22.5t-95.5 -62t-64.5 -97t-37.5 -124.5t-11.5 -147v-86zM293 1284q0 33 15.5 50.5t41.5 17.5t42 -17.5t16 -50.5q0 -31 -16 -48t-42 -17t-41.5 17t-15.5 48zM616 1284q0 33 16 50.5t42 17.5t41.5 -17.5 t15.5 -50.5q0 -31 -15.5 -48t-41.5 -17t-42 17t-16 48z" />
<glyph unicode="&#xf7;" d="M102 584v61h820v-61h-820zM455 256q0 33 15.5 50.5t41.5 17.5t41.5 -17.5t15.5 -50.5q0 -31 -15.5 -48.5t-41.5 -17.5t-41.5 17.5t-15.5 48.5zM455 973q0 33 15.5 50t41.5 17t41.5 -17t15.5 -50q0 -31 -15.5 -48.5t-41.5 -17.5t-41.5 17.5t-15.5 48.5z" />
<glyph unicode="&#xf8;" d="M113 489v86q0 246 101.5 380.5t291.5 134.5h12q153 0 250 -91l78 125l49 -32l-86 -138q102 -132 102 -379v-86q0 -246 -101.5 -380t-291.5 -134h-12q-157 0 -254 91l-74 -119l-49 33l84 133q-100 133 -100 376zM174 489q0 -205 74 -321l4 6l27 43l454 729q-85 82 -221 82 q-72 0 -129 -22.5t-95.5 -62t-64.5 -97t-37.5 -124.5t-11.5 -147v-86zM287 121q84 -84 225 -84q89 0 155 33t105.5 94.5t58.5 142t19 182.5v86q0 201 -78 322l-6 -12l-31 -49z" />
<glyph unicode="&#xf9;" horiz-adv-x="1103" d="M164 307v758h61v-748q0 -280 236 -280q229 0 379 252v776h61v-850q0 -95 28.5 -135.5t88.5 -48.5l29 -4l6 -11l-11 -39q-6 -2 -18 -2q-178 0 -184 220h-4q-63 -97 -158 -158.5t-217 -61.5q-145 0 -221 87.5t-76 244.5zM324 1434v41h67l215 -267l-10 -20h-41z" />
<glyph unicode="&#xfa;" horiz-adv-x="1103" d="M164 307v758h61v-748q0 -280 236 -280q229 0 379 252v776h61v-850q0 -95 28.5 -135.5t88.5 -48.5l29 -4l6 -11l-11 -39q-6 -2 -18 -2q-178 0 -184 220h-4q-63 -97 -158 -158.5t-217 -61.5q-145 0 -221 87.5t-76 244.5zM477 1208l215 267h68v-41l-232 -246h-41z" />
<glyph unicode="&#xfb;" horiz-adv-x="1103" d="M164 307v758h61v-748q0 -280 236 -280q229 0 379 252v776h61v-850q0 -95 28.5 -135.5t88.5 -48.5l29 -4l6 -11l-11 -39q-6 -2 -18 -2q-178 0 -184 220h-4q-63 -97 -158 -158.5t-217 -61.5q-145 0 -221 87.5t-76 244.5zM274 1208l236 267h57l236 -267l-10 -20h-41 l-213 215l-213 -215h-41z" />
<glyph unicode="&#xfc;" horiz-adv-x="1103" d="M164 307v758h61v-748q0 -280 236 -280q229 0 379 252v776h61v-850q0 -95 28.5 -135.5t88.5 -48.5l29 -4l6 -11l-11 -39q-6 -2 -18 -2q-178 0 -184 220h-4q-63 -97 -158 -158.5t-217 -61.5q-145 0 -221 87.5t-76 244.5zM317 1274q0 33 16 50t42 17t41.5 -17t15.5 -50 q0 -31 -15.5 -48.5t-41.5 -17.5t-42 17.5t-16 48.5zM641 1274q0 33 15.5 50t41.5 17t42 -17t16 -50q0 -31 -16 -48.5t-42 -17.5t-41.5 17.5t-15.5 48.5z" />
<glyph unicode="&#xfd;" horiz-adv-x="876" d="M41 1065h65l293 -805l54 -186h8l49 186l262 805h64l-406 -1260q-40 -126 -88 -182.5t-139 -56.5q-23 0 -42.5 2.5t-27.5 5.5l-8 2l8 47l12 10q21 -6 58 -6q64 0 97.5 42.5t74.5 166.5l53 164zM401 1208l215 267h68v-41l-231 -246h-41z" />
<glyph unicode="&#xfe;" horiz-adv-x="1034" d="M164 -410v1844h61v-476q32 28 70.5 53t114.5 52t153 27q85 0 149 -26t112 -84t73 -157.5t25 -238.5v-113q0 -132 -27.5 -229.5t-77.5 -154.5t-113.5 -84.5t-140.5 -27.5q-186 0 -332 146h-6v-531h-61zM225 197q6 -7 16.5 -17.5t45.5 -38t72 -48.5t93 -38.5t111 -17.5 q153 0 225 115t72 319v92q0 135 -20.5 227.5t-61 143.5t-92.5 72.5t-123 21.5q-52 0 -105.5 -13t-93.5 -31t-72.5 -36.5t-49.5 -31.5l-17 -13v-706z" />
<glyph unicode="&#xff;" horiz-adv-x="876" d="M41 1065h65l293 -805l54 -186h8l49 186l262 805h64l-406 -1260q-40 -126 -88 -182.5t-139 -56.5q-23 0 -42.5 2.5t-27.5 5.5l-8 2l8 47l12 10q21 -6 58 -6q64 0 97.5 42.5t74.5 166.5l53 164zM242 1278q0 33 15.5 50.5t41.5 17.5t41.5 -17.5t15.5 -50.5 q0 -31 -15.5 -48.5t-41.5 -17.5t-41.5 17.5t-15.5 48.5zM565 1278q0 33 16 50.5t42 17.5t41.5 -17.5t15.5 -50.5q0 -31 -15.5 -48.5t-41.5 -17.5t-42 17.5t-16 48.5z" />
<glyph unicode="&#x152;" horiz-adv-x="1468" d="M119 635v82q0 331 100.5 495t312.5 164h13q81 0 145 -24h719v-62h-594l-10 -12q150 -150 153 -541h390v-61h-390v-41q0 -411 -155 -563l12 -11h615v-61h-740q-67 -25 -145 -25h-13q-211 0 -312 164.5t-101 495.5zM180 635q0 -305 83.5 -451.5t268.5 -146.5h13 q180 0 263.5 138.5t88.5 428.5v113q0 305 -83.5 451.5t-268.5 146.5h-13q-185 0 -268.5 -146.5t-83.5 -451.5v-82z" />
<glyph unicode="&#x153;" horiz-adv-x="1720" d="M113 489v86q0 246 101.5 380.5t291.5 134.5h12q138 0 230.5 -74t132.5 -213h4q43 138 135.5 212.5t218.5 74.5h21q160 0 254 -104t94 -310v-33q0 -30 -2 -65.5t-4 -55.5l-3 -20h-688q0 -130 29.5 -223.5t82.5 -144.5t116 -74t141 -23q67 0 123.5 13t98 31.5t42.5 18.5 l17 -8l6 -43q-12 -9 -38.5 -22.5t-98 -32.5t-150.5 -19q-308 0 -395 283h-4q-40 -137 -133 -210t-230 -73h-12q-190 0 -291.5 134t-101.5 380zM174 489q0 -102 19 -182.5t58.5 -142t105.5 -94.5t155 -33t155 33t105.5 94.5t58.5 142t19 182.5v13v73v19q-2 97 -22 174 t-59.5 136.5t-104.5 91.5t-152 32q-72 0 -129 -22.5t-95.5 -62t-64.5 -97t-37.5 -124.5t-11.5 -147v-86zM911 563h635v113q0 83 -17.5 146.5t-44.5 101.5t-66 62.5t-77 33t-81 8.5h-21q-64 0 -120.5 -24.5t-103 -74.5t-74.5 -135t-30 -196v-23v-12z" />
<glyph unicode="&#x178;" horiz-adv-x="974" d="M31 1352h69l330 -666q16 -32 29 -64.5t19 -49.5l5 -17h9q18 59 53 129l329 668h70l-426 -860v-492h-61v492zM268 1546q0 33 16 50.5t42 17.5t41.5 -17.5t15.5 -50.5q0 -31 -15.5 -48t-41.5 -17t-42 17t-16 48zM592 1546q0 33 15.5 50.5t41.5 17.5t42 -17.5t16 -50.5 q0 -31 -16 -48t-42 -17t-41.5 17t-15.5 48z" />
<glyph unicode="&#x2c6;" horiz-adv-x="1705" d="M555 1208l236 267h57l235 -267l-10 -20h-41l-213 215l-213 -215h-41z" />
<glyph unicode="&#x2dc;" horiz-adv-x="974" d="M154 1253q37 118 84 165.5t116 47.5q32 0 63.5 -17.5t57.5 -42.5t50 -50t50 -42.5t50 -17.5q51 0 77.5 35.5t63.5 136.5l59 -20q-36 -114 -83 -163.5t-117 -49.5q-32 0 -64 17.5t-57.5 42.5t-50 50t-50.5 42.5t-49 17.5q-47 0 -77 -36.5t-64 -135.5z" />
<glyph unicode="&#x2000;" horiz-adv-x="880" />
<glyph unicode="&#x2001;" horiz-adv-x="1761" />
<glyph unicode="&#x2002;" horiz-adv-x="880" />
<glyph unicode="&#x2003;" horiz-adv-x="1761" />
<glyph unicode="&#x2004;" horiz-adv-x="587" />
<glyph unicode="&#x2005;" horiz-adv-x="440" />
<glyph unicode="&#x2006;" horiz-adv-x="293" />
<glyph unicode="&#x2007;" horiz-adv-x="293" />
<glyph unicode="&#x2008;" horiz-adv-x="220" />
<glyph unicode="&#x2009;" horiz-adv-x="352" />
<glyph unicode="&#x200a;" horiz-adv-x="97" />
<glyph unicode="&#x2010;" horiz-adv-x="684" d="M86 584v61h512v-61h-512z" />
<glyph unicode="&#x2011;" horiz-adv-x="684" d="M86 584v61h512v-61h-512z" />
<glyph unicode="&#x2012;" horiz-adv-x="684" d="M86 584v61h512v-61h-512z" />
<glyph unicode="&#x2013;" d="M102 584v61h820v-61h-820z" />
<glyph unicode="&#x2014;" horiz-adv-x="1515" d="M92 584v61h1331v-61h-1331z" />
<glyph unicode="&#x2018;" horiz-adv-x="299" d="M92 1163q0 39 29 127l45 144h41v-21l-35 -180q35 -15 35 -70q0 -33 -16 -50t-41 -17t-41.5 17t-16.5 50z" />
<glyph unicode="&#x2019;" horiz-adv-x="299" d="M92 1096v20l35 180q-35 15 -35 70q0 33 16.5 50.5t41.5 17.5t41 -17t16 -51q0 -39 -29 -127l-45 -143h-41z" />
<glyph unicode="&#x201a;" horiz-adv-x="299" d="M92 45q0 33 16.5 50.5t41.5 17.5t41 -17t16 -51q0 -39 -29 -127l-45 -143h-41v20l35 180q-35 15 -35 70z" />
<glyph unicode="&#x201c;" horiz-adv-x="487" d="M92 1163q0 39 29 127l45 144h41v-21l-35 -180q35 -15 35 -70q0 -33 -16 -50t-41 -17t-41.5 17t-16.5 50zM281 1163q0 42 28 127l45 144h41v-21l-35 -180q35 -15 35 -70q0 -33 -16 -50t-41 -17t-41 17t-16 50z" />
<glyph unicode="&#x201d;" horiz-adv-x="487" d="M92 1096v20l35 180q-35 15 -35 70q0 33 16.5 50.5t41.5 17.5t41 -17t16 -51q0 -39 -29 -127l-45 -143h-41zM281 1096v20l34 180q-34 15 -34 70q0 34 16 51t41 17t41 -17t16 -51q0 -42 -28 -127l-45 -143h-41z" />
<glyph unicode="&#x201e;" horiz-adv-x="487" d="M92 45q0 33 16.5 50.5t41.5 17.5t41 -17t16 -51q0 -39 -29 -127l-45 -143h-41v20l35 180q-35 15 -35 70zM281 45q0 34 16 51t41 17t41 -17t16 -51q0 -42 -28 -127l-45 -143h-41v20l34 180q-34 15 -34 70z" />
<glyph unicode="&#x2022;" horiz-adv-x="614" d="M205 676q0 42 30 72t72 30q41 0 72 -30.5t31 -71.5q0 -42 -30.5 -72.5t-72.5 -30.5q-43 0 -72.5 30t-29.5 73z" />
<glyph unicode="&#x2026;" horiz-adv-x="917" d="M123 45q0 33 15.5 50.5t41.5 17.5t42 -17.5t16 -50.5q0 -31 -16 -48t-42 -17t-41.5 17t-15.5 48zM401 45q0 33 16 50.5t42 17.5t41.5 -17.5t15.5 -50.5q0 -31 -15.5 -48t-41.5 -17t-42 17t-16 48zM680 45q0 33 15.5 50.5t41.5 17.5t42 -17.5t16 -50.5q0 -31 -16 -48 t-42 -17t-41.5 17t-15.5 48z" />
<glyph unicode="&#x202f;" horiz-adv-x="352" />
<glyph unicode="&#x2039;" horiz-adv-x="487" d="M82 451l242 450h61l-221 -450l221 -451h-61z" />
<glyph unicode="&#x203a;" horiz-adv-x="487" d="M102 0l222 451l-222 450h62l242 -450l-242 -451h-62z" />
<glyph unicode="&#x205f;" horiz-adv-x="440" />
<glyph unicode="&#x20ac;" horiz-adv-x="1019" d="M41 502l25 61h153v31v72v61h-178l25 61h157q10 123 42 218t77 155.5t106 99.5t125 54.5t138 15.5q61 0 117 -7.5t82 -15.5l26 -8l-6 -45l-17 -10q-87 25 -202 25q-382 0 -426 -482h577l-8 -61h-573v-65v-44v-55h550l-8 -61h-538q17 -245 115.5 -355t295.5 -110 q49 0 101 8.5t79 17.5l27 9l19 -6q6 -40 6 -50q-111 -41 -232 -41q-50 0 -93 5.5t-90 20t-85.5 39t-75 65t-62.5 94.5t-44.5 131t-24.5 172h-180z" />
<glyph unicode="&#x2122;" horiz-adv-x="1175" d="M41 1290v62h389v-62h-164v-614h-61v614h-164zM526 676v676h62l190 -451l33 -94h6q23 67 33 94l190 451h62v-676h-62v368l11 156l-15 2l-43 -117l-153 -368h-52l-155 368l-41 117l-14 -2l10 -156v-368h-62z" />
<glyph unicode="&#xe000;" horiz-adv-x="1064" d="M0 0v1065h1065v-1065h-1065z" />
</font>
</defs>
</svg>
