<svg width="128" height="165" viewBox="0 0 128 165" fill="none" xmlns="http://www.w3.org/2000/svg">
<path fill-rule="evenodd" clip-rule="evenodd" d="M64 0C48.6386 0 13.9199 6.45241 3.20825 8.51616C1.33596 8.87689 0 10.4837 0 12.3905C0 27.9012 0 94.6837 0 118.857C0 146.286 54.8571 164.286 64 164.286C73.1429 164.286 128 146.286 128 118.857C128 94.6837 128 27.9012 128 12.3905C128 10.4837 126.664 8.87689 124.792 8.51616C114.08 6.45241 79.3614 0 64 0Z" fill="white"/>
<path fill-rule="evenodd" clip-rule="evenodd" d="M52.8672 35.8887C52.2129 33.0496 53.6781 30.7904 53.6781 30.7904C53.6781 30.7904 56.4817 35.2506 59.0088 36.7344C65.4279 33.734 74.3382 33.0496 74.3382 33.0496L71.4154 36.7164L77.5262 37.9894C77.5262 37.9894 85.5146 31.66 93.7589 27.9244C96.2686 42.2658 88.6286 49.9072 88.6286 49.9072C88.6286 49.9072 94.4311 55.4537 97.8133 63.8422L94.2862 63.6031C94.2862 63.6031 101.45 69.061 100.566 80.1991C98.3563 78.0572 96.5885 77.3159 96.5885 77.3159C96.5885 77.3159 99.6822 87.0533 94.7282 96.0494C93.4947 93.9075 91.7268 92.194 91.7268 92.194C91.7268 92.194 93.0527 104.406 87.7491 111.471L84.6554 107.188C84.6554 107.188 84.5937 118.479 75.8161 123.466C74.7802 120.896 72.98 119.274 72.98 119.274C71.759 123.915 72.3325 128.248 72.3325 128.248C64.3346 125.18 57.2535 114.898 57.2535 114.898C57.2535 114.898 57.4693 117.048 57.2535 120.039C47.9722 114.898 43.4731 103.55 43.4731 103.55C43.4731 103.55 42.724 106.508 42.5698 108.645C32.9454 99.9363 34.9358 87.923 34.9358 87.923C32.1672 89.4531 31.0696 92.3848 31.0696 92.3848C27.5949 85.2783 30.4468 76.4535 30.4468 76.4535C30.4468 76.4535 28.5257 77.3159 27.1447 79.2357C27.0953 67.6377 36.8781 61.0004 36.8781 61.0004C36.8781 61.0004 35.2071 59.5988 31.9975 61.099C32.275 57.2529 39.5142 55.167 39.5142 55.167C39.5142 55.167 38.3149 53.368 36.1104 53.2186C37.7414 49.0348 42.6836 48.0814 42.6836 48.0814C42.6836 48.0814 34.8309 40.2488 39.3137 27.2402C44.8911 29.7654 52.8672 35.8887 52.8672 35.8887Z" fill="black"/>
<path fill-rule="evenodd" clip-rule="evenodd" d="M51.3147 51.3027C51.3147 51.3027 61.8652 52.4473 64.8991 59.5238C67.9329 66.6004 65.2044 73.7158 66.7829 76.3994C68.3615 79.083 71.7036 81.4577 71.7036 81.4577C71.7036 81.4577 69.6247 80.7468 67.8611 80.6273C66.0975 80.5078 62.445 81.2586 61.5015 82.0535C60.5581 82.8484 64.6279 87.848 65.9505 87.9377C64.4429 90.4121 63.8478 92.5189 58.4338 93.8697C52.6005 88.7506 53.3713 78.067 53.3713 78.067C53.3713 78.067 50.6026 79.5971 49.0025 83.3535C45.0252 77.0719 47.7538 69.9564 47.7538 69.9564C47.7538 69.9564 42.7498 71.7645 39.7345 76.7133C39.7345 76.7133 39.5526 60.8119 51.3147 51.3027Z" fill="white"/>
<path fill-rule="evenodd" clip-rule="evenodd" d="M51.0452 61.1625C49.9692 57.6541 52.7379 56.124 52.7379 56.124C52.7379 56.124 58.8795 56.9697 60.3039 61.79C60.3039 61.79 54.0082 63.0811 51.0452 61.1625Z" fill="black"/>
</svg>
