<?xml version="1.0" standalone="no"?>
<!DOCTYPE svg PUBLIC "-//W3C//DTD SVG 1.1//EN" "http://www.w3.org/Graphics/SVG/1.1/DTD/svg11.dtd" >
<svg xmlns="http://www.w3.org/2000/svg">
<metadata></metadata>
<defs>
<font id="breakers_blackregular" horiz-adv-x="1024" >
<font-face units-per-em="2048" ascent="1638" descent="-410" />
<missing-glyph horiz-adv-x="450" />
<glyph unicode="&#xfb01;" horiz-adv-x="1167" d="M31 778v287h123v61q0 112 29.5 188t91.5 120t146 63t204 19q87 0 194 -14.5t174 -37.5q-6 -48 -18 -111.5t-21 -102.5l-8 -40l-24 -12q-158 31 -267 31q-89 0 -121 -26t-32 -87v-51h594v-1065h-348v778h-246v-778h-348v778h-123z" />
<glyph unicode="&#xfb02;" horiz-adv-x="1331" d="M31 778v287h123v61q0 110 28 187.5t83.5 121t127.5 62.5t170 19q205 0 451 -82h123v-1078q0 -94 82 -94l57 6l35 -32v-218q-98 -43 -221 -43q-160 0 -231 83.5t-71 258.5v891q-81 21 -149 21q-86 0 -111.5 -26t-25.5 -87v-51h164v-287h-164v-778h-348v778h-123z" />
<glyph unicode="&#xfb03;" horiz-adv-x="1802" d="M31 778v287h123v61q0 110 28 187.5t83.5 121t127.5 62.5t170 19q33 0 71 -4t60 -8l21 -3q-4 -50 -10.5 -116t-11.5 -107l-5 -41l-24 -12q-36 4 -56 4q-54 0 -80 -20t-26 -72v-72h286v61q0 111 30 187.5t92 120.5t146 63t204 19q87 0 194 -14.5t174 -37.5 q-6 -48 -18 -111.5t-20 -102.5l-9 -40l-25 -12q-157 31 -266 31q-89 0 -121 -26t-32 -87v-51h594v-1065h-349v778h-245v-778h-349v778h-286v-778h-348v778h-123z" />
<glyph unicode="&#xfb04;" horiz-adv-x="1966" d="M31 778v287h123v61q0 110 28 187.5t83.5 121t127.5 62.5t170 19q33 0 71 -4t60 -8l21 -3q-4 -50 -10.5 -116t-11.5 -107l-5 -41l-24 -12q-36 4 -56 4q-54 0 -80 -20t-26 -72v-72h286v61q0 110 28 187.5t84 121t128 62.5t170 19q205 0 451 -82h123v-1078q0 -94 81 -94 l58 6l35 -32v-218q-99 -43 -222 -43q-160 0 -230.5 83.5t-70.5 258.5v891q-81 21 -149 21q-86 0 -111.5 -26t-25.5 -87v-51h163v-287h-163v-778h-349v778h-286v-778h-348v778h-123z" />
<glyph horiz-adv-x="2048" />
<glyph horiz-adv-x="2048" />
<glyph unicode="&#xd;" horiz-adv-x="2048" />
<glyph unicode=" "  horiz-adv-x="450" />
<glyph unicode="&#x09;" horiz-adv-x="450" />
<glyph unicode="&#xa0;" horiz-adv-x="450" />
<glyph unicode="!" horiz-adv-x="593" d="M102 174q0 86 54.5 140.5t138.5 54.5t140.5 -55t56.5 -140t-56.5 -139.5t-140.5 -54.5t-138.5 54t-54.5 140zM123 1024v264q0 66 33 97.5t118 31.5h41q89 0 122.5 -31.5t33.5 -97.5v-264l-88 -500h-172z" />
<glyph unicode="&#x22;" horiz-adv-x="901" d="M82 1239v92q0 51 26.5 77t86.5 26h102q63 0 88 -25.5t25 -77.5v-92l-93 -399h-143zM492 1239v92q0 51 26 77t86 26h103q63 0 87.5 -25t24.5 -78v-92l-92 -399h-143z" />
<glyph unicode="#" horiz-adv-x="1290" d="M82 328l57 286h213l31 164h-213l55 287h213l58 287h188l-57 -287h176l57 287h189l-56 -287h215l-55 -287h-217l-31 -164h217l-57 -286h-217l-64 -328h-188l63 328h-176l-63 -328h-189l64 328h-213zM541 614h176l31 164h-177z" />
<glyph unicode="$" horiz-adv-x="1003" d="M41 911q0 128 57 223t168 144v238h185v-189q33 4 102 8v181h184v-191q40 -5 79 -11t60 -10.5t21 -5.5q0 -52 -6.5 -118t-12.5 -106l-6 -40l-30 -16q-50 8 -105 16v-260q108 -45 167 -137t59 -223q0 -290 -226 -387v-232h-184v187q-15 -1 -49 -3.5t-53 -3.5v-180h-185v189 q-50 5 -98.5 13.5t-71 13.5t-28.5 7q-9 48 -11 116t0 112l2 43l31 16q80 -21 176 -33v283q-99 36 -162 125t-63 231zM389 936q0 -40 21.5 -61t62.5 -31l80 -19v224q-164 -7 -164 -113zM451 262q93 6 128 40t35 95q0 78 -79 95l-84 18v-248z" />
<glyph unicode="%" horiz-adv-x="1644" d="M92 938v84q0 79 25 140.5t65.5 97t87.5 53.5t97 18h47q50 0 96.5 -18t86.5 -53.5t64.5 -97t24.5 -140.5v-84q0 -78 -24.5 -139t-64.5 -96.5t-86.5 -53.5t-96.5 -18h-47q-50 0 -97 18t-87.5 53.5t-65.5 96.5t-25 139zM301 -25l832 1375h239l-831 -1375h-240zM338 891 q0 -76 51 -76t51 76v180q0 76 -51 76t-51 -76v-180zM969 283v84q0 79 24.5 140.5t65 97t87.5 53.5t97 18h47q50 0 96.5 -18t87 -53.5t65 -97t24.5 -140.5v-84q0 -78 -24.5 -139t-64.5 -97t-87 -54t-97 -18h-47q-50 0 -97 18t-87.5 54t-65 97t-24.5 139zM1214 236 q0 -76 52 -76q51 0 51 76v180q0 76 -51 76q-52 0 -52 -76v-180z" />
<glyph unicode="&#x26;" horiz-adv-x="1335" d="M61 358q0 60 16.5 112.5t38.5 87t57 66t59 47.5t57 34v12l-25 31q-110 134 -110 266q0 181 113 271.5t317 90.5q200 0 304.5 -87t104.5 -255q0 -120 -55.5 -198.5t-185.5 -155.5v-12l79 -99q7 -9 14.5 -21t10.5 -20l4 -8h8q9 56 9 135h307q0 -128 -21.5 -221t-79.5 -176 l211 -258h-424l-61 76q-109 -101 -307 -101q-222 0 -331.5 92.5t-109.5 290.5zM410 420q0 -83 40 -120.5t123 -37.5q45 0 76 10l-203 250q-36 -36 -36 -102zM502 1014q0 -38 45 -94l47 -60q72 76 72 144q0 86 -82 86t-82 -76z" />
<glyph unicode="'" horiz-adv-x="491" d="M82 1239v92q0 51 26.5 77t86.5 26h102q63 0 88 -25.5t25 -77.5v-92l-93 -399h-143z" />
<glyph unicode="(" horiz-adv-x="638" d="M86 594q0 114 17 222.5t44 192t59.5 157.5t65.5 125.5t60 89t44 55.5l17 18h225q-9 -15 -24 -42t-54 -115.5t-68.5 -182.5t-54 -236.5t-24.5 -283.5q0 -126 19 -255t46.5 -222.5t54.5 -169t46 -113.5l19 -39h-226q-11 12 -29 35t-63.5 101t-81 164t-64 222t-28.5 277z " />
<glyph unicode=")" horiz-adv-x="638" d="M20 1454h226q6 -6 17.5 -18.5t43 -54.5t60.5 -90t64.5 -124.5t61 -158.5t43 -191t17.5 -223q0 -141 -27.5 -275.5t-66.5 -225t-78 -161t-67 -104.5l-27 -33h-226q8 14 20 40t44 110.5t56.5 173t44.5 219t20 256.5q0 141 -23.5 281.5t-56.5 240.5t-66 179.5t-56 118.5z " />
<glyph unicode="*" horiz-adv-x="974" d="M14 1094q0 14 11 47l30 98q15 45 33.5 56.5t61.5 -1.5l77 -24l187 -148l20 15l-80 225v82q0 43 18.5 57.5t63.5 14.5h103q48 0 65 -14t17 -58v-82l-82 -225l20 -15l189 148l77 24q41 13 61 0t34 -55l30 -98q11 -37 11 -49q0 -35 -52 -52l-80 -24l-237 6l-8 -23l198 -133 l47 -67q25 -36 19 -57.5t-43 -47.5l-82 -61q-38 -28 -60.5 -26.5t-48.5 36.5l-47 66l-69 229h-23l-67 -229l-48 -66q-25 -34 -49.5 -35t-58.5 25l-82 61q-39 29 -44.5 49t19.5 56l48 67l196 133l-6 23l-238 -6l-79 24q-52 17 -52 54z" />
<glyph unicode="+" d="M61 492v245h328v328h246v-328h328v-245h-328v-328h-246v328h-328z" />
<glyph unicode="," horiz-adv-x="540" d="M76 174q0 86 54 140.5t138 54.5q85 0 141 -54t56 -141q0 -113 -113 -266l-143 -195h-113v41l84 236v8q-50 23 -77 69t-27 107z" />
<glyph unicode="-" horiz-adv-x="684" d="M86 492v245h512v-245h-512z" />
<glyph unicode="." horiz-adv-x="540" d="M76 174q0 86 54 140.5t138 54.5t140.5 -55t56.5 -140t-56.5 -139.5t-140.5 -54.5t-138 54t-54 140z" />
<glyph unicode="/" horiz-adv-x="1118" d="M41 -205l766 1721h270l-766 -1721h-270z" />
<glyph unicode="0" horiz-adv-x="1105" d="M82 592v168q0 159 35 279.5t97.5 193t143.5 108t179 35.5h32q98 0 179 -35.5t143.5 -108t97.5 -193t35 -279.5v-168q0 -159 -35 -279.5t-97.5 -193t-143.5 -108.5t-179 -36h-32q-98 0 -179 36t-143.5 108.5t-97.5 193t-35 279.5zM440 455q0 -104 32.5 -148.5t80.5 -44.5 t80.5 44.5t32.5 148.5v444q0 104 -32 147.5t-81 43.5t-81 -43.5t-32 -147.5v-444z" />
<glyph unicode="1" horiz-adv-x="675" d="M41 926v164l328 262h204v-1352h-348v926h-184z" />
<glyph unicode="2" horiz-adv-x="978" d="M57 0v246q0 32 7 63t15 54t29.5 53t34.5 47t48 50.5t51 48t61 54.5q158 141 212 203.5t54 122.5v10q0 138 -196 138q-46 0 -105.5 -12.5t-95.5 -25.5l-37 -12l-29 15q-18 126 -26 237q0 3 44.5 22.5t137.5 40.5t191 21q224 0 344.5 -109t120.5 -294v-21q0 -68 -14 -126 t-34 -99.5t-59.5 -87.5t-72.5 -77t-90 -81q-9 -8 -14 -12t-12.5 -10.5t-13.5 -12.5l-137 -120q-14 -12 -14 -29v-10h440v-287h-840z" />
<glyph unicode="3" horiz-adv-x="929" d="M41 49q4 49 10.5 108.5t11.5 94.5l5 35l28 14q133 -39 217 -39q109 0 158 43.5t49 116.5v10q0 66 -43.5 101.5t-150.5 35.5h-154v246h205q54 3 88.5 40t34.5 97v11q0 60 -38.5 93.5t-137.5 33.5q-37 0 -89.5 -10t-86.5 -20l-33 -9l-29 14q-19 127 -27 238q0 3 41.5 19.5 t128.5 35t179 18.5q207 0 313 -96t106 -252v-20q0 -177 -116 -265v-6q157 -109 157 -317v-21q0 -193 -125 -308.5t-350 -115.5q-92 0 -180 18.5t-130 35.5t-42 20z" />
<glyph unicode="4" horiz-adv-x="1003" d="M41 184v287l328 881h348l-328 -881h141l129 348h211v-348h113v-287h-113v-184h-348v184h-481z" />
<glyph unicode="5" horiz-adv-x="966" d="M82 49q4 49 10.5 108.5t11.5 94.5l5 35l28 14q154 -39 238 -39q90 0 128 42.5t38 131.5v19q0 71 -29.5 107t-99.5 36q-34 0 -68 -10t-51 -20l-17 -11l-186 41l41 754h676v-287h-344l-12 -217q56 16 110 16q164 0 246 -91.5t82 -268.5v-74q0 -228 -110.5 -341.5 t-323.5 -113.5q-92 0 -185 18.5t-140.5 35.5t-47.5 20z" />
<glyph unicode="6" horiz-adv-x="1064" d="M82 563v133q0 355 135 517.5t418 162.5q59 0 121 -9t94 -19l33 -9q-4 -50 -11 -115.5t-12 -105.5l-6 -41l-25 -12q-81 25 -157 25q-129 0 -181 -58.5t-59 -214.5q103 70 234 70q152 0 234.5 -104t82.5 -279v-72q0 -216 -109.5 -336.5t-341.5 -120.5q-229 0 -339.5 144.5 t-110.5 443.5zM430 516q0 -107 12 -163.5t32.5 -73.5t57.5 -17q50 0 76.5 39t26.5 109v59q0 131 -103 131q-39 0 -102 -14v-70z" />
<glyph unicode="7" horiz-adv-x="921" d="M41 1065v287h860v-287l-420 -1065h-379l439 1044v21h-500z" />
<glyph unicode="8" horiz-adv-x="1105" d="M82 338q0 115 40.5 192t108.5 115v25q-129 115 -129 293q0 209 121 311t330 102q206 0 328.5 -95.5t122.5 -276.5q0 -84 -39.5 -158t-112.5 -109v-14q172 -126 172 -324q0 -215 -118 -319.5t-353 -104.5q-471 0 -471 363zM430 379q0 -117 123 -117t123 117q0 46 -28 76.5 t-103 58.5l-58 23q-57 -77 -57 -158zM430 983q0 -46 34.5 -73t100.5 -52l66 -27q45 98 45 152q0 107 -123 107t-123 -107z" />
<glyph unicode="9" horiz-adv-x="1064" d="M82 848v72q0 216 123 336t327 120q220 0 335.5 -140.5t115.5 -385.5v-195q0 -355 -135 -517.5t-418 -162.5q-59 0 -121 9.5t-95 18.5l-32 9q4 50 11 115.5t13 106.5l5 40l25 13q81 -25 157 -25q129 0 181 57.5t59 212.5q-92 -67 -213 -67q-156 0 -247 102t-91 281z M430 883q0 -131 102 -131q49 0 103 12v72q0 143 -22 198.5t-81 55.5q-50 0 -76 -39t-26 -109v-59z" />
<glyph unicode=":" horiz-adv-x="552" d="M82 174q0 86 54 140.5t138 54.5t140.5 -55t56.5 -140t-56.5 -139.5t-140.5 -54.5t-138 54t-54 140zM82 829q0 86 54 140.5t138 54.5t140.5 -55t56.5 -140t-56.5 -139.5t-140.5 -54.5t-138 54t-54 140z" />
<glyph unicode=";" horiz-adv-x="552" d="M82 174q0 86 54 140.5t138 54.5q85 0 141 -54t56 -141q0 -113 -113 -266l-143 -195h-113v41l84 236v8q-50 23 -77 69t-27 107zM82 829q0 86 54 140.5t138 54.5t140.5 -55t56.5 -140t-56.5 -139.5t-140.5 -54.5t-138 54t-54 140z" />
<glyph unicode="&#x3c;" d="M121 506v174l710 410h72v-244l-438 -254l438 -252v-242h-72z" />
<glyph unicode="=" d="M102 266v246h820v-246h-820zM102 676v246h820v-246h-820z" />
<glyph unicode="&#x3e;" d="M121 98v244l438 254l-438 252v242h72l710 -408v-174l-710 -410h-72z" />
<glyph unicode="?" horiz-adv-x="884" d="M78 1303q0 3 42 19.5t130 35t180 18.5q414 0 414 -362v-21q0 -123 -54.5 -207.5t-175.5 -152.5q-11 -6 -20 -13t-15.5 -12.5t-11.5 -13.5t-8.5 -13t-6 -15t-3.5 -14.5t-1.5 -16.5t-0.5 -16v-18.5v-19.5v-10h-348v164q0 87 33 130.5t135 100.5q77 45 103 70t26 57v11 q0 41 -37 63.5t-109 22.5q-46 0 -100.5 -10t-85.5 -20l-31 -9l-29 14q-18 127 -26 238zM178 174q0 86 54.5 140.5t138.5 54.5t140 -55t56 -140t-56 -139.5t-140 -54.5t-138.5 54t-54.5 140z" />
<glyph unicode="@" horiz-adv-x="1710" d="M41 524v123q0 242 94 424t279 284.5t440 102.5h43q385 0 578.5 -167t193.5 -480v-82q0 -124 -27.5 -224.5t-74 -167.5t-110.5 -112.5t-133.5 -65.5t-145.5 -20q-166 0 -246 103h-8q-37 -40 -97.5 -71.5t-130.5 -31.5q-126 0 -197 82t-71 234q0 99 25 229 q38 198 142.5 302t256.5 104q58 0 107.5 -20t70.5 -37.5t35 -35.5l70 68h174l-127 -637q-9 -43 4.5 -67.5t48.5 -24.5q48 0 91 21.5t79.5 66t58 123t21.5 182.5v82q0 223 -147.5 343t-440.5 120h-43q-195 0 -338.5 -80t-217 -221t-73.5 -326v-123q0 -279 157 -432t452 -153 h22q247 0 496 41l20 -156q-246 -70 -516 -70h-22q-386 0 -589.5 202t-203.5 568zM717 475q0 -110 84 -110q50 0 92 28q0 49 12 111l64 327q-38 15 -72 15q-67 0 -102 -49.5t-60 -175.5q-18 -92 -18 -146z" />
<glyph unicode="A" horiz-adv-x="1091" d="M20 0l289 1352h473l289 -1352h-354l-37 205h-270l-35 -205h-355zM461 492h168l-31 174q-11 59 -20.5 146t-13.5 144l-3 58h-31q-15 -215 -38 -348z" />
<glyph unicode="B" horiz-adv-x="1064" d="M102 0v1352h455q202 0 304 -92.5t102 -268.5v-16q0 -107 -35 -175t-125 -100v-8q76 -21 122.5 -70.5t62.5 -108t16 -136.5v-17q0 -71 -18 -132t-56.5 -114t-107.5 -83.5t-163 -30.5h-557zM451 266h122q82 0 82 113v61q0 113 -123 113h-81v-287zM451 799h81q82 0 82 112 v45q0 129 -102 129h-61v-286z" />
<glyph unicode="C" horiz-adv-x="886" d="M78 614v72q0 361 142.5 525.5t410.5 164.5q49 0 97.5 -6.5t72.5 -13.5l24 -6q-4 -50 -11 -115t-12 -105l-5 -40l-25 -13q-60 13 -115 13q-113 0 -167 -96t-54 -312v-43q0 -205 53 -291t166 -86q24 0 58 6t56 12l22 5l24 -13q25 -141 33 -254q-127 -43 -262 -43 q-94 0 -168.5 18.5t-139.5 63.5t-108 117t-67.5 183t-24.5 257z" />
<glyph unicode="D" horiz-adv-x="1081" d="M102 0v1352h435q467 0 467 -525v-364q0 -228 -104.5 -345.5t-301.5 -117.5h-496zM451 287h61q70 0 106.5 39t36.5 155v332q0 82 -10.5 133t-36 77t-56 34t-81.5 8h-20v-778z" />
<glyph unicode="E" horiz-adv-x="837" d="M102 0v1352h676v-287h-327v-246h266v-246h-266v-286h348v-287h-697z" />
<glyph unicode="F" horiz-adv-x="817" d="M102 0v1352h676v-287h-327v-266h266v-267h-266v-532h-349z" />
<glyph unicode="G" horiz-adv-x="1028" d="M78 625v71q0 159 23.5 276t67 194.5t114 124t156.5 66t202 19.5q59 0 131.5 -9t115.5 -19l42 -9q-4 -50 -11 -115.5t-13 -105.5l-5 -41l-24 -12q-133 25 -199 25q-98 0 -148.5 -35.5t-72 -121t-21.5 -251.5v-64q0 -155 13.5 -231.5t39 -100.5t78.5 -24q14 0 54 8v467h348 v-737h-185l-45 76q-63 -51 -115 -76t-126 -25q-78 0 -140 19t-115.5 65t-89 119.5t-55.5 186t-20 260.5z" />
<glyph unicode="H" horiz-adv-x="1126" d="M102 0v1352h349v-533h225v533h348v-1352h-348v532h-225v-532h-349z" />
<glyph unicode="I" horiz-adv-x="552" d="M102 0v1352h349v-1352h-349z" />
<glyph unicode="J" horiz-adv-x="698" d="M20 0l23 246l25 20q48 -4 77 -4q63 0 83 43.5t20 169.5v877h348v-932q0 -132 -22.5 -219.5t-71 -137t-114 -69t-161.5 -19.5q-44 0 -95.5 6.5t-81.5 12.5z" />
<glyph unicode="K" horiz-adv-x="1097" d="M102 0v1352h349v-533h20l227 533h369l-283 -664l293 -688h-381l-225 532h-20v-532h-349z" />
<glyph unicode="L" horiz-adv-x="796" d="M102 0v1352h349v-1065h307v-287h-656z" />
<glyph unicode="M" horiz-adv-x="1433" d="M102 0v1352h451l92 -328q16 -55 32 -124t24 -110l8 -42h14q28 153 63 276l95 328h450v-1352h-348v451l8 311l-18 2q-35 -170 -58 -252l-135 -471h-129l-135 471q-11 38 -25 101t-22 107l-8 44l-19 -2l9 -311v-451h-349z" />
<glyph unicode="N" horiz-adv-x="1212" d="M102 0v1352h402l223 -615q6 -18 14.5 -54.5t13.5 -63.5l5 -27l16 2l-14 184v574h348v-1352h-401l-224 614q-6 18 -14 54t-13 63l-5 27l-17 -2l15 -183v-573h-349z" />
<glyph unicode="O" horiz-adv-x="1077" d="M78 633v86q0 169 22 287.5t72.5 203.5t137 125.5t212.5 40.5h33q126 0 212.5 -40.5t137 -125.5t72.5 -203.5t22 -287.5v-86q0 -169 -22 -287.5t-72.5 -204t-137 -126t-212.5 -40.5h-33q-126 0 -212.5 40.5t-137 126t-72.5 204t-22 287.5zM436 475q0 -112 25.5 -162.5 t77.5 -50.5t77 50.5t25 162.5v404q0 112 -25 161.5t-77 49.5t-77.5 -49.5t-25.5 -161.5v-404z" />
<glyph unicode="P" horiz-adv-x="1042" d="M102 0v1352h455q216 0 321 -107.5t105 -335.5v-98q0 -203 -94.5 -302t-270.5 -99h-167v-410h-349zM451 655h61q123 0 123 154v86q0 170 -143 170h-41v-410z" />
<glyph unicode="Q" horiz-adv-x="1077" d="M78 633v86q0 169 22 287.5t72.5 203.5t137 125.5t212.5 40.5h33q126 0 212.5 -40.5t137 -125.5t72.5 -203.5t22 -287.5v-86q0 -404 -137 -549l86 -172l-241 -117l-93 185q-45 -5 -59 -5h-33q-126 0 -212.5 40.5t-137 126t-72.5 204t-22 287.5zM436 475 q0 -112 25.5 -162.5t77.5 -50.5t77 50.5t25 162.5v404q0 112 -25 161.5t-77 49.5t-77.5 -49.5t-25.5 -161.5v-404z" />
<glyph unicode="R" horiz-adv-x="1075" d="M102 0v1352h455q229 0 338 -108t109 -304v-37q0 -246 -189 -338v-8q62 -34 92 -127l148 -430h-367l-153 451q-10 33 -26.5 47t-43.5 14h-14v-512h-349zM451 758h61q77 0 110 28t33 105v20q0 87 -34 120.5t-129 33.5h-41v-307z" />
<glyph unicode="S" horiz-adv-x="942" d="M51 942q0 214 117.5 324t374.5 110q58 0 123 -5.5t102 -11.5t37 -7q-3 -59 -9 -126t-11 -104l-5 -37l-30 -16q-101 21 -187 21q-90 0 -127 -32t-37 -95q0 -74 74 -105l160 -65q134 -57 196 -143t62 -230q0 -221 -112 -333t-369 -112q-65 0 -142.5 7.5t-118.5 14.5t-51 9 q-4 47 -6 114.5t-2 111.5v44l31 17q133 -31 258 -31q90 0 127 34.5t37 102.5q0 42 -21.5 69t-68.5 46l-164 66q-107 42 -172.5 131t-65.5 231z" />
<glyph unicode="T" horiz-adv-x="835" d="M39 1065v287h758v-287h-205v-1065h-348v1065h-205z" />
<glyph unicode="U" horiz-adv-x="1105" d="M102 479v873h349v-938q0 -80 25 -116t77 -36t77 36t25 116v938h349v-873q0 -262 -108.5 -383t-322.5 -121h-41q-214 0 -322 121t-108 383z" />
<glyph unicode="V" horiz-adv-x="1091" d="M20 1352h355l108 -615q10 -55 22 -152t19 -167l6 -70h31q24 266 47 389l109 615h354l-237 -1352h-576z" />
<glyph unicode="W" horiz-adv-x="1452" d="M20 1352h351l61 -428l25 -340h26q23 154 43 254l99 473h204l99 -473q9 -44 19 -107.5t16 -104.5l6 -42h24l27 340l61 428h351l-191 -1352h-383l-72 330q-11 49 -23.5 133t-18.5 143l-7 60h-20q-24 -225 -49 -336l-74 -330h-383z" />
<glyph unicode="X" horiz-adv-x="1097" d="M20 0l240 692l-227 660h368l99 -287q13 -36 23 -87t14 -84l4 -32h16q12 121 41 203l98 287h369l-227 -660l239 -692h-370l-127 369q-6 18 -12.5 57.5t-9.5 69.5l-3 30h-12q-11 -116 -25 -157l-127 -369h-371z" />
<glyph unicode="Y" horiz-adv-x="1118" d="M20 1352h373l107 -293q12 -34 24 -104t18 -123l7 -54h20q22 205 49 279l109 295h371l-365 -965v-387h-348v389z" />
<glyph unicode="Z" horiz-adv-x="897" d="M59 0v143l338 840q6 16 18 34t21 28l8 10v10h-350v287h744v-144l-334 -839q-7 -17 -19 -35t-20 -28l-8 -9v-10h381v-287h-779z" />
<glyph unicode="[" horiz-adv-x="624" d="M113 -246v1700h491v-184h-184v-1331h184v-185h-491z" />
<glyph unicode="\" horiz-adv-x="1118" d="M41 1516h270l766 -1721h-270z" />
<glyph unicode="]" horiz-adv-x="624" d="M20 -61h185v1331h-185v184h492v-1700h-492v185z" />
<glyph unicode="^" d="M57 573l349 758h210l349 -758h-273l-174 385h-14l-176 -385h-271z" />
<glyph unicode="_" d="M0 -143h1024v-103h-1024v103z" />
<glyph unicode="`" horiz-adv-x="593" d="M82 1372v103h297l153 -246l-20 -41h-195z" />
<glyph unicode="a" horiz-adv-x="1036" d="M41 274v54q0 276 266 307l246 31v10q0 67 -44 97t-167 30q-42 0 -92 -4.5t-80 -8.5l-29 -4l-30 21q0 20 19 125t30 141l31 3q31 4 91 9t117 5q270 0 386 -99t116 -311v-338q0 -34 12 -51t45 -23l43 -6l15 -33l-41 -182q-7 -8 -20 -20t-60 -32t-102 -20q-147 0 -211 121 h-13q-99 -121 -247 -121q-127 0 -204 85.5t-77 213.5zM389 328q0 -39 22 -62.5t60 -23.5q48 0 82 34v222l-84 -33q-80 -30 -80 -100v-37z" />
<glyph unicode="b" horiz-adv-x="1034" d="M72 0v1434h348v-428h2q110 84 240 84q164 0 247.5 -126.5t83.5 -410.5v-61q0 -261 -96 -389t-262 -128q-89 0 -151.5 34.5t-116.5 92.5h-7l-84 -102h-204zM420 254q40 -12 86 -12q43 0 72 22.5t48 87.5t19 174v23q0 151 -20.5 202.5t-87.5 51.5q-38 0 -117 -19v-530z" />
<glyph unicode="c" horiz-adv-x="770" d="M41 502v30q0 157 29.5 265.5t89.5 172.5t143 92t199 28q56 0 109.5 -8t79.5 -16l26 -7q-4 -50 -11 -115t-12 -105l-6 -40l-24 -13q-74 17 -129 17q-36 0 -60 -10t-45 -38t-31 -84t-10 -143v-22q0 -80 10.5 -130.5t33 -74.5t47 -31.5t63.5 -7.5q24 0 59 7t58 13l22 7 l25 -13q24 -140 32 -253q-12 -5 -33.5 -13t-84.5 -21.5t-123 -13.5q-118 0 -198.5 23t-141 81t-89 162t-28.5 261z" />
<glyph unicode="d" horiz-adv-x="1097" d="M41 492v61q0 147 26.5 251t79 166.5t125 91t170.5 28.5q77 0 172 -31v375h349v-1092q0 -34 12 -51t45 -23l43 -6l14 -33l-41 -182q-7 -8 -20 -20t-60 -32t-102 -20q-138 0 -203 107h-16q-99 -107 -236 -107q-166 0 -262 128t-96 389zM389 526q0 -109 19 -174t48 -87.5 t72 -22.5q40 0 86 12v541q-50 8 -92 8q-71 0 -102 -55.5t-31 -198.5v-23z" />
<glyph unicode="e" horiz-adv-x="921" d="M41 502v73q0 241 116.5 378t309.5 137h35q186 0 282.5 -110t96.5 -323v-34q0 -32 -4.5 -78t-9.5 -75l-5 -30h-473v-51q0 -68 38 -97.5t148 -29.5q37 0 91.5 10t90.5 20l36 9l28 -14q19 -127 27 -238q0 -3 -42 -20t-130 -35.5t-180 -18.5q-230 0 -342.5 128.5 t-112.5 398.5zM389 625h164v149q0 90 -70 90q-36 0 -65 -30.5t-29 -100.5v-108z" />
<glyph unicode="f" horiz-adv-x="765" d="M31 778v287h123v61q0 110 28 187.5t83.5 121t127.5 62.5t170 19q39 0 82 -5t67 -9l23 -5l-26 -262l-25 -12q-41 6 -76 6q-54 0 -80 -20t-26 -72v-72h233v-287h-233v-778h-348v778h-123z" />
<glyph unicode="g" horiz-adv-x="1087" d="M41 -176q0 59 33 108t88 76v4q-84 53 -84 166q0 97 121 240q-158 97 -158 299q0 167 114 270t310 103h33q206 0 325 -119q76 94 187 94h47v-272l-33 -21q-31 6 -68 6l-41 -2q7 -35 7 -59q0 -181 -110.5 -273t-313.5 -92h-33q-47 0 -90 6q-10 -30 -10 -61q0 -57 63 -57 h227q178 0 273.5 -86.5t95.5 -216.5v-58q0 -59 -24 -112.5t-73.5 -99.5t-138 -73.5t-204.5 -27.5h-133q-196 0 -303 63.5t-107 171.5v23zM389 -27v-120q0 -52 34 -77.5t109 -25.5q74 0 109 29t35 78v20q0 46 -29 71t-80 25h-178zM389 676q0 -51 25 -74.5t67 -23.5t67 23.5 t25 74.5v92q0 96 -92 96t-92 -96v-92z" />
<glyph unicode="h" horiz-adv-x="1044" d="M72 0v1434h348v-447h4q118 103 266 103q130 0 206.5 -82t76.5 -217v-791h-348v731q0 72 -82 72q-50 0 -123 -35v-768h-348z" />
<glyph unicode="i" horiz-adv-x="491" d="M47 1321q0 83 54.5 126.5t144.5 43.5t144 -43.5t54 -126.5t-54 -126.5t-144 -43.5t-144.5 43.5t-54.5 126.5zM72 0v1065h348v-1065h-348z" />
<glyph unicode="j" horiz-adv-x="491" d="M-109 -389l25 217l35 33q26 -8 49 -8q36 0 54 19.5t18 68.5v1124h348v-1157q0 -175 -69 -258.5t-224 -83.5q-55 0 -114 11t-91 23zM47 1321q0 83 54.5 126.5t144.5 43.5t144 -43.5t54 -126.5t-54 -126.5t-144 -43.5t-144.5 43.5t-54.5 126.5z" />
<glyph unicode="k" horiz-adv-x="1028" d="M72 0v1434h348v-777h31l186 408h360l-239 -502l260 -563h-379l-193 410h-26v-410h-348z" />
<glyph unicode="l" horiz-adv-x="614" d="M72 317v1117h348v-1078q0 -94 82 -94l57 6l35 -32v-218q-98 -43 -221 -43q-160 0 -230.5 83.5t-70.5 258.5z" />
<glyph unicode="m" horiz-adv-x="1556" d="M72 0v1065h204l99 -121q39 43 72 70.5t93 51.5t130 24q83 0 146 -36.5t99 -101.5q56 63 123 100.5t164 37.5q130 0 206.5 -82t76.5 -217v-791h-348v731q0 72 -82 72q-36 0 -103 -29v-774h-348v731q0 72 -82 72q-35 0 -102 -29v-774h-348z" />
<glyph unicode="n" horiz-adv-x="1044" d="M72 0v1065h204l101 -121q64 65 138 105.5t175 40.5q130 0 206.5 -82t76.5 -217v-791h-348v731q0 72 -82 72q-50 0 -123 -35v-768h-348z" />
<glyph unicode="o" horiz-adv-x="962" d="M41 489v86q0 241 115.5 378t308.5 137h33q193 0 308.5 -137t115.5 -378v-86q0 -241 -115.5 -377.5t-308.5 -136.5h-33q-193 0 -308.5 136.5t-115.5 377.5zM389 369q0 -67 25.5 -97t66.5 -30t66.5 30t25.5 97v329q0 125 -92 125t-92 -125v-329z" />
<glyph unicode="p" horiz-adv-x="1034" d="M72 -410v1475h204l91 -111q119 136 280 136q170 0 258 -127t88 -410v-61q0 -261 -91 -389t-247 -128q-133 0 -231 78h-4v-463h-348zM420 254q46 -12 92 -12q43 0 70.5 22.5t45 87t17.5 174.5v23q0 145 -27 199.5t-96 54.5q-45 0 -102 -17v-532z" />
<glyph unicode="q" horiz-adv-x="1034" d="M41 471v61q0 149 29.5 259.5t83 174t122 94t152.5 30.5q135 0 260 -109l70 84h205v-1475h-349v459h-4q-91 -74 -211 -74q-168 0 -263 118.5t-95 377.5zM389 506q0 -82 10 -136.5t30 -81t43 -36.5t56 -10q40 0 86 12v534q-77 15 -104 15q-68 0 -94.5 -63t-26.5 -212v-22z " />
<glyph unicode="r" horiz-adv-x="704" d="M72 0v1065h204l95 -117q42 65 99 103.5t153 38.5l51 -5l-25 -311l-41 -20q-35 8 -76 8q-65 0 -112 -33v-729h-348z" />
<glyph unicode="s" horiz-adv-x="899" d="M43 686v21q-1 189 101 283q108 100 366 100q53 0 115.5 -6t99.5 -12t37 -7q0 -51 -6 -117.5t-12 -107.5l-7 -41l-30 -17q-115 21 -195 21q-84 0 -112.5 -17.5t-28.5 -50.5q0 -40 51 -49l141 -24q156 -27 225.5 -102t69.5 -208q0 -95 -22.5 -163t-75 -117t-141.5 -73 t-218 -24q-82 0 -157.5 7.5t-109.5 13.5l-34 6q-9 47 -16 114.5t-10 111.5l-2 44l30 17q154 -27 269 -27q95 0 127 16t32 54q0 44 -63 55l-174 31q-110 20 -178.5 87t-71.5 181z" />
<glyph unicode="t" horiz-adv-x="755" d="M31 778v287h119l102 246h246v-246h227v-287h-227v-389q0 -67 20.5 -97t77.5 -30q30 0 56 2.5t37 5.5l11 2l25 -12v-248q-76 -37 -199 -37q-92 0 -158.5 18t-108.5 50t-66.5 84.5t-33.5 113t-9 144.5v393h-119z" />
<glyph unicode="u" horiz-adv-x="1107" d="M72 336v729h348v-705q0 -98 102 -98q51 0 103 31v772h348v-723q0 -34 12 -51t45 -23l43 -6l14 -33l-40 -182q-2 -3 -7 -8t-22 -17t-36.5 -21.5t-51.5 -17.5t-66 -8q-147 0 -211 121h-12q-46 -51 -114.5 -86t-145.5 -35q-142 0 -225.5 89.5t-83.5 271.5z" />
<glyph unicode="v" horiz-adv-x="1021" d="M20 1065h336l103 -483l37 -234h28l37 234l103 483h337l-266 -1065h-450z" />
<glyph unicode="w" horiz-adv-x="1507" d="M20 1065h336l78 -422l29 -254h29l28 254l84 422h299l84 -422l29 -254h28l29 254l78 422h336l-205 -1065h-438l-58 307l-22 191h-21l-22 -191l-57 -307h-439z" />
<glyph unicode="x" horiz-adv-x="1021" d="M20 0l211 532l-200 533h356l102 -320l15 -71h12l14 71l103 320h358l-203 -528l213 -537h-356l-113 317l-14 72h-12l-14 -72l-113 -317h-359z" />
<glyph unicode="y" horiz-adv-x="1067" d="M20 1065h336l142 -422l30 -199h17l33 199l127 422h342l-367 -1223q-44 -150 -108.5 -213t-186.5 -63q-59 0 -119.5 11t-91.5 23l-31 11l31 223l35 33q47 -14 70 -14q33 0 54.5 22t35.5 70l16 55z" />
<glyph unicode="z" horiz-adv-x="866" d="M41 0v203l289 508l53 63l-4 10l-76 -6h-262v287h784v-143l-331 -584l-48 -53l5 -9l77 11h297v-287h-784z" />
<glyph unicode="{" horiz-adv-x="634" d="M41 512v184h49q39 0 66.5 24t27.5 68q0 30 -30.5 146.5t-30.5 206.5q0 163 84 238t246 75q23 0 58 -2.5t59 -5.5l24 -2v-174h-90q-41 0 -57.5 -24.5t-16.5 -74.5q0 -34 20.5 -157t20.5 -195q0 -103 -55 -150t-158 -59v-12q102 -11 157.5 -59t55.5 -150q0 -72 -20.5 -195 t-20.5 -157q0 -50 16.5 -74t57.5 -24h90v-175q-90 -10 -141 -10q-162 0 -246 75.5t-84 238.5q0 90 30.5 206t30.5 146q0 44 -27.5 68t-66.5 24h-49z" />
<glyph unicode="|" horiz-adv-x="491" d="M123 -205v1721h246v-1721h-246z" />
<glyph unicode="}" horiz-adv-x="634" d="M41 -61h90q41 0 57.5 24t16.5 74q0 34 -20.5 157t-20.5 195q0 102 55.5 150t157.5 59v12q-103 12 -158 59t-55 150q0 72 20.5 195t20.5 157q0 50 -16.5 74.5t-57.5 24.5h-90v174q90 10 141 10q162 0 246 -75t84 -238q0 -90 -30.5 -206.5t-30.5 -146.5q0 -44 27.5 -68 t66.5 -24h49v-184h-49q-39 0 -66.5 -24t-27.5 -68q0 -30 30.5 -146t30.5 -206q0 -163 -84 -238.5t-246 -75.5q-23 0 -58 2.5t-59 5.5l-24 2v175z" />
<glyph unicode="~" horiz-adv-x="1228" d="M41 369q0 127 36.5 227.5t112 161.5t179.5 61q65 0 127.5 -23t109.5 -56.5t90 -66.5t86.5 -56t81.5 -23q99 0 99 205h225q0 -97 -17 -176.5t-52.5 -142t-96 -97.5t-141.5 -35q-65 0 -126 23t-108 56t-90 66.5t-87.5 56.5t-84.5 23q-59 0 -89 -57.5t-30 -146.5h-225z" />
<glyph unicode="&#xa1;" horiz-adv-x="593" d="M102 829q0 85 56.5 140t140.5 55t138.5 -54.5t54.5 -140.5t-54.5 -140t-138.5 -54t-140.5 54.5t-56.5 139.5zM123 -20l88 499h172l88 -499v-265q0 -65 -33.5 -97t-118.5 -32h-40q-89 0 -122.5 31.5t-33.5 97.5v265z" />
<glyph unicode="&#xa2;" horiz-adv-x="800" d="M61 645v31q0 188 67 292t202 140v244h245v-224q43 -3 83.5 -10t59.5 -12l19 -6q-4 -50 -11 -115t-12 -105l-5 -40l-25 -13q-74 17 -129 17q-71 0 -108 -37t-37 -135v-23q0 -162 153 -162q24 0 59 6.5t58 13.5l22 7l25 -12q25 -141 33 -254q-81 -35 -185 -45v-223h-245 v239q-136 35 -202.5 136t-66.5 290z" />
<glyph unicode="&#xa3;" horiz-adv-x="921" d="M41 0v246q6 5 16 13.5t36 36.5t47.5 57.5t42.5 73t28 85.5h-150v205h117q-11 18 -41 60.5t-47 69t-32 70.5t-15 87q0 87 37.5 152t104 102t148 55t179.5 18q68 0 144.5 -10t119.5 -19.5t43 -11.5l-26 -260l-29 -14q-93 28 -191 28q-85 0 -133.5 -31t-48.5 -91 q0 -34 18 -65.5t53.5 -73t51.5 -66.5h244v-205h-201q-11 -59 -48 -116t-77 -89v-20h449v-287h-840z" />
<glyph unicode="&#xa4;" horiz-adv-x="1173" d="M8 248l156 155q-70 115 -70 252t70 252l-156 156l170 170l156 -156q120 70 252 70t252 -70l155 156l170 -170l-155 -156q69 -119 69 -252t-69 -252l155 -155l-170 -170l-155 155q-113 -69 -252 -69t-252 69l-156 -155zM340 655q0 -101 72.5 -173t173.5 -72t173 72t72 173 t-72 173.5t-173 72.5t-173.5 -72.5t-72.5 -173.5z" />
<glyph unicode="&#xa5;" horiz-adv-x="1101" d="M20 1331h373l99 -272l45 -260h28l45 258l101 274h370l-231 -614h176v-205h-254l-47 -123h301v-205h-301v-184h-348v184h-303v205h303l-47 123h-256v205h178z" />
<glyph unicode="&#xa6;" horiz-adv-x="483" d="M119 -205v778h246v-778h-246zM119 778v778h246v-778h-246z" />
<glyph unicode="&#xa7;" horiz-adv-x="915" d="M61 614q0 162 93 246q-41 74 -41 172q0 177 103.5 260.5t320.5 83.5q46 0 103 -5t90 -10l34 -5q0 -42 -5 -96.5t-11 -88.5l-5 -34l-24 -15q-94 19 -164 19q-78 0 -117 -22t-39 -70q0 -24 10.5 -40t22.5 -23t31 -13l151 -43q240 -84 240 -307q0 -166 -92 -252 q41 -68 41 -166q0 -179 -101 -265.5t-317 -86.5q-53 0 -118 6.5t-103 12t-43 7.5q-7 38 -9 93.5t0 91.5l1 36l26 15q119 -27 221 -27q156 0 156 100q0 35 -18 54.5t-58 31.5l-155 43q-96 26 -160 99.5t-64 197.5zM348 631q0 -24 13.5 -40.5t26.5 -22.5t34 -13l92 -27 q53 24 53 78q0 33 -21.5 53t-64.5 33l-63 17q-70 -22 -70 -78z" />
<glyph unicode="&#xa8;" horiz-adv-x="856" d="M82 1331q0 60 41.5 102t101.5 42t102 -42t42 -102t-42 -101.5t-102 -41.5t-101.5 41.5t-41.5 101.5zM487 1331q0 60 42 102t102 42t101.5 -42t41.5 -102t-41.5 -101.5t-101.5 -41.5t-102 41.5t-42 101.5z" />
<glyph unicode="&#xa9;" horiz-adv-x="1460" d="M96 696q0 129 50.5 246.5t135.5 202.5t202.5 135.5t246.5 50.5t246.5 -50.5t202.5 -135.5t135.5 -202.5t50.5 -246.5t-50.5 -246.5t-135.5 -202.5t-202.5 -135.5t-246.5 -50.5t-246.5 50.5t-202.5 135.5t-135.5 202.5t-50.5 246.5zM281 696q0 -186 132 -318t318 -132 t318.5 132t132.5 318t-132.5 318.5t-318.5 132.5t-318 -132.5t-132 -318.5zM457 664v43q0 177 78.5 257t232.5 80q30 0 65.5 -4t55.5 -8l20 -4l-14 -160l-14 -6q-45 8 -78 8q-64 0 -92.5 -36.5t-28.5 -128.5v-27q0 -88 27.5 -122t91.5 -34q18 0 42.5 4t40.5 8l15 5l14 -7 q15 -81 21 -149q-76 -35 -174 -35q-144 0 -223.5 74t-79.5 242z" />
<glyph unicode="&#xaa;" horiz-adv-x="749" d="M61 717v28q0 88 47 138t136 59l166 19v12q0 28 -26.5 41.5t-98.5 13.5q-33 0 -73 -3.5t-64 -6.5l-23 -4l-21 14q0 15 12 88.5t21 102.5q90 14 178 14q179 0 259.5 -67t80.5 -208v-190q0 -35 27 -35l35 -4l12 -33l-27 -121q-5 -6 -15 -15t-45 -24.5t-75 -15.5 q-101 0 -139 78h-8q-25 -35 -73.5 -56.5t-96.5 -21.5q-85 0 -137 54.5t-52 142.5zM307 735q0 -51 47 -51q25 0 56 23v127l-58 -15q-45 -11 -45 -59v-25z" />
<glyph unicode="&#xab;" horiz-adv-x="1064" d="M66 451l221 450h233l-139 -450l139 -451h-233zM524 451l221 450h234l-139 -450l139 -451h-234z" />
<glyph unicode="&#xac;" d="M102 676v246h820v-656h-246v410h-574z" />
<glyph unicode="&#xad;" horiz-adv-x="684" d="M86 492v245h512v-245h-512z" />
<glyph unicode="&#xae;" horiz-adv-x="849" d="M41 993q0 160 111.5 271.5t271.5 111.5t271.5 -111.5t111.5 -271.5t-111.5 -271.5t-271.5 -111.5t-271.5 111.5t-111.5 271.5zM164 993q0 -109 75.5 -184.5t184.5 -75.5t184.5 75.5t75.5 184.5t-75.5 184.5t-184.5 75.5t-184.5 -75.5t-75.5 -184.5zM272 811v371h170 q154 0 154 -131q0 -85 -61 -113l53 -127h-125l-47 115h-21v-115h-123zM395 1008h29q49 0 49 45q0 21 -11.5 31t-39.5 10h-27v-86z" />
<glyph unicode="&#xaf;" horiz-adv-x="716" d="M102 1229v205h512v-205h-512z" />
<glyph unicode="&#xb0;" horiz-adv-x="806" d="M86 1059q0 132 92.5 224.5t224.5 92.5t225 -92.5t93 -224.5t-93 -225t-225 -93t-224.5 93t-92.5 225zM291 1059q0 -46 33 -79.5t79 -33.5t79.5 33.5t33.5 79.5t-33.5 79t-79.5 33t-79 -33t-33 -79z" />
<glyph unicode="&#xb1;" d="M61 0v246h902v-246h-902zM61 573v246h328v246h246v-246h328v-246h-328v-245h-246v245h-328z" />
<glyph unicode="&#xb2;" horiz-adv-x="655" d="M51 860v148q0 44 21.5 84t46 65t80.5 74q114 100 134 123q25 29 25 59q0 70 -118 70q-27 0 -62.5 -7.5t-57.5 -15.5l-22 -8l-18 8q-10 110 -14 176q0 2 31.5 14t92.5 25t119 13q134 0 214.5 -71.5t80.5 -182.5q0 -37 -5 -68t-19 -59t-25 -46.5t-38.5 -46t-42 -41 t-52.5 -45.5l-47 -41q-10 -7 -10 -18v-4h227v-205h-541z" />
<glyph unicode="&#xb3;" horiz-adv-x="606" d="M31 885l16 176l16 8q91 -16 142 -16q60 0 86 17.5t26 55.5q0 37 -25 53.5t-91 16.5h-92v164h122q36 2 55 15.5t19 47.5q0 31 -22 45.5t-82 14.5q-23 0 -54.5 -5.5t-52.5 -11.5l-20 -6l-17 8q-10 109 -16 177q106 43 229 43q140 0 210.5 -63.5t70.5 -160.5 q0 -100 -70 -155v-4q94 -65 94 -189q0 -268 -319 -268q-56 0 -112 9t-84 19z" />
<glyph unicode="&#xb4;" horiz-adv-x="962" d="M369 1229l153 246h297v-103l-235 -184h-195z" />
<glyph unicode="&#xb5;" horiz-adv-x="1114" d="M98 -410v1475h348v-705q0 -98 103 -98q50 0 102 31v772h348v-723q0 -34 12.5 -51t45.5 -23l43 -6l14 -33l-41 -182q-7 -8 -20 -20t-60 -32t-102 -20q-147 0 -211 121h-12q-91 -102 -222 -116v-390h-348z" />
<glyph unicode="&#xb6;" horiz-adv-x="1097" d="M61 961q0 188 86 289.5t254 101.5h656v-205h-123v-1270h-205v1270h-123v-1270h-205v721h-49q-136 0 -213.5 98t-77.5 265z" />
<glyph unicode="&#xb7;" horiz-adv-x="552" d="M82 614q0 86 54 140.5t138 54.5t140.5 -55t56.5 -140t-56.5 -139.5t-140.5 -54.5t-138 54t-54 140z" />
<glyph unicode="&#xb8;" horiz-adv-x="626" d="M82 -414l16 133q56 -10 103 -10q82 0 82 43q0 33 -45 33h-109l31 215h164v-92h24q160 0 160 -156q0 -90 -56.5 -138t-183.5 -48q-44 0 -90.5 5t-71.5 10z" />
<glyph unicode="&#xb9;" horiz-adv-x="493" d="M41 1384v132l223 159h158v-815h-246v524h-135z" />
<glyph unicode="&#xba;" horiz-adv-x="737" d="M61 842v69q0 151 85 236.5t212 85.5h21q127 0 212 -85.5t85 -236.5v-69q0 -151 -85 -236.5t-212 -85.5h-21q-127 0 -212 85.5t-85 236.5zM307 803q0 -78 62 -78q61 0 61 78v149q0 76 -61 76q-62 0 -62 -76v-149z" />
<glyph unicode="&#xbb;" horiz-adv-x="1064" d="M86 0l139 451l-139 450h233l222 -450l-222 -451h-233zM545 0l139 451l-139 450h233l221 -450l-221 -451h-233z" />
<glyph unicode="&#xbc;" horiz-adv-x="1515" d="M41 1061v131l223 160h158v-815h-246v524h-135zM188 -25l844 1401h240l-844 -1401h-240zM870 113v211l189 487h239l-186 -487h86l74 188h137v-188h88v-211h-88v-113h-246v113h-293z" />
<glyph unicode="&#xbd;" horiz-adv-x="1579" d="M41 1061v131l223 160h158v-815h-246v524h-135zM188 -25l844 1401h240l-844 -1401h-240zM975 0v147q0 44 21 84t46.5 66t79.5 74q115 100 134 122q26 31 26 60q0 70 -119 70q-27 0 -62.5 -7.5t-56.5 -15.5l-22 -8l-18 8q-11 110 -15 176q0 2 32 14t93 24.5t119 12.5 q134 0 214.5 -71.5t80.5 -182.5q0 -55 -11 -96t-41.5 -80.5t-52.5 -60.5t-77 -68l-48 -41q-10 -8 -10 -18v-4h228v-205h-541z" />
<glyph unicode="&#xbe;" horiz-adv-x="1538" d="M31 561l16 176l16 8q91 -16 142 -16q59 0 85.5 17.5t26.5 56.5q0 37 -24.5 53t-91.5 16h-92v164h122q74 3 74 64q0 31 -22 45t-82 14q-23 0 -54.5 -5.5t-52.5 -11.5l-20 -5l-17 8q-10 108 -16 176q106 43 229 43q140 0 210.5 -63.5t70.5 -159.5q0 -101 -70 -156v-4 q94 -65 94 -188q0 -269 -319 -269q-56 0 -112 9t-84 19zM242 -25l843 1401h240l-844 -1401h-239zM889 113v211l188 487h240l-187 -487h87l73 188h137v-188h89v-211h-89v-113h-245v113h-293z" />
<glyph unicode="&#xbf;" horiz-adv-x="884" d="M41 -10v20q0 124 54 208.5t175 152.5q11 6 20 13t15.5 12t11.5 14t8.5 12.5t6 15t4 14t2 16.5t0.5 16v19v19v10h348v-163q0 -87 -33 -131t-135 -101q-77 -45 -103 -70t-26 -57v-10q0 -41 37 -63.5t109 -22.5q46 0 100.5 10t85.5 20l31 9l28 -14q19 -127 27 -238 q0 -3 -42 -20t-130 -35.5t-180 -18.5q-414 0 -414 363zM317 829q0 85 56.5 140t140.5 55t138.5 -54.5t54.5 -140.5t-54.5 -140t-138.5 -54t-140.5 54.5t-56.5 139.5z" />
<glyph unicode="&#xc0;" horiz-adv-x="1091" d="M20 0l289 1352h473l289 -1352h-354l-37 205h-270l-35 -205h-355zM279 1659v102h296l154 -245l-20 -41h-195zM461 492h168l-31 174q-11 59 -20.5 146t-13.5 144l-3 58h-31q-15 -215 -38 -348z" />
<glyph unicode="&#xc1;" horiz-adv-x="1091" d="M20 0l289 1352h473l289 -1352h-354l-37 205h-270l-35 -205h-355zM444 1516l154 245h297v-102l-236 -184h-194zM461 492h168l-31 174q-11 59 -20.5 146t-13.5 144l-3 58h-31q-15 -215 -38 -348z" />
<glyph unicode="&#xc2;" horiz-adv-x="1091" d="M20 0l289 1352h473l289 -1352h-354l-37 205h-270l-35 -205h-355zM221 1536l185 225h286l185 -225l-21 -61h-174l-133 110l-133 -110h-174zM461 492h168l-31 174q-11 59 -20.5 146t-13.5 144l-3 58h-31q-15 -215 -38 -348z" />
<glyph unicode="&#xc3;" horiz-adv-x="1091" d="M20 0l289 1352h473l289 -1352h-354l-37 205h-270l-35 -205h-355zM164 1520q25 146 94 214t170 68q50 0 100 -25.5t90 -51t66 -25.5q20 0 34 4t34 28.5t34 69.5l148 -45q-25 -146 -90.5 -214t-159.5 -68q-50 0 -98.5 25.5t-88.5 51t-69 25.5q-18 0 -30.5 -2.5t-29.5 -11.5 t-31.5 -31t-25.5 -57zM461 492h168l-31 174q-11 59 -20.5 146t-13.5 144l-3 58h-31q-15 -215 -38 -348z" />
<glyph unicode="&#xc4;" horiz-adv-x="1091" d="M20 0l289 1352h473l289 -1352h-354l-37 205h-270l-35 -205h-355zM199 1618q0 60 41.5 101.5t101.5 41.5t101.5 -41.5t41.5 -101.5t-41.5 -101.5t-101.5 -41.5t-101.5 41.5t-41.5 101.5zM461 492h168l-31 174q-11 59 -20.5 146t-13.5 144l-3 58h-31q-15 -215 -38 -348z M604 1618q0 60 42 101.5t102 41.5t101.5 -41.5t41.5 -101.5t-41.5 -101.5t-101.5 -41.5t-102 41.5t-42 101.5z" />
<glyph unicode="&#xc5;" horiz-adv-x="1091" d="M20 0l283 1319v2q-41 56 -41 133q0 104 75 170t208 66t206.5 -65.5t73.5 -170.5q0 -74 -37 -129l283 -1325h-354l-37 205h-270l-35 -205h-355zM461 492h168l-31 174q-11 59 -20.5 146t-13.5 144l-3 58h-31q-15 -215 -38 -348zM465 1454q0 -33 22 -53.5t58 -20.5t57 20.5 t21 53.5t-21 53.5t-57 20.5t-58 -20.5t-22 -53.5z" />
<glyph unicode="&#xc6;" horiz-adv-x="1341" d="M20 0l318 1352h944v-287h-328v-246h267v-246h-267v-286h349v-287h-697v205h-192l-39 -205h-355zM469 492h137v532h-37q-34 -197 -63 -344z" />
<glyph unicode="&#xc7;" horiz-adv-x="886" d="M78 614v72q0 361 142.5 525.5t410.5 164.5q49 0 97.5 -6.5t72.5 -13.5l24 -6q-4 -50 -11 -115t-12 -105l-5 -40l-25 -13q-60 13 -115 13q-113 0 -167 -96t-54 -312v-43q0 -205 53 -291t166 -86q24 0 58 6t56 12l22 5l24 -13q25 -141 33 -254q-115 -39 -242 -43v-67h25 q160 0 160 -156q0 -90 -56.5 -138t-183.5 -48q-44 0 -90.5 5t-70.5 10l-25 5l16 133q55 -10 102 -10q82 0 82 43q0 33 -45 33h-108l28 205q-175 34 -268.5 181t-93.5 443z" />
<glyph unicode="&#xc8;" horiz-adv-x="837" d="M102 0v1352h676v-287h-327v-246h266v-246h-266v-286h348v-287h-697zM139 1659v102h297l154 -245l-21 -41h-194z" />
<glyph unicode="&#xc9;" horiz-adv-x="837" d="M102 0v1352h676v-287h-327v-246h266v-246h-266v-286h348v-287h-697zM291 1516l153 245h297v-102l-235 -184h-195z" />
<glyph unicode="&#xca;" horiz-adv-x="837" d="M102 0v1352h676v-287h-327v-246h266v-246h-266v-286h348v-287h-697zM123 1536l184 225h287l184 -225l-20 -61h-174l-133 110l-134 -110h-174z" />
<glyph unicode="&#xcb;" horiz-adv-x="837" d="M102 0v1352h676v-287h-327v-246h266v-246h-266v-286h348v-287h-697zM104 1618q0 60 42 101.5t102 41.5t101.5 -41.5t41.5 -101.5t-41.5 -101.5t-101.5 -41.5t-102 41.5t-42 101.5zM510 1618q0 60 41.5 101.5t101.5 41.5t102 -41.5t42 -101.5t-42 -101.5t-102 -41.5 t-101.5 41.5t-41.5 101.5z" />
<glyph unicode="&#xcc;" horiz-adv-x="552" d="M-14 1659v102h297l153 -245l-20 -41h-195zM102 0v1352h349v-1352h-349z" />
<glyph unicode="&#xcd;" horiz-adv-x="552" d="M98 1516l154 245h297v-102l-236 -184h-194zM102 0v1352h349v-1352h-349z" />
<glyph unicode="&#xce;" horiz-adv-x="552" d="M-47 1536l184 225h287l184 -225l-20 -61h-174l-133 110l-134 -110h-174zM102 0v1352h349v-1352h-349z" />
<glyph unicode="&#xcf;" horiz-adv-x="552" d="M-66 1618q0 60 42 101.5t102 41.5t101.5 -41.5t41.5 -101.5t-41.5 -101.5t-101.5 -41.5t-102 41.5t-42 101.5zM102 0v1352h349v-1352h-349zM340 1618q0 60 41.5 101.5t101.5 41.5t102 -41.5t42 -101.5t-42 -101.5t-102 -41.5t-101.5 41.5t-41.5 101.5z" />
<glyph unicode="&#xd0;" horiz-adv-x="1081" d="M0 532v246h102v574h435q467 0 467 -525v-364q0 -228 -104.5 -345.5t-301.5 -117.5h-496v532h-102zM451 287h61q70 0 106.5 39t36.5 155v332q0 82 -10.5 133t-36 77t-56 34t-81.5 8h-20v-287h102v-246h-102v-245z" />
<glyph unicode="&#xd1;" horiz-adv-x="1212" d="M102 0v1352h402l223 -615q6 -18 14.5 -54.5t13.5 -63.5l5 -27l16 2l-14 184v574h348v-1352h-401l-224 614q-6 18 -14 54t-13 63l-5 27l-17 -2l15 -183v-573h-349zM248 1520q25 146 94 214t170 68q50 0 100 -25.5t90 -51t66 -25.5q20 0 34 4t34 28.5t34 69.5l148 -45 q-25 -146 -90.5 -214t-159.5 -68q-50 0 -98.5 25.5t-88.5 51t-69 25.5q-18 0 -30.5 -2.5t-29.5 -11.5t-31.5 -31t-25.5 -57z" />
<glyph unicode="&#xd2;" horiz-adv-x="1077" d="M78 633v86q0 169 22 287.5t72.5 203.5t137 125.5t212.5 40.5h33q126 0 212.5 -40.5t137 -125.5t72.5 -203.5t22 -287.5v-86q0 -169 -22 -287.5t-72.5 -204t-137 -126t-212.5 -40.5h-33q-126 0 -212.5 40.5t-137 126t-72.5 204t-22 287.5zM236 1659v102h296l154 -245 l-20 -41h-195zM436 475q0 -112 25.5 -162.5t77.5 -50.5t77 50.5t25 162.5v404q0 112 -25 161.5t-77 49.5t-77.5 -49.5t-25.5 -161.5v-404z" />
<glyph unicode="&#xd3;" horiz-adv-x="1077" d="M78 633v86q0 169 22 287.5t72.5 203.5t137 125.5t212.5 40.5h33q126 0 212.5 -40.5t137 -125.5t72.5 -203.5t22 -287.5v-86q0 -169 -22 -287.5t-72.5 -204t-137 -126t-212.5 -40.5h-33q-126 0 -212.5 40.5t-137 126t-72.5 204t-22 287.5zM403 1516l154 245h297v-102 l-236 -184h-194zM436 475q0 -112 25.5 -162.5t77.5 -50.5t77 50.5t25 162.5v404q0 112 -25 161.5t-77 49.5t-77.5 -49.5t-25.5 -161.5v-404z" />
<glyph unicode="&#xd4;" horiz-adv-x="1077" d="M78 633v86q0 169 22 287.5t72.5 203.5t137 125.5t212.5 40.5h33q126 0 212.5 -40.5t137 -125.5t72.5 -203.5t22 -287.5v-86q0 -169 -22 -287.5t-72.5 -204t-137 -126t-212.5 -40.5h-33q-126 0 -212.5 40.5t-137 126t-72.5 204t-22 287.5zM209 1536l184 225h287l184 -225 l-20 -61h-174l-133 110l-134 -110h-174zM436 475q0 -112 25.5 -162.5t77.5 -50.5t77 50.5t25 162.5v404q0 112 -25 161.5t-77 49.5t-77.5 -49.5t-25.5 -161.5v-404z" />
<glyph unicode="&#xd5;" horiz-adv-x="1077" d="M78 633v86q0 169 22 287.5t72.5 203.5t137 125.5t212.5 40.5h33q126 0 212.5 -40.5t137 -125.5t72.5 -203.5t22 -287.5v-86q0 -169 -22 -287.5t-72.5 -204t-137 -126t-212.5 -40.5h-33q-126 0 -212.5 40.5t-137 126t-72.5 204t-22 287.5zM156 1520q25 146 94 214t170 68 q50 0 100 -25.5t90 -51t66 -25.5q20 0 34 4t34 28.5t34 69.5l148 -45q-25 -146 -90.5 -214t-159.5 -68q-50 0 -98.5 25.5t-88.5 51t-69 25.5q-18 0 -30.5 -2.5t-29.5 -11.5t-31.5 -31t-25.5 -57zM436 475q0 -112 25.5 -162.5t77.5 -50.5t77 50.5t25 162.5v404 q0 112 -25 161.5t-77 49.5t-77.5 -49.5t-25.5 -161.5v-404z" />
<glyph unicode="&#xd6;" horiz-adv-x="1077" d="M78 633v86q0 169 22 287.5t72.5 203.5t137 125.5t212.5 40.5h33q126 0 212.5 -40.5t137 -125.5t72.5 -203.5t22 -287.5v-86q0 -169 -22 -287.5t-72.5 -204t-137 -126t-212.5 -40.5h-33q-126 0 -212.5 40.5t-137 126t-72.5 204t-22 287.5zM190 1618q0 60 42 101.5 t102 41.5t101.5 -41.5t41.5 -101.5t-41.5 -101.5t-101.5 -41.5t-102 41.5t-42 101.5zM436 475q0 -112 25.5 -162.5t77.5 -50.5t77 50.5t25 162.5v404q0 112 -25 161.5t-77 49.5t-77.5 -49.5t-25.5 -161.5v-404zM596 1618q0 60 41.5 101.5t101.5 41.5t102 -41.5t42 -101.5 t-42 -101.5t-102 -41.5t-101.5 41.5t-41.5 101.5z" />
<glyph unicode="&#xd7;" d="M106 383l232 231l-232 232l175 174l231 -232l231 232l175 -174l-232 -232l232 -231l-175 -174l-231 231l-231 -231z" />
<glyph unicode="&#xd8;" horiz-adv-x="1077" d="M63 -12l97 174q-82 151 -82 471v86q0 169 22 287.5t72.5 203.5t137 125.5t212.5 40.5h33q151 0 246 -59l76 135l159 -88l-108 -197q71 -152 71 -448v-86q0 -169 -22 -287.5t-72.5 -204t-137 -126t-212.5 -40.5h-33q-140 0 -229 50l-70 -125zM436 657h13l20 60l162 293 q-19 80 -92 80q-54 0 -78.5 -41t-24.5 -150v-242zM455 315q22 -53 84 -53q54 0 78 41.5t24 151.5v198h-12l-21 -59z" />
<glyph unicode="&#xd9;" horiz-adv-x="1105" d="M102 479v873h349v-938q0 -80 25 -116t77 -36t77 36t25 116v938h349v-873q0 -262 -108.5 -383t-322.5 -121h-41q-214 0 -322 121t-108 383zM229 1659v102h297l154 -245l-21 -41h-194z" />
<glyph unicode="&#xda;" horiz-adv-x="1105" d="M102 479v873h349v-938q0 -80 25 -116t77 -36t77 36t25 116v938h349v-873q0 -262 -108.5 -383t-322.5 -121h-41q-214 0 -322 121t-108 383zM432 1516l154 245h297v-102l-236 -184h-194z" />
<glyph unicode="&#xdb;" horiz-adv-x="1105" d="M102 479v873h349v-938q0 -80 25 -116t77 -36t77 36t25 116v938h349v-873q0 -262 -108.5 -383t-322.5 -121h-41q-214 0 -322 121t-108 383zM227 1536l185 225h286l185 -225l-21 -61h-174l-133 110l-133 -110h-174z" />
<glyph unicode="&#xdc;" horiz-adv-x="1105" d="M102 479v873h349v-938q0 -80 25 -116t77 -36t77 36t25 116v938h349v-873q0 -262 -108.5 -383t-322.5 -121h-41q-214 0 -322 121t-108 383zM207 1618q0 60 41.5 101.5t101.5 41.5t102 -41.5t42 -101.5t-42 -101.5t-102 -41.5t-101.5 41.5t-41.5 101.5zM612 1618 q0 60 42 101.5t102 41.5t101.5 -41.5t41.5 -101.5t-41.5 -101.5t-101.5 -41.5t-102 41.5t-42 101.5z" />
<glyph unicode="&#xdd;" horiz-adv-x="1118" d="M20 1352h373l107 -293q12 -34 24 -104t18 -123l7 -54h20q22 205 49 279l109 295h371l-365 -965v-387h-348v389zM436 1516l154 245h297v-102l-236 -184h-194z" />
<glyph unicode="&#xde;" horiz-adv-x="1042" d="M102 0v1352h349v-205h106q216 0 321 -107t105 -335v-99q0 -203 -94.5 -302t-270.5 -99h-167v-205h-349zM451 451h61q123 0 123 153v86q0 170 -143 170h-41v-409z" />
<glyph unicode="&#xdf;" horiz-adv-x="1157" d="M72 0v1065q0 115 35 202t98.5 141t148 81t189.5 27q212 0 336.5 -94.5t124.5 -274.5q0 -66 -15 -116t-32 -75.5t-56 -74.5q-20 -25 -27 -35t-13.5 -25.5t-6.5 -32.5q0 -25 9 -38.5t30 -26.5l45 -31q94 -62 136 -135t42 -188q0 -193 -93.5 -293.5t-305.5 -100.5 q-40 0 -82 1.5t-62 3t-20 0.5v270l31 16q39 -4 92 -4t82.5 31t29.5 86q0 69 -73 113l-33 18q-92 52 -122.5 108.5t-33.5 149.5q-1 48 11 87.5t25 60.5t42 59q7 10 20 26t18.5 23t13.5 20.5t11.5 23.5t6 25t2.5 33q0 43 -31 73t-92 30q-65 0 -99 -44t-34 -130v-1055h-348z " />
<glyph unicode="&#xe0;" horiz-adv-x="1015" d="M41 274v54q0 276 266 307l246 31v10q0 67 -44 97t-167 30q-42 0 -92 -4.5t-80 -8.5l-29 -4l-30 21q0 20 19 125t30 141l31 3q31 4 91 9t117 5q270 0 386 -99t116 -311v-338q0 -34 12 -51t45 -23l43 -6l15 -33l-41 -182q-7 -8 -20 -20t-60 -32t-102 -20q-147 0 -211 121 h-13q-99 -121 -247 -121q-127 0 -204 85.5t-77 213.5zM190 1372v103h297l154 -246l-20 -41h-195zM389 328q0 -39 22 -62.5t60 -23.5q48 0 82 34v222l-84 -33q-80 -30 -80 -100v-37z" />
<glyph unicode="&#xe1;" horiz-adv-x="1015" d="M41 274v54q0 276 266 307l246 31v10q0 67 -44 97t-167 30q-42 0 -92 -4.5t-80 -8.5l-29 -4l-30 21q0 20 19 125t30 141l31 3q31 4 91 9t117 5q270 0 386 -99t116 -311v-338q0 -34 12 -51t45 -23l43 -6l15 -33l-41 -182q-7 -8 -20 -20t-60 -32t-102 -20q-147 0 -211 121 h-13q-99 -121 -247 -121q-127 0 -204 85.5t-77 213.5zM330 1229l153 246h297v-103l-235 -184h-195zM389 328q0 -39 22 -62.5t60 -23.5q48 0 82 34v222l-84 -33q-80 -30 -80 -100v-37z" />
<glyph unicode="&#xe2;" horiz-adv-x="1015" d="M41 274v54q0 276 266 307l246 31v10q0 67 -44 97t-167 30q-42 0 -92 -4.5t-80 -8.5l-29 -4l-30 21q0 20 19 125t30 141l31 3q31 4 91 9t117 5q270 0 386 -99t116 -311v-338q0 -34 12 -51t45 -23l43 -6l15 -33l-41 -182q-7 -8 -20 -20t-60 -32t-102 -20q-147 0 -211 121 h-13q-99 -121 -247 -121q-127 0 -204 85.5t-77 213.5zM168 1249l184 226h287l184 -226l-20 -61h-174l-133 110l-134 -110h-174zM389 328q0 -39 22 -62.5t60 -23.5q48 0 82 34v222l-84 -33q-80 -30 -80 -100v-37z" />
<glyph unicode="&#xe3;" horiz-adv-x="1015" d="M41 274v54q0 276 266 307l246 31v10q0 67 -44 97t-167 30q-42 0 -92 -4.5t-80 -8.5l-29 -4l-30 21q0 20 19 125t30 141l31 3q31 4 91 9t117 5q270 0 386 -99t116 -311v-338q0 -34 12 -51t45 -23l43 -6l15 -33l-41 -182q-7 -8 -20 -20t-60 -32t-102 -20q-147 0 -211 121 h-13q-99 -121 -247 -121q-127 0 -204 85.5t-77 213.5zM82 1233q25 146 94 214.5t170 68.5q50 0 100 -26t90 -51.5t66 -25.5q20 0 34.5 4.5t34.5 29t34 69.5l147 -46q-25 -146 -90.5 -214t-159.5 -68q-50 0 -98.5 25.5t-88.5 51t-69 25.5q-18 0 -30.5 -2.5t-29.5 -11.5 t-31.5 -31t-25.5 -57zM389 328q0 -39 22 -62.5t60 -23.5q48 0 82 34v222l-84 -33q-80 -30 -80 -100v-37z" />
<glyph unicode="&#xe4;" horiz-adv-x="1015" d="M41 274v54q0 276 266 307l246 31v10q0 67 -44 97t-167 30q-42 0 -92 -4.5t-80 -8.5l-29 -4l-30 21q0 20 19 125t30 141l31 3q31 4 91 9t117 5q270 0 386 -99t116 -311v-338q0 -34 12 -51t45 -23l43 -6l15 -33l-41 -182q-7 -8 -20 -20t-60 -32t-102 -20q-147 0 -211 121 h-13q-99 -121 -247 -121q-127 0 -204 85.5t-77 213.5zM145 1331q0 60 42 102t102 42t101.5 -42t41.5 -102t-41.5 -101.5t-101.5 -41.5t-102 41.5t-42 101.5zM389 328q0 -39 22 -62.5t60 -23.5q48 0 82 34v222l-84 -33q-80 -30 -80 -100v-37zM551 1331q0 60 41.5 102 t101.5 42t102 -42t42 -102t-42 -101.5t-102 -41.5t-101.5 41.5t-41.5 101.5z" />
<glyph unicode="&#xe5;" horiz-adv-x="1015" d="M41 274v54q0 276 266 307l246 31v10q0 67 -44 97t-167 30q-42 0 -92 -4.5t-80 -8.5l-29 -4l-30 21q0 20 19 125t30 141l31 3q31 4 91 9t117 5q270 0 386 -99t116 -311v-338q0 -34 12 -51t45 -23l43 -6l15 -33l-41 -182q-7 -8 -20 -20t-60 -32t-102 -20q-147 0 -211 121 h-13q-99 -121 -247 -121q-127 0 -204 85.5t-77 213.5zM236 1378q0 95 67.5 155t188.5 60t188.5 -60t67.5 -155t-67.5 -155t-188.5 -60t-188.5 60t-67.5 155zM389 328q0 -39 22 -62.5t60 -23.5q48 0 82 34v222l-84 -33q-80 -30 -80 -100v-37zM420 1378q0 -30 19.5 -48.5 t52.5 -18.5t52 18.5t19 48.5t-19 49t-52 19t-52.5 -19t-19.5 -49z" />
<glyph unicode="&#xe6;" horiz-adv-x="1413" d="M41 274v54q0 277 266 307l225 29v12q0 67 -43.5 97t-166.5 30q-42 0 -92 -4.5t-80 -8.5l-29 -4l-31 21q0 20 19 125t30 141l31 3q31 4 91.5 9t117.5 5q221 0 342 -70q103 70 237 70h35q186 0 282.5 -110t96.5 -323v-34q0 -32 -4.5 -78t-9.5 -75l-4 -30h-473v-63 q1 -40 16.5 -64t56.5 -37.5t113 -13.5q37 0 91.5 10t89.5 20l36 9l29 -14q18 -127 26 -238q0 -3 -42 -20t-130 -35.5t-180 -18.5q-245 0 -354 142h-12q-106 -142 -293 -142q-132 0 -209.5 83.5t-77.5 215.5zM389 328q0 -41 23 -63.5t57 -22.5q49 0 86 37q-23 88 -23 210 l-63 -24q-80 -31 -80 -100v-37zM881 625h163v149q0 90 -69 90q-36 0 -65 -30.5t-29 -100.5v-108z" />
<glyph unicode="&#xe7;" horiz-adv-x="770" d="M41 502v30q0 157 29.5 265.5t89.5 172.5t143 92t199 28q56 0 109.5 -8t79.5 -16l26 -7q-4 -50 -11 -115t-12 -105l-6 -40l-24 -13q-74 17 -129 17q-36 0 -60 -10t-45 -38t-31 -84t-10 -143v-22q0 -80 10.5 -130.5t33 -74.5t47 -31.5t63.5 -7.5q24 0 59 7t58 13l22 7 l25 -13q24 -140 32 -253q-11 -5 -32 -13t-82 -21t-119 -14v-67h24q160 0 160 -156q0 -91 -56 -138.5t-183 -47.5q-44 0 -91 5t-72 10l-24 5l17 133q55 -10 102 -10q82 0 82 43q0 33 -45 33h-109l29 205q-102 19 -166 73t-98.5 162.5t-34.5 276.5z" />
<glyph unicode="&#xe8;" horiz-adv-x="921" d="M41 502v73q0 241 116.5 378t309.5 137h35q186 0 282.5 -110t96.5 -323v-34q0 -32 -4.5 -78t-9.5 -75l-5 -30h-473v-51q0 -68 38 -97.5t148 -29.5q37 0 91.5 10t90.5 20l36 9l28 -14q19 -127 27 -238q0 -3 -42 -20t-130 -35.5t-180 -18.5q-230 0 -342.5 128.5 t-112.5 398.5zM168 1372v103h297l153 -246l-20 -41h-195zM389 625h164v149q0 90 -70 90q-36 0 -65 -30.5t-29 -100.5v-108z" />
<glyph unicode="&#xe9;" horiz-adv-x="921" d="M41 502v73q0 241 116.5 378t309.5 137h35q186 0 282.5 -110t96.5 -323v-34q0 -32 -4.5 -78t-9.5 -75l-5 -30h-473v-51q0 -68 38 -97.5t148 -29.5q37 0 91.5 10t90.5 20l36 9l28 -14q19 -127 27 -238q0 -3 -42 -20t-130 -35.5t-180 -18.5q-230 0 -342.5 128.5 t-112.5 398.5zM330 1229l153 246h297v-103l-235 -184h-195zM389 625h164v149q0 90 -70 90q-36 0 -65 -30.5t-29 -100.5v-108z" />
<glyph unicode="&#xea;" horiz-adv-x="921" d="M41 502v73q0 241 116.5 378t309.5 137h35q186 0 282.5 -110t96.5 -323v-34q0 -32 -4.5 -78t-9.5 -75l-5 -30h-473v-51q0 -68 38 -97.5t148 -29.5q37 0 91.5 10t90.5 20l36 9l28 -14q19 -127 27 -238q0 -3 -42 -20t-130 -35.5t-180 -18.5q-230 0 -342.5 128.5 t-112.5 398.5zM152 1249l184 226h287l184 -226l-21 -61h-174l-133 110l-133 -110h-174zM389 625h164v149q0 90 -70 90q-36 0 -65 -30.5t-29 -100.5v-108z" />
<glyph unicode="&#xeb;" horiz-adv-x="921" d="M41 502v73q0 241 116.5 378t309.5 137h35q186 0 282.5 -110t96.5 -323v-34q0 -32 -4.5 -78t-9.5 -75l-5 -30h-473v-51q0 -68 38 -97.5t148 -29.5q37 0 91.5 10t90.5 20l36 9l28 -14q19 -127 27 -238q0 -3 -42 -20t-130 -35.5t-180 -18.5q-230 0 -342.5 128.5 t-112.5 398.5zM139 1331q0 60 42 102t102 42t101.5 -42t41.5 -102t-41.5 -101.5t-101.5 -41.5t-102 41.5t-42 101.5zM389 625h164v149q0 90 -70 90q-36 0 -65 -30.5t-29 -100.5v-108zM545 1331q0 60 41.5 102t101.5 42t101.5 -42t41.5 -102t-41.5 -101.5t-101.5 -41.5 t-101.5 41.5t-41.5 101.5z" />
<glyph unicode="&#xec;" horiz-adv-x="491" d="M-51 1372v103h297l153 -246l-20 -41h-195zM72 0v1065h348v-1065h-348z" />
<glyph unicode="&#xed;" horiz-adv-x="491" d="M72 0v1065h348v-1065h-348zM92 1229l154 246h297v-103l-236 -184h-194z" />
<glyph unicode="&#xee;" horiz-adv-x="491" d="M-82 1249l184 226h287l184 -226l-20 -61h-174l-133 110l-133 -110h-174zM72 0v1065h348v-1065h-348z" />
<glyph unicode="&#xef;" horiz-adv-x="491" d="M-100 1331q0 60 41.5 102t101.5 42t101.5 -42t41.5 -102t-41.5 -101.5t-101.5 -41.5t-101.5 41.5t-41.5 101.5zM72 0v1065h348v-1065h-348zM305 1331q0 60 42 102t102 42t101.5 -42t41.5 -102t-41.5 -101.5t-101.5 -41.5t-102 41.5t-42 101.5z" />
<glyph unicode="&#xf0;" horiz-adv-x="962" d="M41 489v66q0 247 99.5 370.5t262.5 123.5q35 0 75 -8.5t62 -17.5l23 -9l10 6q-13 86 -61 154l-260 -105l-66 170l170 68q-59 29 -110 41l-41 10l31 158q235 0 391 -101l221 90l65 -170l-137 -55q146 -193 146 -504v-287q0 -241 -115.5 -377.5t-308.5 -136.5h-33 q-193 0 -308.5 136.5t-115.5 377.5zM389 369q0 -67 25.5 -97t66.5 -30t66.5 30t25.5 97v309q0 125 -92 125t-92 -125v-309z" />
<glyph unicode="&#xf1;" horiz-adv-x="1044" d="M72 0v1065h204l101 -121q64 65 138 105.5t175 40.5q130 0 206.5 -82t76.5 -217v-791h-348v731q0 72 -82 72q-50 0 -123 -35v-768h-348zM127 1233q25 146 94 214.5t170 68.5q50 0 100 -26t90 -51.5t66 -25.5q20 0 34.5 4.5t34.5 29t34 69.5l147 -46q-25 -146 -90.5 -214 t-159.5 -68q-50 0 -98.5 25.5t-88.5 51t-69 25.5q-18 0 -30.5 -2.5t-29.5 -11.5t-31.5 -31t-25.5 -57z" />
<glyph unicode="&#xf2;" horiz-adv-x="962" d="M41 489v86q0 241 115.5 378t308.5 137h33q193 0 308.5 -137t115.5 -378v-86q0 -241 -115.5 -377.5t-308.5 -136.5h-33q-193 0 -308.5 136.5t-115.5 377.5zM186 1372v103h297l154 -246l-21 -41h-194zM389 369q0 -67 25.5 -97t66.5 -30t66.5 30t25.5 97v329q0 125 -92 125 t-92 -125v-329z" />
<glyph unicode="&#xf3;" horiz-adv-x="962" d="M41 489v86q0 241 115.5 378t308.5 137h33q193 0 308.5 -137t115.5 -378v-86q0 -241 -115.5 -377.5t-308.5 -136.5h-33q-193 0 -308.5 136.5t-115.5 377.5zM330 1229l153 246h297v-103l-235 -184h-195zM389 369q0 -67 25.5 -97t66.5 -30t66.5 30t25.5 97v329 q0 125 -92 125t-92 -125v-329z" />
<glyph unicode="&#xf4;" horiz-adv-x="962" d="M41 489v86q0 241 115.5 378t308.5 137h33q193 0 308.5 -137t115.5 -378v-86q0 -241 -115.5 -377.5t-308.5 -136.5h-33q-193 0 -308.5 136.5t-115.5 377.5zM154 1249l184 226h287l184 -226l-21 -61h-174l-133 110l-133 -110h-174zM389 369q0 -67 25.5 -97t66.5 -30 t66.5 30t25.5 97v329q0 125 -92 125t-92 -125v-329z" />
<glyph unicode="&#xf5;" horiz-adv-x="962" d="M41 489v86q0 241 115.5 378t308.5 137h33q193 0 308.5 -137t115.5 -378v-86q0 -241 -115.5 -377.5t-308.5 -136.5h-33q-193 0 -308.5 136.5t-115.5 377.5zM96 1233q25 146 94 214.5t170 68.5q50 0 100 -26t90 -51.5t66 -25.5q20 0 34.5 4.5t34.5 29t34 69.5l147 -46 q-25 -146 -90.5 -214t-159.5 -68q-50 0 -98.5 25.5t-88.5 51t-69 25.5q-18 0 -30 -2.5t-29.5 -11.5t-31.5 -31t-25 -57zM389 369q0 -67 25.5 -97t66.5 -30t66.5 30t25.5 97v329q0 125 -92 125t-92 -125v-329z" />
<glyph unicode="&#xf6;" horiz-adv-x="962" d="M41 489v86q0 241 115.5 378t308.5 137h33q193 0 308.5 -137t115.5 -378v-86q0 -241 -115.5 -377.5t-308.5 -136.5h-33q-193 0 -308.5 136.5t-115.5 377.5zM135 1331q0 60 42 102t102 42t101.5 -42t41.5 -102t-41.5 -101.5t-101.5 -41.5t-102 41.5t-42 101.5zM389 369 q0 -67 25.5 -97t66.5 -30t66.5 30t25.5 97v329q0 125 -92 125t-92 -125v-329zM541 1331q0 60 41.5 102t101.5 42t101.5 -42t41.5 -102t-41.5 -101.5t-101.5 -41.5t-101.5 41.5t-41.5 101.5z" />
<glyph unicode="&#xf7;" d="M102 492v245h820v-245h-820zM360 256q0 67 43.5 110.5t108.5 43.5q67 0 111.5 -43.5t44.5 -110.5t-44.5 -110.5t-111.5 -43.5q-65 0 -108.5 43.5t-43.5 110.5zM360 973q0 67 43.5 110t108.5 43q67 0 111.5 -43t44.5 -110t-44.5 -110.5t-111.5 -43.5q-65 0 -108.5 43.5 t-43.5 110.5z" />
<glyph unicode="&#xf8;" horiz-adv-x="962" d="M41 489v86q0 241 115.5 378t308.5 137h33q97 0 180 -39l65 116l160 -88l-82 -147q101 -138 101 -357v-86q0 -241 -115.5 -377.5t-308.5 -136.5h-33q-81 0 -160 29l-57 -104l-160 88l68 123q-115 137 -115 378zM369 471h16l21 59l141 277q-29 16 -66 16q-55 0 -83.5 -28.5 t-28.5 -96.5v-227zM434 248q21 -6 47 -6q55 0 84 29t29 98v176h-16l-21 -60z" />
<glyph unicode="&#xf9;" horiz-adv-x="1107" d="M72 336v729h348v-705q0 -98 102 -98q51 0 103 31v772h348v-723q0 -34 12 -51t45 -23l43 -6l14 -33l-40 -182q-2 -3 -7 -8t-22 -17t-36.5 -21.5t-51.5 -17.5t-66 -8q-147 0 -211 121h-12q-46 -51 -114.5 -86t-145.5 -35q-142 0 -225.5 89.5t-83.5 271.5zM217 1372v103h297 l154 -246l-21 -41h-194z" />
<glyph unicode="&#xfa;" horiz-adv-x="1107" d="M72 336v729h348v-705q0 -98 102 -98q51 0 103 31v772h348v-723q0 -34 12 -51t45 -23l43 -6l14 -33l-40 -182q-2 -3 -7 -8t-22 -17t-36.5 -21.5t-51.5 -17.5t-66 -8q-147 0 -211 121h-12q-46 -51 -114.5 -86t-145.5 -35q-142 0 -225.5 89.5t-83.5 271.5zM399 1229l154 246 h297v-103l-236 -184h-194z" />
<glyph unicode="&#xfb;" horiz-adv-x="1107" d="M72 336v729h348v-705q0 -98 102 -98q51 0 103 31v772h348v-723q0 -34 12 -51t45 -23l43 -6l14 -33l-40 -182q-2 -3 -7 -8t-22 -17t-36.5 -21.5t-51.5 -17.5t-66 -8q-147 0 -211 121h-12q-46 -51 -114.5 -86t-145.5 -35q-142 0 -225.5 89.5t-83.5 271.5zM201 1249l184 226 h287l184 -226l-20 -61h-174l-134 110l-133 -110h-174z" />
<glyph unicode="&#xfc;" horiz-adv-x="1107" d="M72 336v729h348v-705q0 -98 102 -98q51 0 103 31v772h348v-723q0 -34 12 -51t45 -23l43 -6l14 -33l-40 -182q-2 -3 -7 -8t-22 -17t-36.5 -21.5t-51.5 -17.5t-66 -8q-147 0 -211 121h-12q-46 -51 -114.5 -86t-145.5 -35q-142 0 -225.5 89.5t-83.5 271.5zM180 1331 q0 60 42 102t102 42t101.5 -42t41.5 -102t-41.5 -101.5t-101.5 -41.5t-102 41.5t-42 101.5zM586 1331q0 60 41.5 102t101.5 42t101.5 -42t41.5 -102t-41.5 -101.5t-101.5 -41.5t-101.5 41.5t-41.5 101.5z" />
<glyph unicode="&#xfd;" horiz-adv-x="1067" d="M20 1065h336l142 -422l30 -199h17l33 199l127 422h342l-367 -1223q-44 -150 -108.5 -213t-186.5 -63q-59 0 -119.5 11t-91.5 23l-31 11l31 223l35 33q47 -14 70 -14q33 0 54.5 22t35.5 70l16 55zM438 1229l154 246h297v-103l-236 -184h-194z" />
<glyph unicode="&#xfe;" horiz-adv-x="1034" d="M72 -410v1844h348v-426h2q105 82 225 82q170 0 258 -127t88 -410v-61q0 -261 -91 -389t-247 -128q-129 0 -231 78h-4v-463h-348zM420 254q46 -12 92 -12q43 0 70.5 22.5t45 87t17.5 174.5v23q0 145 -27 199.5t-96 54.5q-45 0 -102 -17v-532z" />
<glyph unicode="&#xff;" horiz-adv-x="1067" d="M20 1065h336l142 -422l30 -199h17l33 199l127 422h342l-367 -1223q-44 -150 -108.5 -213t-186.5 -63q-59 0 -119.5 11t-91.5 23l-31 11l31 223l35 33q47 -14 70 -14q33 0 54.5 22t35.5 70l16 55zM193 1331q0 60 41.5 102t101.5 42t101.5 -42t41.5 -102t-41.5 -101.5 t-101.5 -41.5t-101.5 41.5t-41.5 101.5zM598 1331q0 60 41.5 102t101.5 42t102 -42t42 -102t-42 -101.5t-102 -41.5t-101.5 41.5t-41.5 101.5z" />
<glyph unicode="&#x152;" horiz-adv-x="1376" d="M78 633v86q0 169 22 287.5t72.5 203.5t137 125.5t212.5 40.5h33q97 0 170 -24h592v-287h-338l-12 -12q24 -102 30 -234h258v-246h-258q-3 -159 -30 -276l12 -10h358v-287h-612q-77 -25 -170 -25h-33q-126 0 -212.5 40.5t-137 126t-72.5 204t-22 287.5zM436 475 q0 -112 25.5 -162.5t77.5 -50.5q96 0 102 191v448q-3 99 -28.5 144t-73.5 45q-52 0 -77.5 -49.5t-25.5 -161.5v-404z" />
<glyph unicode="&#x153;" horiz-adv-x="1454" d="M41 489v86q0 241 115.5 378t308.5 137h33q143 0 250 -80q107 80 251 80h35q186 0 282.5 -110t96.5 -323v-34q0 -32 -4.5 -78t-8.5 -75l-5 -30h-473v-51q0 -68 38 -97.5t148 -29.5q37 0 91.5 10t90.5 20l35 9l29 -14q18 -127 26 -238q0 -3 -42 -20t-130 -35.5t-180 -18.5 q-180 0 -287 76q-98 -76 -243 -76h-33q-193 0 -308.5 136.5t-115.5 377.5zM389 369q0 -67 25.5 -97t66.5 -30t66.5 30t25.5 97v329q0 125 -92 125t-92 -125v-329zM922 625h163v149q0 90 -69 90q-36 0 -65 -30.5t-29 -100.5v-108z" />
<glyph unicode="&#x178;" horiz-adv-x="1118" d="M20 1352h373l107 -293q12 -34 24 -104t18 -123l7 -54h20q22 205 49 279l109 295h371l-365 -965v-387h-348v389zM213 1618q0 60 41.5 101.5t101.5 41.5t102 -41.5t42 -101.5t-42 -101.5t-102 -41.5t-101.5 41.5t-41.5 101.5zM618 1618q0 60 42 101.5t102 41.5t101.5 -41.5 t41.5 -101.5t-41.5 -101.5t-101.5 -41.5t-102 41.5t-42 101.5z" />
<glyph unicode="&#x2c6;" horiz-adv-x="1705" d="M492 1249l184 226h287l184 -226l-21 -61h-174l-133 110l-133 -110h-174z" />
<glyph unicode="&#x2dc;" horiz-adv-x="974" d="M102 1233q25 146 94.5 214.5t170.5 68.5q50 0 100 -26t90 -51.5t66 -25.5q15 0 25.5 2.5t25 12t27.5 31.5t24 57l147 -46q-49 -282 -249 -282q-50 0 -98.5 25.5t-88.5 51t-69 25.5q-18 0 -30.5 -2.5t-29.5 -11.5t-31.5 -31t-25.5 -57z" />
<glyph unicode="&#x2000;" horiz-adv-x="901" />
<glyph unicode="&#x2001;" horiz-adv-x="1802" />
<glyph unicode="&#x2002;" horiz-adv-x="901" />
<glyph unicode="&#x2003;" horiz-adv-x="1802" />
<glyph unicode="&#x2004;" horiz-adv-x="600" />
<glyph unicode="&#x2005;" horiz-adv-x="450" />
<glyph unicode="&#x2006;" horiz-adv-x="300" />
<glyph unicode="&#x2007;" horiz-adv-x="300" />
<glyph unicode="&#x2008;" horiz-adv-x="225" />
<glyph unicode="&#x2009;" horiz-adv-x="360" />
<glyph unicode="&#x200a;" horiz-adv-x="100" />
<glyph unicode="&#x2010;" horiz-adv-x="684" d="M86 492v245h512v-245h-512z" />
<glyph unicode="&#x2011;" horiz-adv-x="684" d="M86 492v245h512v-245h-512z" />
<glyph unicode="&#x2012;" horiz-adv-x="684" d="M86 492v245h512v-245h-512z" />
<glyph unicode="&#x2013;" d="M102 492v245h820v-245h-820z" />
<glyph unicode="&#x2014;" horiz-adv-x="1515" d="M92 492v245h1331v-245h-1331z" />
<glyph unicode="&#x2018;" horiz-adv-x="552" d="M82 973q0 113 113 266l143 195h113v-41l-84 -236v-8q50 -23 77 -69t27 -107q0 -86 -54 -140.5t-138 -54.5q-85 0 -141 54t-56 141z" />
<glyph unicode="&#x2019;" horiz-adv-x="552" d="M82 1239q0 86 54 140.5t138 54.5q85 0 141 -54t56 -141q0 -113 -113 -266l-143 -195h-113v41l84 236v8q-50 23 -77 69t-27 107z" />
<glyph unicode="&#x201a;" horiz-adv-x="552" d="M82 174q0 86 54 140.5t138 54.5q85 0 141 -54t56 -141q0 -113 -113 -266l-143 -195h-113v41l84 236v8q-50 23 -77 69t-27 107z" />
<glyph unicode="&#x201c;" d="M82 973q0 113 113 266l143 195h113v-41l-84 -236v-8q50 -23 77 -69t27 -107q0 -86 -54 -140.5t-138 -54.5q-85 0 -141 54t-56 141zM553 973q0 113 113 266l143 195h113v-41l-84 -236v-8q50 -23 77 -69t27 -107q0 -86 -54 -140.5t-138 -54.5q-85 0 -141 54t-56 141z" />
<glyph unicode="&#x201d;" d="M82 1239q0 86 54 140.5t138 54.5q85 0 141 -54t56 -141q0 -113 -113 -266l-143 -195h-113v41l84 236v8q-50 23 -77 69t-27 107zM553 1239q0 86 54 140.5t138 54.5q85 0 141 -54t56 -141q0 -113 -113 -266l-143 -195h-113v41l84 236v8q-50 23 -77 69t-27 107z" />
<glyph unicode="&#x201e;" d="M82 174q0 86 54 140.5t138 54.5q85 0 141 -54t56 -141q0 -113 -113 -266l-143 -195h-113v41l84 236v8q-50 23 -77 69t-27 107zM553 174q0 86 54 140.5t138 54.5q85 0 141 -54t56 -141q0 -113 -113 -266l-143 -195h-113v41l84 236v8q-50 23 -77 69t-27 107z" />
<glyph unicode="&#x2022;" horiz-adv-x="745" d="M96 676q0 119 78.5 196.5t196.5 77.5t198 -77.5t80 -196.5q0 -121 -80 -200t-198 -79t-196.5 79t-78.5 200z" />
<glyph unicode="&#x2026;" horiz-adv-x="1720" d="M154 174q0 86 54 140.5t138 54.5t140.5 -55t56.5 -140t-56.5 -139.5t-140.5 -54.5t-138 54t-54 140zM666 174q0 86 54 140.5t138 54.5t140.5 -55t56.5 -140t-56.5 -139.5t-140.5 -54.5t-138 54t-54 140zM1178 174q0 86 54 140.5t138 54.5t140.5 -55t56.5 -140 t-56.5 -139.5t-140.5 -54.5t-138 54t-54 140z" />
<glyph unicode="&#x202f;" horiz-adv-x="360" />
<glyph unicode="&#x2039;" horiz-adv-x="606" d="M66 451l221 450h233l-139 -450l139 -451h-233z" />
<glyph unicode="&#x203a;" horiz-adv-x="606" d="M86 0l139 451l-139 450h233l222 -450l-222 -451h-233z" />
<glyph unicode="&#x205f;" horiz-adv-x="450" />
<glyph unicode="&#x20ac;" horiz-adv-x="1015" d="M20 399l82 205h72v82h-154l82 205h88q39 234 169.5 337t367.5 103q60 0 122 -7.5t94 -15.5l32 -8l-41 -256l-25 -12q-77 12 -151 12q-88 0 -137 -34t-70 -119h362l-28 -205h-353v-82h342l-28 -205h-297q19 -78 66.5 -107.5t136.5 -29.5q24 0 63 6t65 12l27 5l25 -13 q25 -141 33 -254q-148 -43 -283 -43q-111 0 -191 19t-145.5 65.5t-105 130.5t-56.5 209h-164z" />
<glyph unicode="&#x2122;" horiz-adv-x="1175" d="M41 1208v144h389v-144h-102v-532h-185v532h-102zM492 676v676h239l47 -164l25 -123h20q15 82 25 123l47 164h240v-676h-185v225l6 123l-20 2l-18 -94l-68 -236h-74l-67 236l-17 94l-20 -2l4 -123v-225h-184z" />
<glyph unicode="&#xe000;" horiz-adv-x="1064" d="M0 0v1065h1065v-1065h-1065z" />
</font>
</defs>
</svg>
