<svg width="24" height="25" viewBox="0 0 24 25" fill="none" xmlns="http://www.w3.org/2000/svg">
<g clip-path="url(#clip0_1119_7099)">
<path d="M6.49966 22.2436H1.49966V9.24359H6.49966V22.2436ZM3.98966 7.24359H3.96066C2.44966 7.24359 1.47266 6.06159 1.47266 4.76259C1.47266 3.43359 2.48066 2.35059 4.01966 2.35059C5.56066 2.35059 6.50766 3.46859 6.53866 4.79759C6.53766 6.09759 5.56066 7.24359 3.98966 7.24359ZM15.4997 13.2436C14.3947 13.2436 13.4997 14.1396 13.4997 15.2436V22.2436H8.49966C8.49966 22.2436 8.55866 10.2436 8.49966 9.24359H13.4997V10.7286C13.4997 10.7286 15.0477 9.28559 17.4377 9.28559C20.3997 9.28559 22.4997 11.4296 22.4997 15.5896V22.2436H17.4997V15.2436C17.4997 14.1396 16.6037 13.2436 15.4997 13.2436Z" stroke="#FFD25F" stroke-miterlimit="10" stroke-linejoin="round"/>
</g>
<defs>
<clipPath id="clip0_1119_7099">
<rect width="24" height="24" fill="white" transform="translate(0 0.743164)"/>
</clipPath>
</defs>
</svg>
