<svg width="24" height="25" viewBox="0 0 24 25" fill="none" xmlns="http://www.w3.org/2000/svg">
<g clip-path="url(#clip0_1119_7038)">
<path d="M8.58605 8.64539C9.48805 7.74239 9.48805 6.27739 8.58605 5.37439L6.13205 2.92139C5.22905 2.01839 3.76405 2.01839 2.86105 2.92139L1.51605 4.26639C0.34805 5.43439 0.167049 7.25539 1.07705 8.63239C4.98605 14.5424 10.201 19.7574 16.111 23.6664C17.486 24.5754 19.312 24.3944 20.476 23.2284L21.8221 21.8824C22.7251 20.9794 22.7251 19.5144 21.8221 18.6114L19.369 16.1584C18.467 15.2544 17.002 15.2544 16.098 16.1584L15.281 16.9754C12.591 14.7714 9.97205 12.1524 7.76805 9.46139L8.58605 8.64539Z" stroke="#FFD25F" stroke-miterlimit="10" stroke-linecap="round" stroke-linejoin="round"/>
</g>
<defs>
<clipPath id="clip0_1119_7038">
<rect width="24" height="24" fill="white" transform="translate(0 0.743164)"/>
</clipPath>
</defs>
</svg>
