<?xml version="1.0" encoding="UTF-8"?>
<svg width="23px" height="16px" viewBox="0 0 23 16" version="1.1" xmlns="http://www.w3.org/2000/svg" xmlns:xlink="http://www.w3.org/1999/xlink">
    <!-- Generator: Sketch 60 (88103) - https://sketch.com -->
    <title>“</title>
    <desc>Created with Sketch.</desc>
    <g id="Page-1" stroke="none" stroke-width="1" fill="none" fill-rule="evenodd">
        <g id="Guldvarg-ComHem-Copy" transform="translate(-60.000000, -120.000000)" fill="#FFD25F" fill-rule="nonzero">
            <g id="Stacked-Group-3" transform="translate(60.000000, 60.000000)">
                <g id="Stacked-Group-3-Copy-7">
                    <g id="Stacked-Group">
                        <g transform="translate(0.000000, 60.000000)" id="quote">
                            <g>
                                <path d="M3.40740741,16 C5.58436214,16 7.76131687,13.7278107 7.76131687,11.739645 C7.76131687,10.3195266 6.72016461,9.37278107 5.20576132,9.27810651 C4.54320988,9.27810651 4.16460905,9.0887574 4.25925926,8.52071006 C4.82716049,6.0591716 8.2345679,3.50295858 10.2222222,2.55621302 C11.1687243,2.17751479 11.9259259,1.5147929 11.9259259,0.946745562 C11.9259259,0.189349112 10.9794239,0 10.4115226,0 C9.37037037,0 7.09876543,0.946745562 5.86831276,1.89349112 C2.55555556,3.8816568 0,7.76331361 0,11.0769231 C0,13.443787 1.32510288,16 3.40740741,16 Z M14.6707819,16 C16.7530864,16 18.7407407,13.443787 18.7407407,11.6449704 C18.7407407,10.3195266 17.6049383,9.37278107 16.3744856,9.27810651 C15.5226337,9.18343195 15.1440329,8.89940828 15.5226337,8.04733728 C16.1851852,6.24852071 18.9300412,3.69230769 21.1069959,2.84023669 C21.7695473,2.46153846 23,1.79881657 23,1.04142012 C23,0.378698225 22.0534979,0.189349112 21.3909465,0.189349112 C20.5390947,0.189349112 18.7407407,0.852071006 17.4156379,1.79881657 C13.9135802,3.97633136 11.1687243,7.10059172 11.1687243,11.2662722 C11.1687243,13.3491124 12.2098765,16 14.6707819,16 Z" id="“"></path>
                            </g>
                        </g>
                    </g>
                </g>
            </g>
        </g>
    </g>
</svg>